<?xml version="1.0" standalone="no"?>
<!DOCTYPE svg PUBLIC "-//W3C//DTD SVG 1.1//EN" "http://www.w3.org/Graphics/SVG/1.1/DTD/svg11.dtd" >
<svg xmlns="http://www.w3.org/2000/svg" xmlns:xlink="http://www.w3.org/1999/xlink" version="1.1">
<metadata>
Created by FontForge 20200427 at Thu Dec 10 22:31:07 2015
 By www
http://www.resistenza.es
</metadata>
<defs>
<font id="NauticaW00-Regular" horiz-adv-x="174" >
  <font-face 
    font-family="NauticaW00-Regular"
    font-weight="250"
    font-style="italic"
    font-stretch="normal"
    units-per-em="900"
    panose-1="1 0 0 0 0 0 0 0 0 0"
    ascent="720"
    descent="-180"
    x-height="326"
    cap-height="685"
    bbox="-2591 -1414 2564 1041"
    underline-thickness="45"
    underline-position="-112"
    slope="-20"
    unicode-range="U+0020-2766"
  />
<missing-glyph horiz-adv-x="600" 
 />
    <glyph glyph-name="L_e_t_t.liga" unicode="Lett" horiz-adv-x="1167" 
d="M1196 333l-1 -1l-117 -157q-79 -105 -96.5 -131t-17.5 -35q0 -6 6 -6q28 0 89.5 58.5t109.5 124.5h5q-49 -68 -111.5 -127.5t-91.5 -59.5q-12 0 -18 10t-6 21q0 27 37 82q-43 -48 -83 -80.5t-60 -32.5q-12 0 -18 10t-6 21q0 30 54 107q-54 -56 -121 -98t-106 -42
q-14 0 -23.5 14.5t-9.5 38.5q0 27 16.5 67.5t48 81t64.5 68.5t68.5 45t67.5 17q15 0 24 -7t9 -17q0 -20 -25 -48t-66 -48q-49 -25 -102 -31q-35 -49 -58.5 -95.5t-23.5 -67.5q0 -14 11 -14q43 0 119.5 52t128.5 114l32 41l95 126q-52 12 -78.5 37.5t-26.5 56.5
q0 20 11.5 44.5t43.5 52t79.5 43t94.5 15.5v-2q-43 0 -93 -25.5t-80.5 -66t-30.5 -73.5q0 -27 20.5 -47.5t62.5 -30.5l93 126q4 -8 15 -8q10 0 21.5 7t19.5 16q-27 -39 -108 -147q14 -2 47 -2l36 1l99 133q5 -8 16 -8q4 0 15.5 4t24.5 19l-102 -140q41 9 82 30.5t74 57
t54 82.5t21 101q0 41 -14.5 79.5t-43.5 67.5t-73.5 46t-100.5 17q-95 0 -177.5 -36t-149 -96t-117.5 -123.5t-136 -180.5t-138 -174q-165 -175 -351 -215q5 -1 13.5 -3.5t128.5 -35t223.5 -54t159.5 -21.5q82 0 136 22q44 19 75 67l1 -3q-83 -134 -240 -134l-32 2
q-35 3 -115 23.5t-200 61.5t-186 68q-39 -6 -83 -6q-20 0 -32.5 6.5t-12.5 14.5t11 13.5t31 5.5q15 0 81 -16l33 -9q64 13 117.5 42t102 72t99.5 105q32 39 146.5 198.5t195.5 235t148 110.5t132 51t136 16q64 0 114 -17.5t82.5 -47.5t49 -69t16.5 -81q0 -44 -17.5 -89
t-51.5 -83.5t-84 -67t-112 -39.5zM1008 146l47 62l88 118l-33 -1l-49 2l-113 -152q-79 -105 -96.5 -131t-17.5 -35q0 -6 6 -6q23 0 72 42.5t96 100.5zM875 326q-17 0 -48 -22.5t-78 -81.5l-31 -41q20 2 48 10.5t50 20.5q34 19 54 47t20 49q0 18 -15 18zM10 -15q36 0 76 5
q-25 10 -52.5 17t-42.5 7q-23 0 -23 -12q0 -7 11.5 -12t30.5 -5z" />
    <glyph glyph-name="L_i_t_t.liga" unicode="Litt" horiz-adv-x="1165" 
d="M1196 333l-1 -1l-117 -157q-79 -105 -96.5 -131t-17.5 -35q0 -6 6 -6q28 0 89.5 58.5t109.5 124.5h5q-49 -68 -111.5 -127.5t-91.5 -59.5q-12 0 -18 10t-6 21q0 27 37 82q-43 -48 -83 -80.5t-60 -32.5q-12 0 -18 10t-6 21q0 25 34 78q-42 -47 -80.5 -78t-58.5 -31
q-12 0 -18 10t-6 21q0 13 13 42t95 136q50 64 90 119q6 -8 16 -8q9 0 21 7t19 16q-26 -38 -72.5 -99.5t-50.5 -66.5q-13 -18 -49.5 -67t-50.5 -70.5t-14 -29.5q0 -6 6 -6q22 0 68 39.5t93 95.5l53 70l94 125q-67 13 -103 45.5t-36 70.5q0 49 51.5 86.5t134.5 37.5v-2
q-61 0 -109 -42.5t-48 -91.5q0 -33 28 -60.5t85 -39.5l94 127q4 -8 16 -8q4 0 15.5 4t24.5 19l-108 -148l47 -1l36 1l99 133q5 -8 16 -8q4 0 15.5 4t24.5 19l-102 -140q54 13 98 40.5t74 65t45 80.5t15 85q0 41 -14.5 79.5t-44 67.5t-74 46t-100.5 17q-95 0 -177.5 -36
t-149 -96t-117.5 -123.5t-136 -180.5t-138 -174q-165 -175 -351 -215q280 -78 375 -97t146 -19q38 0 74 6t62 17q47 20 75 66l2 -2q-28 -45 -63.5 -74.5t-78.5 -44.5t-98 -15l-32 1q-35 3 -114 24t-197 62t-187 69q-39 -6 -83 -6q-20 0 -32.5 6.5t-12.5 14.5t11 13.5t31 5.5
q15 0 81 -16l32 -9q64 13 118 42t102.5 72t99.5 105q32 39 146.5 198.5t195.5 235t148 110.5t132 51t136 16q64 0 114 -17.5t82.5 -47.5t49 -69t16.5 -81q0 -44 -17.5 -89t-51.5 -83.5t-84 -67t-112 -39.5zM982 495l-1 -1q6 11 16 19.5t18 8.5q2 0 7.5 -2.5t5.5 -12.5
q0 -7 -5 -17q-5 -11 -15 -19.5t-18 -8.5q-6 0 -9.5 5t-3.5 11q0 5 5 17zM1008 146l47 61l88 119l-33 -1l-49 2l-113 -152q-79 -105 -96.5 -131t-17.5 -35q0 -6 6 -6q23 0 72 42.5t96 100.5zM10 -15q36 0 76 5q-61 24 -95 24q-23 0 -23 -12q0 -7 11.5 -12t30.5 -5z" />
    <glyph glyph-name="S_t.liga" unicode="St" horiz-adv-x="828" 
d="M968 405v-1q7 0 6.5 -4.5t-6.5 -4.5l-65 1l-164 -220q-76 -101 -95 -129t-19 -38q0 -6 6 -6q28 0 89.5 58.5t109.5 124.5h5q-49 -68 -111.5 -127.5t-91.5 -59.5q-12 0 -18 10t-6 21q0 13 13 42t95 136l140 188h-95q-15 -31 -40.5 -55t-53.5 -33t-52 -9q-21 0 -43 9.5
t-36 31t-14 44.5q0 27 19 46t51 19q17 0 25.5 -8t8.5 -17q0 -16 -15 -21l137 -1q14 17 22.5 41t8.5 47q0 52 -31.5 76t-81.5 24q-41 0 -78 -15t-62.5 -38t-37 -51t-11.5 -55q0 -22 3 -54.5t18.5 -96t20 -98t4.5 -69.5q0 -57 -24 -112t-66.5 -97t-98 -66t-115.5 -24
q-37 0 -73.5 10.5t-65 34.5t-46.5 61.5t-18 84.5q0 44 17 87.5t50.5 78.5t82.5 56t109 21q28 0 57 -8.5t46.5 -30.5t19.5 -49v-5q0 -31 -21 -65t-63.5 -54.5t-91.5 -20.5l-24 1v3l23 -1q28 0 56.5 8.5t51.5 27.5t37.5 47t13.5 59q-2 36 -29 60.5t-76 24.5q-41 0 -83 -13
t-76.5 -42.5t-57 -73t-22.5 -93.5q0 -49 22.5 -85.5t61 -56t91.5 -19.5q51 0 103.5 18t96 52.5t70 85t26.5 111.5q0 48 -18.5 150.5t-18.5 148.5q0 33 11.5 67t36.5 62t62 46.5t79 18.5q53 0 89 -34t36 -96q0 -47 -20 -89l96 -1l47 62q4 -7 16 -7q4 0 15.5 4t24.5 19
l-56 -78zM599 333q39 0 78 16.5t65 45.5l-140 -1q-5 0 -8 4q0 5 9 5h2q8 6 8 19q0 9 -6.5 16.5t-21.5 7.5q-26 0 -42 -17t-16 -40q0 -27 20 -41.5t52 -14.5z" />
    <glyph glyph-name="T_h.liga" unicode="Th" horiz-adv-x="1009" 
d="M1238 682l-1 -1q0 -20 -27.5 -51.5t-77.5 -57t-103 -34.5q-27 -33 -48 -64l-134 -182q-7 -9 -35.5 -40.5t-34.5 -46.5q105 122 146 122q22 0 33.5 -11.5t11.5 -31.5q0 -22 -12.5 -50.5t-34.5 -57.5q-4 -5 -33.5 -43.5t-55.5 -75t-26 -48.5q0 -6 6 -6q28 0 89.5 58.5
t109.5 124.5h5q-49 -68 -111.5 -127.5t-91.5 -59.5q-12 0 -18 10t-6 21q0 12 12 40t85 124q23 28 40.5 59.5t17.5 50.5t-20 19q-46 0 -178 -169l-115 -156q-6 12 -18 12q-16 0 -36 -19q42 58 100.5 138t141.5 192t85 115l79 99l-8 -1q-46 0 -113 7q-37 -27 -69 -64
q-20 -23 -58 -75l45 1l32 1q5 0 7 -4q-2 -5 -7 -5l-26 1l-54 1q-5 -7 -18 -27t-81 -127t-119 -164t-94.5 -88.5t-87 -50.5t-89.5 -28.5t-98 -9.5q-40 0 -77 13t-59 46t-22 78q0 46 25.5 105t77 112t110.5 86q-16 32 -16 66q0 40 20.5 80.5t61 73.5t102 53t137.5 20
q86 0 233 -38.5t188.5 -44t65.5 -6.5q68 82 118.5 122.5t86.5 40.5q20 0 30.5 -7.5t10.5 -19.5zM1196 705q-16 0 -62 -45t-98 -112q54 7 100.5 34t70.5 54t24 46q0 10 -8.5 16.5t-26.5 6.5zM781 485l-1 -1q23 28 60 59q-41 5 -196.5 31.5t-223.5 26.5q-39 0 -79 -10.5
t-72 -34.5t-53 -59t-21 -77q0 -37 20 -71q94 47 199 47q61 0 91 -23.5t30 -61.5q0 -34 -23 -74t-63 -74.5t-93 -56t-108 -21.5q-25 0 -47.5 7t-31 19.5t-6.5 24.5l3 1q1 -10 13.5 -19.5t67.5 -9.5t107.5 19.5t92 51.5t62 68.5t22.5 67.5q0 35 -29.5 56t-88.5 21
q-103 0 -195 -47q21 -33 63.5 -53.5t102.5 -20.5q35 0 71 7v-2q-54 -14 -92 -14h-4q-56 0 -96.5 20.5t-60.5 53.5q-55 -31 -103 -79t-72 -100.5t-24 -93.5q0 -32 14 -57.5t46.5 -43t88.5 -17.5q45 0 99 8.5t112.5 35.5t109.5 72.5t90.5 99t88 132t64.5 103.5l-42 -1l-32 -1
q-5 0 -8 4q0 5 9 5l34 -1l43 -1q35 53 61 84z" />
    <glyph glyph-name="b_r.liga" unicode="br" horiz-adv-x="511" 
d="M497 314v-1q-16 -6 -35 -26t-33 -53t-14 -59q0 -19 8.5 -30.5t24.5 -11.5q12 0 29.5 14t36.5 39h5q-21 -28 -39.5 -42.5t-31.5 -14.5q-16 0 -30 12.5t-14 36.5q0 16 10 42.5t33 55t44 39.5l-1 1q-46 -8 -107 -65.5t-151 -193.5l-14 -22l-25 -37v-1q-7 3 -21 3
q-12 0 -21 -3l122 185q-19 1 -34.5 9t-24.5 20q-12 -42 -37 -76.5t-55.5 -61.5t-71.5 -50t-71 -23q-12 0 -18 10t-6 21q0 13 10.5 36.5t34 56t63.5 84.5q65 84 234 314q6 -7 16 -7q9 0 21 7t19 16q-21 -32 -111.5 -153.5t-155.5 -208.5q-11 -15 -44.5 -59.5t-51.5 -71
t-18 -35.5q0 -6 6 -6q21 0 61 18.5t79.5 54t62 71t30.5 67.5q-10 14 -14 35l-1 16q0 13 4.5 21t9.5 6t8.5 -10t3.5 -21q0 -23 -6 -46q21 -30 60 -30q59 93 59 123q0 13 -8 15l-3 1l9 3q12 0 21 -9.5t9 -29.5q0 -17 -13 -43.5t-42.5 -67.5t-31.5 -44q72 96 126.5 139.5
t91.5 47.5q19 8 23 8q7 0 11.5 -3t4.5 -7t-4.5 -7t-11.5 -3q-5 0 -20 5z" />
    <glyph glyph-name="b_v.liga" unicode="bv" horiz-adv-x="574" 
d="M606 337q8 0 13.5 -7t5.5 -19q0 -22 -60 -102.5t-134 -144.5t-115 -64q-12 0 -18 10t-6 21q0 18 18 50.5t79 112.5q23 28 40.5 59.5t17.5 50.5t-20 19q-8 0 -21 -11.5t-43 -47.5t-42 -47.5t-22 -19t-20 -9.5l-13 -1q-6 0 -21.5 4t-29.5 21q-14 -52 -58 -103t-96 -80
t-82 -29q-12 0 -18 10t-6 21q0 13 10.5 36.5t34 56t63.5 84.5q24 31 112 149.5t122 165.5q5 -8 16 -8q9 0 21 7t19 16q-21 -32 -111.5 -153.5t-155.5 -208.5q-11 -15 -44.5 -59.5t-51.5 -71t-18 -35.5q0 -6 6 -6q21 0 56 16.5t71.5 45.5t66 68t40.5 82q-11 16 -15 34l-1 16
q0 12 3.5 19.5t8.5 7.5t9.5 -8.5t4.5 -22.5q0 -22 -6 -45q19 -26 50 -26l12 1q6 1 15.5 6.5t23.5 19t54 61.5t56 48q22 0 33 -11.5t11 -30.5q0 -22 -12.5 -51t-34.5 -58q-74 -97 -94 -126.5t-20 -39.5q0 -6 6 -6q23 0 61.5 24.5t91 78t90 104t37.5 58.5t-9.5 16.5t-9.5 19.5
q0 13 9.5 22.5t19.5 9.5z" />
    <glyph glyph-name="d_i.liga" unicode="di" horiz-adv-x="445" 
d="M560 549h-1q17 0 17 -16q0 -11 -11 -36q6 15 6 24q0 21 -34 13q-26 -6 -95 -37q-26 -88 -108 -202q-55 -76 -129 -148t-148 -120q-37 -29 -55 -29q-14 0 -23.5 14.5t-9.5 38.5q0 36 25.5 90.5t70 100.5t84.5 65t72 19q19 0 30 -10t11 -28q0 -35 -51 -102.5t-113 -124.5
q61 49 118.5 115.5t100.5 134.5q56 88 84 167q-55 -24 -91.5 -37t-61.5 -13q-32 0 -48 13.5t-16 34.5q0 22 15 47.5t41.5 48t62 36.5t74.5 14q37 0 55.5 -18.5t18.5 -51.5q0 -24 -7 -49q42 20 60.5 29t33.5 13q11 4 22 4zM248 432q49 0 155 51q16 50 16 81q0 25 -11 39.5
t-32 14.5q-45 0 -81.5 -21.5t-59 -57t-22.5 -66.5q0 -18 9 -29.5t26 -11.5zM553 523q5 0 8.5 -4.5t3.5 -11.5q0 -8 -4 -16q-5 -11 -15 -19.5t-18 -8.5q-2 0 -7.5 2.5t-5.5 12.5q0 9 4 17q6 11 16 19.5t18 8.5zM480 342h-1q-26 -39 -122 -166q-10 -14 -44.5 -59.5t-52.5 -72
t-18 -35.5q0 -6 6 -6q28 0 89.5 58.5t109.5 124.5h5q-49 -68 -111.5 -127.5t-91.5 -59.5q-12 0 -18 10t-6 21q0 13 13 42t95 136l91 119q5 -8 15 -8t21.5 7t19.5 16zM-10 15q0 -14 11 -14q23 0 87.5 57t116.5 127t52 102q0 16 -8.5 23.5t-20.5 7.5q-18 0 -40.5 -12
t-41.5 -30q-25 -24 -53.5 -61.5t-49.5 -71.5q-53 -89 -53 -128z" />
    <glyph glyph-name="e_r.liga" unicode="er" horiz-adv-x="499" 
d="M508 187q-28 -38 -68 -84t-78 -77.5t-54 -31.5q-13 0 -23 10.5t-10 36.5q0 25 14 60.5t38 69.5q16 23 35 46t48 53.5t30 36.5v1q0 5 -7 5q-4 0 -26.5 -6t-53.5 -7q-25 -40 -83 -114q-22 -30 -69 -73.5t-106 -79t-94 -35.5q-14 0 -23.5 14.5t-9.5 38.5q0 36 27.5 91
t75 102t88.5 66.5t73 19.5q13 0 20.5 -7.5t7.5 -18.5q0 -20 -23 -47.5t-63 -47.5q-53 -26 -102 -30q-35 -50 -58.5 -96t-23.5 -67q0 -14 11 -14q23 0 66.5 20.5t103.5 69t95 95.5q50 65 83 115q6 17 6 26l-3 30q0 7 4.5 11t9.5 4t9 -4t4 -11q0 -16 -23 -53q23 0 59.5 9.5
t44.5 9.5q22 0 22 -16q0 -15 -20 -42q-8 -11 -44.5 -53t-52.5 -63q-27 -36 -46.5 -76t-19.5 -61q0 -14 11 -14t37.5 19.5t72 68t83.5 100.5h5zM105 223l-31 -41q21 2 48.5 10.5t49.5 20.5q34 18 54 46t20 49q0 7 -4 12.5t-10 5.5q-22 0 -56 -28.5t-71 -74.5z" />
    <glyph glyph-name="e_s_t.liga" unicode="est" horiz-adv-x="607" 
d="M760 -95l-2 -2q83 0 83 -35q0 -25 -38 -62t-100.5 -72t-137 -58t-141.5 -23q-24 0 -48.5 8.5t-40 31t-20.5 53.5q-263 -97 -428 -97q-47 0 -85 7q-52 8 -92 27.5t-57.5 45t-17.5 49.5q0 43 45 74t119 31v-3q-34 -1 -71.5 -11t-62 -32.5t-24.5 -47.5q0 -15 12.5 -34.5
t51 -37.5t98.5 -26q50 -6 100 -6q178 0 411 76l-1 15q0 76 29.5 161t118.5 221q-40 -42 -82 -65q-5 -20 -21 -43t-45.5 -38.5t-59.5 -15.5q-28 0 -47.5 13.5t-19.5 39.5q0 18 13.5 32.5t32.5 14.5q16 0 24.5 -8t8.5 -17l-2 -9h2q28 0 53 8q15 25 25 60q3 10 5 31l1 28v50
q0 42 8 67q-22 -37 -87 -120q-35 -47 -91 -93t-102.5 -71t-76.5 -25q-14 0 -23.5 15t-9.5 38q0 36 27.5 91t75 102t88.5 66.5t73 19.5q17 0 25.5 -7t8.5 -17q0 -20 -25 -48t-66 -48q-24 -12 -53 -20.5t-49 -9.5q-35 -51 -59 -97t-24 -67q0 -14 11 -14q23 0 66.5 20.5
t103.5 69t95 95.5h-1q64 81 92 126q5 11 10 33.5t16 23.5h3q5 0 8.5 -3.5t3.5 -9.5q0 -7 -15 -20t-20 -21q-6 -18 -6 -36v-4q0 -24 13.5 -73.5t13.5 -76.5l-1 -17l-1 -10q49 29 93 79q55 80 160 220q-29 0 -53 -2l-32 -1q-6 0 -9 5q3 5 9 5l34 -1l55 -1l48 62q5 -8 16 -8
q4 0 15.5 4t24.5 19l-57 -77l51 1l32 1q5 0 7 -4q-3 -5 -7 -5l-26 1l-60 1q-115 -153 -173 -236.5t-98 -156.5t-61.5 -132.5t-22.5 -105.5q67 22 179.5 64t152 54.5t63.5 16.5t38 4zM231 326q-17 0 -48 -22.5t-79 -81.5l-31 -41q21 2 49 10.5t50 20.5q34 18 54 46.5t20 48.5
q0 19 -15 19zM238 4l-1 -1q16 0 37 13.5t41 48.5q-29 -8 -51 -8q-8 0 -28.5 3t-37.5 16q-9 -12 -9 -26q0 -21 15 -33.5t34 -12.5zM427 -341v-1q68 0 140 22t130.5 56.5t94 70.5t35.5 60q0 30 -69 30q-58 0 -223.5 -65.5t-209.5 -81.5q2 -48 30 -69.5t72 -21.5z" />
    <glyph glyph-name="f_f.liga" unicode="ff" horiz-adv-x="414" 
d="M628 587v-1q22 0 35 -13t13 -38q0 -15 -6.5 -32t-16.5 -29q-6 -6 -11 -6q-4 0 -5 4t2 9q3 3 13.5 12t15.5 18t5 22q0 21 -11 33.5t-29 12.5q-19 0 -44 -15t-51 -43q-23 -26 -58.5 -71.5t-122.5 -170.5t-130 -182h3q33 0 70.5 10t68.5 32t51 48h5q-21 -27 -54 -50.5
t-69.5 -33.5t-67.5 -10h-10q-95 -125 -163 -191q-28 -27 -70.5 -57t-94 -50t-93.5 -20q-35 0 -56 12q-38 -20 -79 -31t-83 -11l-22 1q-28 2 -51.5 12.5t-35.5 32.5t-12 47q0 7 2.5 24t10.5 31q6 10 14 10q6 0 9 -6.5t-1 -13.5q-3 -4 -12 -8.5t-9 -6.5q-7 -16 -7 -34
q0 -23 11.5 -41.5t35 -29.5t62.5 -11q76 0 161 54.5t188 180.5h-1q16 23 29 50.5t13 50.5q0 11 -4 15q-2 -1 -6 -3.5t-6 -2.5q-5 0 -8.5 3t-3.5 6q0 4 3 7t8 3q6 0 30.5 -7.5t32.5 -8.5q21 29 130.5 184t175.5 223q32 33 68 52t64 19q22 0 35.5 -13t13.5 -38l-1 -4
q31 30 65.5 47t60.5 17zM363 512q-39 -44 -90.5 -109t-129 -174.5t-93.5 -131.5h6q96 0 163 59q120 172 175 243t100 116l4 4v7q0 21 -10.5 32.5t-29.5 11.5t-44 -14.5t-51 -43.5zM40 -80q61 70 170 224q-66 -51 -150 -51h-12q-59 -81 -111.5 -143t-100 -101t-83.5 -59
q21 -10 49 -10q25 0 63.5 12t86 46t88.5 82zM-27 87q0 -32 -24 -75q22 27 64 85q-2 0 -18.5 3.5t-23.5 3.5h-1z" />
    <glyph glyph-name="f_n.liga" unicode="fn" horiz-adv-x="613" 
d="M622 187l-1 -1q-49 -68 -111.5 -127.5t-91.5 -59.5q-12 0 -18 10t-6 21q0 18 18.5 53t76.5 111q21 26 40 58.5t19 51.5q0 9 -5 13.5t-13 4.5q-9 0 -21 -5q-24 -13 -59.5 -52.5t-74 -92.5t-77 -110.5t-43.5 -64.5q-6 6 -21 6q-16 0 -25 -6q7 11 22.5 34t90 133t74.5 145
q0 14 -8 14q-10 0 -58 -57.5t-68 -79.5q-85 -93 -191 -93h-16l-234 -322q-12 6 -22 6q-15 0 -31 -11l162 220v1q18 26 33 56t15 51l-1 7l-13 -4q-5 0 -8.5 3t-3.5 6q0 4 3 7t8 3q6 0 29 -7t24 -7q199 272 266 360q50 69 82.5 101t61.5 32q16 0 23 -8.5t7 -19.5
q0 -27 -29.5 -76.5t-83 -93t-111.5 -61.5l-174 -239h9q49 0 95.5 19.5t94.5 69.5q9 9 22 24t55 64.5t53 52.5l8 1q13 0 21.5 -10t8.5 -29q0 -18 -13.5 -45t-43 -67t-31.5 -45q115 160 170 189q12 6 26 6q17 0 29.5 -11t12.5 -31q0 -22 -12.5 -51t-34.5 -58
q-95 -124 -105.5 -142t-10.5 -24t6 -6q28 0 89.5 58.5t109.5 124.5h5zM292 418l-56 -76q44 14 92 49t82.5 89t34.5 89q0 10 -5.5 15t-12.5 5q-5 0 -16.5 -8.5t-33 -37t-50.5 -73t-35 -52.5zM-21 92q0 -29 -21 -68l55 75l-30 3l-5 -1z" />
    <glyph glyph-name="f_r.liga" unicode="fr" horiz-adv-x="491" 
d="M500 187l-1 -1q-28 -38 -68 -84t-78 -77.5t-54 -31.5q-17 0 -27 14.5t-10 33.5q0 18 12 51t44 79q17 24 36 46t48 53.5t29 36.5q0 6 -6 6q-1 0 -2.5 -0.5t-24.5 -6.5t-54 -6l-8 -12q-67 -100 -129.5 -148t-156.5 -54l-229 -315q-12 6 -22 6q-13 0 -31 -11l162 220l1 1
l19 26q5 8 15 27.5t10 34.5l-2 8l-13 -4q-5 0 -8.5 3t-3.5 6q0 4 3 7t8 3q4 0 13 -5t14 -5h19l276 374q51 69 83.5 101t61.5 32q16 0 23 -8.5t7 -19.5q0 -27 -29.5 -76.5t-83 -93t-111.5 -61.5l-180 -247q93 6 156.5 56t125.5 147l6 10q6 13 6 26l-2 30q0 7 4 11t9 4t9 -4
t4 -11q0 -16 -23 -53q22 0 59 9.5t46 9.5q21 0 21 -16q0 -17 -19 -42q-10 -13 -54 -64.5t-69 -89.5t-32 -62t-7 -38q0 -13 9 -13q11 0 38 19.5t72.5 68t83.5 100.5h5zM292 418l-56 -76q44 14 92 49t82.5 89t34.5 89q0 10 -5.5 15t-12.5 5q-5 0 -16.5 -8.5t-33 -37t-50.5 -73
t-35 -52.5zM-34 36v-1l36 49h-23l-4 -1l1 -9q0 -19 -10 -38z" />
    <glyph glyph-name="f_t.liga" unicode="ft" horiz-adv-x="382" 
d="M518 405l-1 -1q5 0 7 -4q0 -2 -2.5 -3.5t-4.5 -1.5h-26l-33 1l-163 -220q-2 -3 -40 -53t-56.5 -77t-18.5 -37q0 -6 6 -6q28 0 89.5 58.5t109.5 124.5h5q-49 -68 -111.5 -127.5t-91.5 -59.5q-12 0 -18 10t-6 21q0 35 65 121q-30 -26 -70.5 -42t-86.5 -16h-16l-234 -322
q-12 6 -22 6q-15 0 -31 -11l162 220v1q18 26 33 56t15 51l-1 7l-13 -4q-5 0 -8.5 3t-3.5 6q0 4 3 7t8 3q6 0 29 -7t24 -7q199 272 266 360q50 69 82.5 101t61.5 32q16 0 23 -8.5t7 -19.5q0 -27 -29.5 -76.5t-83 -93t-111.5 -61.5l-174 -239h9q56 0 100.5 20.5t73.5 50.5
l31 41q52 67 190 255q6 -7 16 -7q9 0 21 6.5t19 15.5l-55 -77l22 1zM292 418l-56 -76q44 14 92 49t82.5 89t34.5 89q0 10 -5.5 15t-12.5 5q-10 0 -30.5 -22t-61 -84t-43.5 -65zM-21 92q0 -29 -21 -68l55 75l-30 3l-5 -1z" />
    <glyph glyph-name="g_r.liga" unicode="gr" horiz-adv-x="566" 
d="M575 187l-1 -1q-59 -81 -118 -137t-82 -56q-17 0 -27 14.5t-10 33.5q0 18 12.5 50.5t44.5 79.5q16 23 34.5 45t48 53.5t30.5 37.5q0 6 -7 6q-4 0 -26 -6t-53 -7q-9 -19 -33 -52t-52 -62q-149 -160 -215 -176l-14 -18q-128 -162 -188 -213t-96 -51q-10 0 -16 5.5t-6 14.5
q0 15 16 45.5t58 76.5t95.5 81.5t97.5 46.5l103 138q-48 -55 -98 -96.5t-71 -41.5q-24 0 -32 39l-1 14q0 36 25.5 90.5t70 100.5t84.5 65t72 19q19 0 30 -10t11 -28t-16 -48l62 88q5 -8 16 -8q9 0 21 7t19 16q-40 -59 -108 -153t-130 -174q66 20 206 171q19 20 39 44.5
t44 68.5q7 17 7 28l-3 29q0 7 4.5 11.5t9.5 4.5t9 -4t4 -11q0 -17 -20 -48l-2 -5q23 0 59 9.5t44 9.5q22 0 22 -16q0 -15 -20 -42q-6 -8 -63 -76t-77.5 -109t-20.5 -69q0 -13 9 -13q11 0 37.5 19.5t72 68t83.5 100.5h5zM1 1q23 0 87.5 57t116.5 127t52 102q0 16 -8.5 24
t-20.5 8q-18 0 -40.5 -12.5t-41.5 -30.5q-24 -24 -52.5 -60.5t-50.5 -72.5q-53 -89 -53 -128q0 -14 11 -14zM-186 -266q21 0 82.5 61.5t166.5 197.5q-56 -15 -118 -65t-101 -105.5t-39 -77.5q0 -11 9 -11z" />
    <glyph glyph-name="i_e_r.liga" unicode="ier" horiz-adv-x="653" 
d="M255 464v-1q-6 0 -9.5 4.5t-3.5 11.5q0 8 4 17q6 11 16 19t18 8q2 0 7.5 -2.5t5.5 -12.5q0 -7 -5 -17q-5 -11 -15 -19t-18 -8zM714 176h-1q3 2 7 1.5t3 -6.5q-9 -54 -49.5 -109.5t-95 -87.5t-94.5 -32q-31 0 -50.5 17t-19.5 50q0 21 11 57t44.5 85.5t74 96.5t44 52.5
t3.5 6.5q0 5 -7 5q-2 0 -18 -4t-32 -6t-31 -2q-21 -36 -82 -114q-2 -3 -28.5 -34.5t-54 -61.5t-53.5 -50t-51.5 -33t-53.5 -13q-34 0 -52.5 19t-18.5 49q0 23 11 48q-42 -47 -81.5 -79t-59.5 -32q-12 0 -18 10t-6 21q0 13 13 42t95 136q50 64 90 119q6 -8 16 -8q9 0 21 7
t19 16q-26 -38 -72.5 -99.5t-50.5 -66.5q-10 -13 -44 -58.5t-52 -72t-18 -36.5q0 -6 6 -6q20 0 62.5 35.5t87.5 86.5q17 28 48 49t71 27h-2q-30 20 -30 49q0 24 20.5 47t51.5 33t58 10q26 0 40.5 -12.5t14.5 -30.5q0 -19 -15.5 -34t-40.5 -15q-2 0 -4.5 2.5t-2.5 4.5
q0 3 4 6t11 3q19 0 31 11.5t12 26.5t-13 25t-39 10q-16 0 -37 -10t-37 -34.5t-16 -53.5q0 -27 13 -37l14 1q13 0 13 -5q0 -6 -11 -6q-9 0 -21 5q-26 -6 -52 -27t-44.5 -58t-18.5 -68q0 -21 9 -33.5t26 -12.5q27 0 55.5 14.5t54.5 37t46 44t80 93.5q61 78 83 115q6 13 6 25
l-2 30q0 7 4 11t9 4q13 0 13 -14q0 -16 -23 -53q22 0 59 9.5t46 9.5q21 0 21 -16q0 -14 -19 -42q-107 -137 -138 -195.5t-31 -89.5q0 -12 9 -23t34 -11q26 0 61.5 18t70 49.5t60.5 74t34 87.5z" />
    <glyph glyph-name="l_i.liga" unicode="li" horiz-adv-x="302" 
d="M927 636l-1 -14q-4 -36 -49 -61t-115 -25q-60 0 -122.5 12.5t-113.5 29t-100 32.5q-72 -64 -134 -153l-34 -48q97 17 137 57q-6 -3 -11 -3q-12 0 -12 15q0 9 4 17q5 11 15 19.5t18 8.5q13 0 13 -15q0 -9 -4 -17l-6 -11q-19 -28 -61 -48t-97 -29l-170 -227
q-5 -6 -41.5 -54.5t-55 -75.5t-18.5 -36q0 -6 6 -6q23 0 71.5 42t96.5 100l47 62q36 46 90 120q5 -8 16 -8q9 0 21 7t19 16q-12 -18 -122 -167q-5 -6 -41.5 -54.5t-55 -75.5t-18.5 -36q0 -6 6 -6q28 0 89.5 58.5t109.5 124.5h5q-49 -68 -111.5 -127.5t-91.5 -59.5
q-12 0 -18 10t-6 21q0 26 37 81q-43 -48 -82.5 -80t-59.5 -32q-12 0 -18 10t-6 21q0 13 10.5 36.5t34 56t63.5 84.5l140 189l-53 -2q-60 0 -119.5 10t-107 29.5t-75.5 48.5t-28 64q0 27 16 49.5t47.5 40.5t88.5 31t118 13q59 0 131 -11.5t180 -45.5q156 128 343 128
q82 0 133.5 -32.5t51.5 -83.5zM762 540q33 0 70 8t62.5 28.5t28.5 45.5q2 49 -47.5 81t-128.5 32q-177 0 -318 -122q104 -34 151.5 -47t94 -19.5t87.5 -6.5zM250 463q67 91 144 157q-107 34 -178 45.5t-129 11.5q-59 0 -114.5 -15.5t-89 -46.5t-33.5 -75q0 -24 15 -46
t41.5 -38.5t61.5 -28t82 -19.5t103 -8l52 2z" />
    <glyph glyph-name="l_l.liga" unicode="ll" horiz-adv-x="306" 
d="M863 552h-1q9 18 9 36q0 39 -38 65t-84 26q-76 0 -157 -55q49 -4 84.5 -23.5t35.5 -52.5q0 -29 -30 -66l1 8q8 17 8 36q0 17 -11.5 37.5t-39.5 35.5t-59 18q-59 -43 -121 -114.5t-141 -184t-101 -142.5q-5 -6 -41.5 -54.5t-55 -75.5t-18.5 -36q0 -6 6 -6q28 0 89.5 58.5
t109.5 124.5h5q-49 -68 -111.5 -127.5t-91.5 -59.5q-12 0 -18 10t-6 21q0 25 40 86q-44 -50 -84.5 -83.5t-61.5 -33.5q-12 0 -18 10t-6 21q0 13 13 41.5t94 136.5q6 7 21.5 28t109.5 154.5t174 181.5t175 52q95 63 202 63q40 0 74.5 -10t53.5 -27t19 -41q0 -29 -30 -66z
M194 208q19 25 104.5 144.5t134 173.5t94.5 87q-80 -13 -156 -77t-171 -199t-114 -161q-11 -15 -44.5 -59.5t-51.5 -71t-18 -35.5q0 -6 6 -6q25 0 80 50t104 113l9 12l6 8h1z" />
    <glyph glyph-name="r_e.liga" unicode="re" horiz-adv-x="581" 
d="M592 187l-1 -1q-57 -69 -84.5 -98t-54.5 -50t-53 -32.5t-49 -11.5q-35 0 -53 19t-18 49q0 27 13 52q-45 -51 -85 -83t-57 -32q-13 0 -23 11t-10 37q0 49 52 124q16 23 34.5 45t48 53.5t30.5 37.5q0 6 -7 6q-2 0 -18 -4.5t-31.5 -6.5t-30.5 -2q-15 -28 -70.5 -105.5
t-105.5 -136.5t-63 -59q-7 0 -10.5 4t-1.5 8q4 0 13.5 2t29.5 21q40 38 97 112.5t107 155.5q3 9 3 16q0 6 -4.5 18.5t-4.5 20.5q0 7 4.5 11t9.5 4t9 -4t4 -11q0 -12 -5 -28.5t-9 -23.5q23 0 59.5 9.5t44.5 9.5q22 0 22 -16q0 -17 -20 -42q-8 -11 -44.5 -53t-52.5 -63
q-28 -37 -47 -75t-19 -57q0 -13 11 -13q18 0 62.5 38t90.5 92q18 25 46.5 42.5t64.5 23.5h-1q-14 9 -22 22.5t-8 26.5q0 24 20.5 47t51.5 33t58 10q26 0 40.5 -12.5t14.5 -29.5q0 -20 -15.5 -35t-40.5 -15q-3 0 -5.5 2.5t-2.5 4.5q0 4 4.5 7t11.5 3q19 0 31 11.5t12 25.5
q0 15 -13 25t-39 10q-25 0 -48 -16.5t-32.5 -39.5t-9.5 -42q0 -25 13 -37l14 2q13 0 13 -6q0 -2 -4 -4t-7 -2t-21 5q-36 -8 -64.5 -39t-39.5 -63t-11 -51q0 -20 9 -32.5t26 -12.5q18 0 38.5 7t43.5 22.5t44.5 36t37.5 38t28 31.5t26 31t18 22h5z" />
    <glyph glyph-name="r_r.liga" unicode="rr" horiz-adv-x="480" 
d="M489 187l-1 -1q-58 -79 -117.5 -133t-82.5 -54q-12 0 -22.5 11t-10.5 37q0 49 52 124q7 10 24.5 32t49 56t35.5 40t4 8q0 1 -0.5 3.5t-5.5 2.5q-1 0 -2.5 -0.5t-24.5 -6.5t-54 -6q-25 -40 -83 -114q-28 -38 -67.5 -82.5t-77 -74.5t-54.5 -30q-12 0 -22.5 11t-10.5 37
q0 49 52 124q16 23 35 45t48 53.5t30 37.5q0 6 -7 6q-2 0 -18 -4.5t-31.5 -6.5t-30.5 -2q-25 -40 -83 -114h-5q55 69 84 116q3 9 3 16q0 6 -4.5 18.5t-4.5 20.5q0 7 4.5 11t9.5 4t9 -4t4 -10q0 -12 -5 -29t-9 -24q23 0 59.5 9.5t44.5 9.5q22 0 22 -16q0 -17 -20 -42
q-8 -11 -44.5 -53t-52.5 -63q-28 -37 -47 -75t-19 -57q0 -14 11 -14q24 0 83 56.5t110 125.5q62 80 83 116q4 8 4 16q0 6 -4.5 19t-4.5 21q0 7 4 11t9 4t9 -4t4 -11q0 -12 -5 -29t-9 -24q22 0 59 9.5t46 9.5q21 0 21 -16q0 -14 -19 -42q-8 -11 -45 -53t-53 -63
q-27 -37 -46.5 -75t-19.5 -56q0 -14 11 -14q24 0 84 57t110 125h5z" />
    <glyph glyph-name="s_h.liga" unicode="sh" horiz-adv-x="578" 
d="M912 142l-1 -1q-26 -36 -70.5 -78.5t-91 -78.5t-97.5 -66t-103 -48.5t-96 -18.5q-94 0 -102 56l-1 11q0 29 18.5 69.5t47 83.5t88 126t59.5 105q0 12 -15 12q-16 0 -47.5 -22.5t-81.5 -76t-98 -112.5l-80 -106q-6 13 -18 13q-14 0 -35 -19l132 181q-55 -53 -136 -93
q-14 -36 -49 -59t-72 -23q-27 0 -44 13.5t-19 32.5v4q0 16 11.5 27t33.5 11q15 0 41.5 -8.5t35.5 -8.5h4q16 28 26 62q4 15 6 31l1 28l-1 50q0 42 8 68q-22 -38 -87 -121h-5q70 89 91 127q6 11 11 35t14 27l6 1q6 0 10 -5t3 -12q0 -2 -2 -5.5t-16 -17t-20 -21.5
q-6 -18 -6 -35v-5q0 -24 13.5 -73.5t13.5 -76.5l-1 -17q0 -11 -5 -23q95 45 152 112l90 121l40 54l64 90q51 69 83.5 101t61.5 32q15 0 22 -8.5t7 -19.5q0 -27 -29.5 -76.5t-83.5 -93.5t-112 -61q-51 -77 -66 -100.5t-16 -29.5q108 113 149 113q17 0 28 -6t14 -15l2 -10
q0 -13 -12.5 -43.5t-90 -142t-91 -146.5t-13.5 -51q0 -46 68 -46q28 0 78 12.5t126 56t147.5 106.5t104.5 108h3zM485 342v-1q56 17 106.5 60t77.5 91.5t27 76.5q0 10 -6 14.5t-13 4.5q-10 0 -30 -22t-61.5 -84t-43.5 -64zM47 4q15 0 35.5 12.5t40.5 46.5h-2q-11 0 -37 10
q-19 7 -34 7q-19 0 -30.5 -12t-11.5 -28q0 -15 10 -25.5t29 -10.5z" />
    <glyph glyph-name="s_s.liga" unicode="ss" horiz-adv-x="507" 
d="M516 187l-1 -1q-25 -29 -53.5 -53.5t-53.5 -39.5q-5 -20 -21.5 -43t-46 -38.5t-58.5 -15.5q-19 0 -38 8q-20 9 -34.5 32t-14.5 51l1 11l-7 -3q-5 -21 -20.5 -44t-45.5 -39t-60 -16q-19 0 -38 8q-49 21 -49 76h4q0 -25 12.5 -43t32.5 -28q10 -5 23 -5q25 0 49 24.5
t41 61.5q-17 2 -33.5 8.5t-41 21t-34.5 14.5q-20 0 -34 -16t-14 -38h-5q0 23 16 40.5t37 17.5q14 0 47.5 -20.5t62.5 -23.5q8 16 13 36q5 15 6 31l1 28l-1 50q0 36 8 67q-17 -31 -88 -121h-5q57 74 69.5 91.5t23.5 35.5q1 10 5.5 22t13.5 19t16 4q3 -1 3 -6q0 -3 -3 -7.5
t-15 -15.5t-15 -14q-6 -18 -6 -35v-4q0 -24 14 -73.5t14 -76.5l-1 -17l-1 -8l6 2q2 12 6 24q2 11 8 19q9 12 18 7q5 -3 5 -7q0 -7 -5 -11.5t-12.5 -8.5t-9.5 -5v-2l2 -11q21 11 43 32t41 47h5q-44 -60 -88 -82q6 -18 28 -30t55 -12q10 0 26.5 3t27.5 6q15 24 25 60
q3 10 5 30l1 29v49q0 42 8 68q-19 -33 -88 -121h-5q39 50 58 76t34 51q2 21 14 34.5t21 10.5q4 -1 4 -6q0 -7 -15.5 -21t-17.5 -17q-6 -16 -6 -34v-4q0 -24 13.5 -74t13.5 -77l-1 -17l-1 -9q23 14 50.5 37.5t50.5 50.5h5zM202 116l-2 -13l5 2l-2 12zM266 4v-1q21 0 41 17
t37 45q-30 -8 -52 -8q-35 0 -57.5 13t-28.5 32l-7 -3v-9q0 -35 20 -60.5t47 -25.5z" />
    <glyph glyph-name="t_t.liga" unicode="tt" horiz-adv-x="304" 
d="M432 404l-1 -1q4 0 6 -3q-2 -5 -6 -5l-36 1h-14l-164 -220q-11 -15 -44.5 -59.5t-51.5 -71t-18 -35.5q0 -6 6 -6q28 0 89.5 58.5t109.5 124.5h5q-49 -68 -111.5 -127.5t-91.5 -59.5q-12 0 -18 10t-6 21q0 25 40 86q-44 -50 -85 -83.5t-62 -33.5q-12 0 -18 10t-6 21
q0 13 10.5 36.5t34 56t63.5 84.5l64 85q37 58 37 81q0 9 -6 14.5t-18 5.5q-6 0 -8 5q2 5 8 5l49 -1h19l46 61q6 -8 16 -8q9 0 21 7t19 16l-56 -77h47h38l46 62q6 -7 16 -7q9 0 21 6.5t19 15.5l-55 -76h8zM194 208l141 188h-36h-49l-164 -220q-10 -13 -44 -58.5t-52 -72
t-18 -36.5q0 -6 6 -6q28 0 89.5 58.5t109.5 124.5zM165 374q0 -20 -24 -62l61 83l-50 -1q13 -4 13 -20z" />
    <glyph glyph-name="v_r.liga" unicode="vr" horiz-adv-x="607" 
d="M615 187q-58 -79 -117.5 -133t-82.5 -54q-12 0 -22.5 11t-10.5 36q0 51 52 124q16 23 35 45t48 53.5t30 37.5q2 6 -6 6h-2.5t-24.5 -6t-54 -6q-14 -27 -63 -96t-104.5 -137t-70.5 -68q-8 0 -11 4t-1 7q4 0 13.5 2t28.5 21q40 39 95 111t109 157q4 8 4 16q0 6 -4.5 19
t-4.5 21q0 7 4 11t9 4t9 -4t4 -11q0 -12 -5 -29t-9 -24q22 0 59 9.5t46 9.5q21 0 21 -16q0 -14 -19 -42q-6 -7 -44 -50.5t-54 -65.5q-27 -37 -46.5 -75t-19.5 -56q0 -14 11 -14q23 0 83 57t110 125h5zM337 337h-1q8 0 14 -7t6 -19q0 -17 -35 -68t-86.5 -108t-103 -96.5
t-84.5 -39.5q-12 0 -18 10t-6 21q0 18 19 52.5t78 111.5q20 25 38.5 58t18.5 52t-19 19q-41 0 -145 -136h-5q108 140 149 140q22 0 33.5 -11.5t11.5 -31.5q0 -21 -13 -50t-35 -58q-79 -105 -96.5 -131t-17.5 -35q0 -6 6 -6q17 0 47.5 15.5t82.5 64.5t101 111t49 73
q0 8 -9 17t-9 20q0 13 9.5 22.5t19.5 9.5z" />
    <glyph glyph-name=".notdef" horiz-adv-x="600" 
 />
    <glyph glyph-name=".null" horiz-adv-x="0" 
 />
    <glyph glyph-name="nonmarkingreturn" horiz-adv-x="300" 
 />
    <glyph glyph-name="space" unicode=" " horiz-adv-x="200" 
 />
    <glyph glyph-name="exclam" unicode="!" horiz-adv-x="160" 
d="M360 606q-19 -39 -51 -96t-119 -202.5t-113 -195.5h-4q4 8 16.5 32.5t104.5 210t125 248.5q5 -12 16 -12q12 0 25 15zM31 37q2 0 7.5 -2.5t5.5 -12.5l-4 -17q-6 -11 -16 -19t-18 -8q-2 0 -7.5 2.5t-5.5 12.5q0 7 5 17t15 18.5t18 8.5z" />
    <glyph glyph-name="quotedbl" unicode="&#x22;" horiz-adv-x="206" 
d="M232 465h-6l51 92l13 -2l17 2zM172 465h-6l51 92l13 -2l17 2z" />
    <glyph glyph-name="numbersign" unicode="#" horiz-adv-x="363" 
d="M274 242l-60 -115h113l-1 -4h-114l-65 -126l-3 2l64 124h-116l-65 -126l-3 2l64 124h-78v4h80l59 115h-97l1 4h98l58 113l4 -2l-57 -111h115l58 113l4 -2l-57 -111h93v-4h-95zM269 242h-116l-59 -115h116z" />
    <glyph glyph-name="dollar" unicode="$" horiz-adv-x="601" 
d="M599 650q24 -12 38.5 -38t14.5 -64q0 -27 -12 -64t-45 -65t-79 -28q-33 0 -53 20t-22 45l-1 13q0 2 0.5 7t1.5 2q2 -4 2 -17q2 -21 17.5 -32t38.5 -11q24 0 59 13t62 45.5t27 74.5q0 22 -9 44t-31.5 34.5t-50.5 12.5q-26 0 -56 -11.5t-53.5 -31.5t-36.5 -48t-11 -59
q3 -54 23.5 -115t26 -89t7.5 -57q3 -50 -15 -98.5t-53 -86.5t-83 -60t-101 -22q-44 0 -83 17l-68 -100l-15 1l79 101q-36 18 -57.5 51t-21.5 78q0 35 15.5 73.5t45 71.5t70.5 53t88 20q42 0 67 -19.5t25 -52.5q0 -23 -15.5 -50t-54.5 -50t-88 -27v3q33 2 66 17t55 45.5
t22 61.5q0 30 -20.5 49t-59.5 19q-34 0 -70.5 -13.5t-67.5 -42.5t-51 -69t-18 -80l3 -18q11 -50 49 -74.5t93 -24.5q42 0 81 13.5t68 32.5t52 45.5t36 60.5t13 71q0 44 -23.5 139t-23.5 137q0 44 22.5 82t60 57t71.5 19q27 0 45 -9l67 95l13 -2z" />
    <glyph glyph-name="percent" unicode="%" horiz-adv-x="523" 
d="M530 677l-415 -677h-8l404 659q-17 -14 -45 -27t-53 -13q-15 0 -29.5 7t-22.5 23q-1 -24 -18 -54q-21 -41 -55.5 -69t-66.5 -28q-14 0 -27 8t-13 30q0 23 18 59q21 41 56 69t67 28q34 0 39 -32q13 -36 53 -36q30 0 64.5 19t43.5 34h8zM320 596v-1q27 54 27 72
q0 21 -26 21q-23 0 -45.5 -18t-52.5 -76q-28 -51 -28 -71q0 -21 26 -21q23 0 45.5 18t53.5 76zM433 190q39 0 39 -39q0 -24 -17 -58q-21 -41 -56 -69t-67 -28q-14 0 -26.5 8t-12.5 30q0 26 18 59q21 41 55.5 69t66.5 28zM431 94v-1q27 54 27 72q0 21 -26 21q-23 0 -45.5 -18
t-52.5 -76q-27 -52 -27 -72t26 -20q22 0 45.5 18.5t52.5 75.5z" />
    <glyph glyph-name="ampersand" unicode="&#x26;" horiz-adv-x="380" 
d="M400 246h-1q0 -43 -38.5 -107t-96.5 -105v-3q0 -60 -17 -116l6 -1q21 0 37 6v-2q-23 -7 -37 -7h-7q-11 -34 -28 -63t-39.5 -51.5t-59 -40t-84.5 -17.5q-46 0 -77.5 21t-42.5 47t-11 46q0 27 15.5 55t47 44.5t69.5 16.5q40 0 63.5 -19.5t23.5 -43.5q0 -14 -10 -27.5
t-26 -21.5l-2 3q16 8 25.5 20.5t9.5 25.5q0 23 -22.5 41.5t-61.5 18.5q-57 0 -86 -33.5t-29 -79.5q0 -45 29 -76t86 -31q38 0 79 15t75.5 55t52.5 95q-32 4 -55.5 26.5t-33.5 53.5l-23 -1q-42 0 -74.5 15.5t-49.5 42t-17 64.5q0 42 26 85q18 30 45.5 50.5t73 40.5t60.5 28
q-5 27 -5 48q0 35 15 70t34.5 51t36.5 16t30 -12.5t13 -32.5q0 -40 -56 -96q-30 -29 -63 -49q6 -31 22 -81q29 31 63.5 49t62.5 18q23 0 37.5 -13t14.5 -38zM194 363h-1q0 -19 5 -46q37 20 62 45q28 26 38 48q9 18 9 32q0 16 -11 26t-26 10q-28 0 -52 -30t-24 -85zM131 -4
l21 1q-5 20 -5 36q0 58 19.5 107.5t51.5 85.5q-16 48 -22 82q-6 -4 -45 -28t-62 -46.5t-41 -50.5q-27 -44 -27 -84q0 -33 19 -58.5t45 -35t46 -9.5zM226 211q36 -110 37 -170q58 40 95.5 101t37.5 103q0 24 -13.5 36t-35.5 12q-33 0 -64.5 -22.5t-56.5 -59.5zM173 45
q0 -25 4 -44q44 10 83 37q-1 56 -36 169q-23 -36 -37 -79.5t-14 -82.5zM260 31v1q-40 -27 -82 -37q7 -34 24 -55.5t42 -24.5q16 51 16 116z" />
    <glyph glyph-name="quotesingle" unicode="'" horiz-adv-x="136" 
d="M172 465h-6l51 92l13 -2l17 2z" />
    <glyph glyph-name="parenleft" unicode="(" horiz-adv-x="299" 
d="M463 763q-403 -443 -403 -849q0 -46 4 -81l-5 -1q-19 87 -19 166q0 190 104.5 383.5t315.5 384.5z" />
    <glyph glyph-name="parenright" unicode=")" horiz-adv-x="300" 
d="M-57 -166q402 444 402 850q0 45 -4 81l5 1q19 -80 19 -166q0 -191 -104 -384t-315 -384z" />
    <glyph glyph-name="asterisk" unicode="*" horiz-adv-x="194" 
d="M232 591v-1q5 0 9.5 -4.5t4.5 -9.5q0 -3 -5 -19t-6 -30q12 5 25.5 14.5t16.5 10.5h4q10 0 14 -9l1 -5q0 -4 -3 -8t-7 -5l-10 -1l-16 -1l-22 -3q9 -10 22 -20t15 -12q2 -3 2 -8q0 -7 -5 -12q-4 -3 -9 -3q-8 0 -11 6q-2 3 -7 18.5t-13 26.5q-8 -11 -13 -26.5t-7 -18.5
q-3 -6 -11 -6q-4 0 -9 3q-5 5 -5 12q0 6 2 8t15 12t22 20q-12 4 -30 4l-18 1q-4 1 -7 5.5t-3 8.5q0 5 4.5 9.5t9.5 4.5q4 0 18 -10t28 -15q-1 14 -5.5 29.5t-4.5 18.5q0 6 4.5 10.5t9.5 4.5z" />
    <glyph glyph-name="plus" unicode="+" horiz-adv-x="418" 
d="M433 341h-1q-4 -6 -3 -10h-152l-40 -155q-6 2 -13 0l41 155h-154q5 7 4 10h152l40 153q6 -4 13 0l-40 -153h153z" />
    <glyph glyph-name="comma" unicode="," horiz-adv-x="134" 
d="M8 37q2 0 7.5 -2.5t5.5 -12.5q0 -16 -34 -59t-61 -63l-2 4q18 14 37 37t28 39l-6 -3l-7 -2q-8 0 -8 11t6 24q6 11 16 19t18 8z" />
    <glyph glyph-name="hyphen" unicode="-" horiz-adv-x="458" 
d="M323 201q6 0 9.5 -3t3.5 -7t-3.5 -7.5t-9.5 -3.5t-33 3t-44 3t-48 -4t-40 -4q-3 0 -10 2t-7 9q0 4 5 7t13 3q9 0 36 -2.5t43 -2.5z" />
    <glyph glyph-name="period" unicode="." horiz-adv-x="134" 
d="M8 37q2 0 7.5 -2.5t5.5 -12.5q0 -7 -5 -17t-15 -18.5t-18 -8.5q-2 0 -7.5 2.5t-5.5 12.5l4 17q6 11 16 19t18 8z" />
    <glyph glyph-name="slash" unicode="/" horiz-adv-x="235" 
d="M498 694q-23 -40 -96 -147t-305 -433t-263 -377q-3 6 -22 6q-18 0 -27 -6q36 60 340.5 473.5t345.5 480.5q5 -12 8 -12q4 0 19 15z" />
    <glyph glyph-name="zero" unicode="0" horiz-adv-x="573" 
d="M538 676q27 0 49.5 -18.5t34 -60.5t11.5 -85q0 -55 -25.5 -122.5t-68.5 -135t-105.5 -132.5t-137 -107.5t-145.5 -42.5q-36 0 -58 20.5t-33 56.5t-11 80q0 56 26 124t69.5 136.5t107 134.5t139 109t147.5 43zM152 -23h-1q45 0 94.5 27.5t101 80t108 137.5t97.5 189
t41 173q0 26 -7.5 48t-21 31t-27.5 9h-2q-45 -1 -72 -31t-27 -67q0 -31 20 -52.5t56 -21.5v-2q-19 0 -39.5 7.5t-32.5 26.5t-12 41q0 29 18.5 56t49.5 38q-73 -18 -145 -87.5t-129 -164t-91 -192.5t-34 -167q0 -37 14 -58t41 -21z" />
    <glyph glyph-name="one" unicode="1" horiz-adv-x="503" 
d="M680 676l-458 -679q-18 15 -36 15q-14 0 -45 -12l490 621l-53 -61q-51 -55 -117 -113t-136 -103.5t-138 -71.5t-126 -26l-20 1l1 4l20 -1q71 0 164 43t186 118t163 152q63 70 98 118z" />
    <glyph glyph-name="two" unicode="2" horiz-adv-x="553" 
d="M538 679v-1q54 0 83 -37t26 -91q-2 -34 -12.5 -73t-35 -72.5t-59 -59.5t-75.5 -46t-98 -44.5t-71 -30.5q-164 -71 -270 -177q28 24 66 44t77 28.5t70 8.5q27 0 53 -11.5t56 -46t39.5 -43t19.5 -11t14 -2.5q22 0 62 27l10 4q2 -1 0 -4q-5 -5 -15 -10q-90 -52 -129 -52
q-13 0 -27 6t-26.5 19.5t-41.5 55.5t-59 42q-51 0 -104.5 -25t-95.5 -69q0 -1 -0.5 -11.5t-2.5 -18t-9 -7.5q-3 0 -5 3.5t-2 7.5q0 9 6 18q35 55 90 102t113 83t164 95t149 89.5t68.5 55.5t45.5 58t24 74q4 48 -21.5 82t-76.5 34q-47 0 -101.5 -24.5t-101.5 -63.5t-76 -83.5
t-29 -82.5q0 -18 9 -28t25 -10q27 0 70 18.5t84 49t66 68t22 71.5h2l2 -19q0 -31 -19 -67t-52.5 -67t-76.5 -50t-87 -19q-24 0 -37.5 14t-13.5 37q0 22 8 53t29.5 64.5t59.5 66.5t96 55.5t121 22.5z" />
    <glyph glyph-name="three" unicode="3" horiz-adv-x="456" 
d="M430 681h-1q69 0 111.5 -38t42.5 -92q0 -58 -57 -109.5t-149 -87.5q18 -4 35.5 -22.5t25 -46t7.5 -52.5q0 -64 -50 -126t-136 -102.5t-172 -40.5q-56 0 -84.5 24t-28.5 60q0 25 11 42q8 12 22 12q5 0 9 -3.5t4 -8.5q0 -10 -20 -23t-20 -19q0 -25 13.5 -44t39 -27t54.5 -8
q45 0 90 22.5t82.5 58.5t66.5 79.5t50.5 94t21.5 87.5q0 40 -28 40q-7 -10 -31.5 -29t-37.5 -19q-3 0 -6.5 3t-3.5 6q0 8 15.5 18t44.5 19q36 12 69.5 38t61.5 61t44 72.5t16 68.5q0 40 -27 64t-85 24q-26 0 -65 -9t-87 -41t-79.5 -78.5t-31.5 -79.5q0 -17 9.5 -26.5
t28.5 -9.5q42 0 91.5 27t81 68.5t31.5 73.5q0 21 -15 37h3q15 -16 15 -39q0 -26 -18.5 -56.5t-48.5 -57t-66.5 -43t-70.5 -16.5q-29 0 -44 12.5t-15 33.5q0 30 21.5 66.5t60.5 69t91 52.5t108 20z" />
    <glyph glyph-name="four" unicode="4" horiz-adv-x="606" 
d="M581 279l2 -15q0 -16 -12 -37.5t-40 -40.5t-54 -21l-28 -2q-21 0 -61 6l-116 -172q-18 15 -36 15q-14 0 -45 -12l143 181q-51 11 -97 17.5t-109 6.5q-27 0 -56 -3h-7l-9 -3q-6 0 -9 4q4 4 9 4l9 -1q38 3 111 40t178.5 112t214 168t154.5 155l7 -5l-312 -463l55 2
q108 9 108 51l-2 14zM243 214l116 -1l325 411q-46 -50 -122 -115.5t-162.5 -128.5t-167 -109.5t-134.5 -62.5l87 5z" />
    <glyph glyph-name="five" unicode="5" horiz-adv-x="682" 
d="M827 686q-87 -105 -223 -105q-85 0 -146 33l-166 -217q61 53 138 53q56 0 87 -36t31 -87q0 -35 -24 -86t-79.5 -108t-118 -92t-111.5 -46.5t-85 -11.5q-54 0 -93 20.5t-39 63.5q0 25 11 41q8 12 22 12q5 0 9 -3.5t4 -8.5q0 -10 -20 -23t-20 -19q0 -17 13 -34.5t42 -29
t59 -11.5q45 0 103.5 26.5t118.5 82.5t95.5 111.5t47 91.5t11.5 57q0 28 -10.5 48.5t-29 28.5t-36.5 8q-33 0 -71 -17.5t-69 -48.5q-2 -11 -7 -21t-10 -10q-2 0 -3.5 2t-1.5 4q0 6 13 23l210 274l12 16q88 -50 180 -50q46 0 84 15.5t71 54.5z" />
    <glyph glyph-name="six" unicode="6" horiz-adv-x="488" 
d="M569 673q19 0 37.5 -7t28 -23t9.5 -34q0 -19 -8.5 -35t-19.5 -16q-14 0 -14 13q1 9 18.5 27t17.5 22q1 18 -17.5 33.5t-51.5 15.5q-45 0 -101 -23.5t-117.5 -76.5t-122 -130.5t-106.5 -168.5q52 55 99 78t83 23q32 0 55 -21t31.5 -49t8.5 -50t-6 -45q-17 -63 -61.5 -115
t-99 -80.5t-113.5 -28.5q-51 0 -76.5 31t-25.5 84q0 46 17.5 103t54 125t94.5 137t122 115.5t130.5 71t133.5 24.5zM304 367q-25 0 -58 -12t-67.5 -39t-62.5 -58q-59 -121 -59 -197q0 -35 15.5 -55t45.5 -20q21 0 49.5 11t59.5 38.5t61.5 70.5t51.5 97t21 94q0 32 -14 51
t-43 19z" />
    <glyph glyph-name="seven" unicode="7" horiz-adv-x="491" 
d="M669 695v-1q2 0 4 -1.5t2 -3.5q0 -5 -4 -9q-5 -5 -22 -13q-174 -184 -294 -342q29 3 59 3q13 0 13 -5q0 -2 -4 -4t-9 -2l-63 3q-58 -76 -114 -161.5t-97 -162.5q-17 16 -36 16q-14 0 -45 -12q96 150 244 319l-55 -3q-16 0 -16 6q0 2 5 4t12 2l59 -3q141 158 318 323
q-99 -67 -139 -79t-65 -12q-24 0 -72 23.5t-76 23.5t-53 -30q-5 -5 -12 -18.5t-10 -17.5l-6 -3q-3 0 -4.5 3t0.5 7q6 9 24 27q61 90 61 113q0 14 -19 14q-3 0 -2 2t4 2q42 0 42 -18q0 -6 -6.5 -18t-29.5 -40t-29 -36q18 19 46.5 38.5t45.5 19.5q36 0 62.5 -30t37.5 -34
t20 -4q92 0 199 89q4 3 12 14t12 11z" />
    <glyph glyph-name="eight" unicode="8" horiz-adv-x="500" 
d="M580 652l-1 -1q0 -64 -61.5 -142.5t-173.5 -149.5q23 -44 38 -81.5t15 -77.5q0 -30 -10 -60q-16 -53 -58.5 -97t-98 -66t-102.5 -22q-24 0 -47 6q-26 7 -41 28t-15 51q0 36 25.5 85t86 102t141.5 97l16 9q-21 41 -35 77.5t-14 72.5q0 26 6 44q7 24 24.5 50t51.5 51
t77.5 37.5t77.5 12.5q41 0 71 -13l-2 -4q-31 14 -68 14q-28 0 -65.5 -13t-71 -49t-47.5 -85q-4 -20 -4 -29v-4q0 -15 6 -40t42 -93q111 70 172.5 148t61.5 140q0 36 -23 63.5t-66 39.5l1 3q44 -12 67.5 -39.5t23.5 -64.5zM346 183q0 25 -10 56.5t-41 89.5l-16 -9
q-49 -26 -95.5 -59t-81 -70.5t-54.5 -76t-20 -73.5q0 -29 14.5 -49.5t39.5 -27.5q23 -6 45 -6q68 0 126.5 48.5t85.5 132.5q5 19 7 40v4z" />
    <glyph glyph-name="nine" unicode="9" horiz-adv-x="497" 
d="M491 673h-1q51 0 77.5 -33.5t26.5 -89.5q0 -58 -25.5 -130.5t-69.5 -145.5t-111 -144t-155 -117.5t-181 -46.5q-20 0 -39 7t-29 23.5t-10 35.5q0 22 10.5 37t22.5 9q8 -4 8 -11q0 -9 -17 -26.5t-17 -21.5q0 -18 19 -33t52 -15q55 0 114 30.5t114.5 82.5t104 117t85.5 134
q-27 -30 -59.5 -54t-63.5 -34.5t-54 -10.5q-44 0 -72 37.5t-28 88.5q0 17 5 39q10 41 38.5 89t69.5 89.5t89.5 67.5t95.5 26zM477 349q35 68 55.5 131.5t20.5 107.5q0 38 -16 59.5t-47 21.5q-43 0 -88.5 -37t-82.5 -94t-59 -118.5t-22 -106.5q0 -34 13.5 -53.5t41.5 -19.5
q37 0 85.5 25.5t98.5 83.5z" />
    <glyph glyph-name="colon" unicode=":" horiz-adv-x="146" 
d="M138 306v-1q2 0 7.5 -2.5t5.5 -12.5l-4 -17q-6 -11 -16 -19t-18 -8q-2 0 -7.5 2.5t-5.5 12.5q0 7 5 17q5 11 15 19.5t18 8.5zM8 37q12 0 12 -15q0 -9 -4 -17q-5 -11 -15 -19t-18 -8q-2 0 -7.5 2.5t-5.5 12.5q0 9 4 17q6 11 16 19t18 8z" />
    <glyph glyph-name="semicolon" unicode=";" horiz-adv-x="88" 
d="M120 309q13 0 13 -15q0 -9 -4 -17q-6 -11 -15.5 -19t-17.5 -8q-13 0 -13 15q0 9 4 17q5 10 15 18.5t18 8.5zM8 37q2 0 7.5 -2.5t5.5 -12.5q0 -17 -34 -59.5t-61 -62.5l-2 4q18 13 37 36t28 40l-6 -3l-7 -2q-8 0 -8 11t6 24q6 11 16 19t18 8z" />
    <glyph glyph-name="less" unicode="&#x3c;" horiz-adv-x="600" 
d="M485 260l-371 -124l-2 6l355 118l-295 112l3 6z" />
    <glyph glyph-name="equal" unicode="=" horiz-adv-x="425" 
d="M440 361q-2 -2 -3 -3.5t0 -6.5h-318q4 7 3 10h318zM410 261q-3 -4 -3.5 -5t-0.5 -5h-317q4 7 3 10h318z" />
    <glyph glyph-name="greater" unicode="&#x3e;" horiz-adv-x="601" 
d="M485 372l-355 -118l295 -112l-3 -6l-309 118l370 124z" />
    <glyph glyph-name="question" unicode="?" horiz-adv-x="294" 
d="M344 615q23 0 44 -10.5t29.5 -27.5t8.5 -34q0 -15 -6 -35q-9 -27 -32.5 -63t-61.5 -74t-144 -128.5t-126 -148.5h-4q6 17 18.5 37.5t36.5 49t89.5 91t88.5 87.5t39 45t31 44.5t24 50.5q13 42 13 63q0 50 -49 50q-17 0 -42.5 -10t-55.5 -34t-60.5 -61.5t-52.5 -81.5
t-22 -73q0 -36 33 -36q22 0 47 20t48.5 52.5t37 64t13.5 51.5l-2 15v2q13 -22 13 -46q0 -28 -19 -63t-61 -67t-77 -32q-30 0 -45.5 15t-15.5 40q0 32 22.5 75t60 82.5t85 64.5t94.5 25zM31 37q2 0 7.5 -2.5t5.5 -12.5q0 -7 -5 -17q-5 -11 -15 -19.5t-18 -8.5q-6 0 -9.5 5
t-3.5 11t5 16q5 11 15 19.5t18 8.5z" />
    <glyph glyph-name="at" unicode="@" horiz-adv-x="542" 
d="M369 391h-1q74 0 109 -30t35 -79q0 -39 -20 -84t-53.5 -84t-73.5 -63t-76 -24v4q34 0 72 23.5t70 62.5t51.5 83.5t19.5 82.5q0 45 -31.5 74.5t-101.5 29.5q-50 0 -104.5 -22t-102 -69.5t-73 -97.5t-33 -84t-7.5 -56q0 -43 21 -69t61 -26l1 -2q-48 0 -74 32.5t-26 84.5
q0 35 15 83t48 91.5t73 73.5t92 47.5t109 17.5zM283 36q0 -5 6 -5v-4q-9 0 -14.5 8.5t-5.5 17.5q0 27 42 84q-40 -45 -80.5 -78t-57.5 -33q-19 0 -27 32l-1 12q0 30 18.5 70t49.5 76t69 59.5t73 23.5q16 0 25.5 -8.5t9.5 -23.5q0 -18 -20 -51l64 85q4 -7 13 -7q8 0 18 5.5
t16 13.5l-103 -139q-7 -9 -36.5 -48t-44 -61t-14.5 -29zM173 29q11 0 38 19t71.5 64t74 89t29.5 66q0 13 -7.5 21t-23.5 8q-21 0 -61 -38.5t-85 -113t-45 -103.5q0 -12 9 -12z" />
    <glyph glyph-name="A" unicode="A" horiz-adv-x="898" 
d="M780 8l-1 -1q-2 -5 -1 -8h-181q3 4 1 8h83q-7 9 -6 25q11 73 140 253h-29l-61 1q-138 -145 -247 -228.5t-195.5 -119t-156.5 -35.5q-40 0 -70 10t-49.5 28.5t-29 43t-9.5 53.5q0 33 15 79.5t58 103t101 96.5q-14 18 -21.5 42t-7.5 46q0 37 18 77t55.5 74.5t97 56
t136.5 21.5q65 0 169.5 -33t139.5 -38t55 -5q93 0 199 44l1 -2q-108 -45 -200 -45q-60 0 -181 27t-185 27q-59 0 -115 -12.5t-97.5 -40.5t-65.5 -67t-24 -82q0 -22 9.5 -45t25.5 -39q52 34 115.5 54t130.5 20q60 0 90.5 -23.5t30.5 -61.5q0 -34 -23 -74t-63 -74.5t-93 -56
t-108 -21.5q-31 0 -56 16.5t-29 40.5l1 -1q5 -14 26 -23.5t57 -9.5q55 0 107.5 19.5t92 51.5t62 68.5t22.5 67.5q0 34 -29.5 55.5t-88.5 21.5q-65 0 -127.5 -20t-113.5 -54q50 -47 145 -47q32 0 71 6v-2q-52 -13 -96 -13t-76.5 13.5t-52.5 36.5q-34 -23 -72 -62.5t-63 -90
t-25 -93.5q0 -23 7.5 -42.5t21.5 -35t43.5 -27.5t76.5 -12q72 0 150 28.5t160 82t166 128.5q9 14 14.5 32t5.5 31q0 12 -4.5 20.5t-13.5 12.5l-17 -1q-8 0 -8 5q3 5 9 5l43 -1l49 -1h30q27 27 63 65.5t92 100.5t84 92.5t50 49t31 18.5q5 0 10.5 -4.5t5.5 -13.5
q0 -28 -46.5 -105.5t-174.5 -264t-141 -222.5h87zM800 293h20q34 47 111 149t93.5 128.5t18.5 35.5q1 8 -5 8q-8 0 -31.5 -20t-121 -131t-155.5 -172zM615 193q54 48 98 93h-9l-69 -1l-19 -1q16 -8 16 -33q0 -27 -17 -58z" />
    <glyph glyph-name="B" unicode="B" horiz-adv-x="1046" 
d="M1123 682h-1q26 0 26 -15q0 -4 -3 -7t-7 -3q-11 0 -11 14q0 7 -4 7q-52 0 -117 -52q60 -20 92.5 -58t32.5 -82q0 -35 -20.5 -69.5t-61 -63.5t-102 -48t-137.5 -23q55 -8 82 -36.5t27 -68.5t-24.5 -86.5t-67 -87t-96.5 -65t-110 -24.5q-41 0 -63 19t-22 49q0 13 6.5 33.5
t24 45t50.5 50t85.5 44t113.5 18.5l2 -4q-53 0 -103 -19t-88 -49.5t-59 -64.5t-21 -61q0 -24 18.5 -38.5t54.5 -14.5t81 28t85.5 72t66 92.5t25.5 86.5q0 36 -26.5 58t-80.5 22h-2l-1 1v-1q-6 0 -14 -2.5t-11 -2.5q-5 0 -9 3.5t-4 7.5q0 8 10 8q3 0 12 -4.5t15 -5.5
q65 0 124 20.5t102 54t67 74t24 78.5q0 25 -12 48t-32.5 37.5t-41.5 22.5q-28 -23 -69 -66t-145.5 -171.5t-159.5 -188.5q-138 -154 -253.5 -222.5t-223.5 -68.5q-49 0 -82.5 16t-53 47t-19.5 76q0 55 30.5 118t78.5 110t101.5 76.5t107.5 41t97 11.5q64 0 96.5 -25
t32.5 -64q0 -25 -15 -59.5t-56 -75.5t-99.5 -65t-113.5 -24q-23 0 -45.5 9t-32 22.5t-9.5 25.5h3q0 -15 20.5 -24.5t62.5 -9.5q26 0 61 6.5t70.5 23.5t68.5 44t55 63t22 67q0 35 -30.5 57.5t-90.5 22.5q-73 0 -143.5 -25.5t-127.5 -73t-92.5 -108t-35.5 -117.5
q0 -33 16 -62.5t52.5 -45t84.5 -15.5q60 0 120.5 21t128.5 65.5t149 124.5t191.5 210.5t156.5 178t83 77.5q-50 16 -118 16q-90 0 -153.5 -26.5t-100 -73t-36.5 -102.5q0 -33 14.5 -59.5t37 -37t42.5 -10.5l2 -4q-65 0 -101 36t-36 85q0 36 20 71.5t60.5 64.5t104 46
t144.5 17q74 0 128 -17q71 53 125 53z" />
    <glyph glyph-name="C" unicode="C" horiz-adv-x="694" 
d="M741 673l-1 -1q49 0 76.5 -19t27.5 -52q0 -36 -35.5 -85.5t-103.5 -101.5q-78 -60 -185 -98t-227 -38q-40 0 -74 8q-28 -54 -43 -109.5t-15 -103.5q0 -38 13.5 -66t37 -38.5t46.5 -10.5q41 0 83 15.5t75 49t54 77.5t21 84q0 23 -10.5 35t-26.5 12q-17 0 -35.5 -12
t-30 -29.5t-15.5 -33.5h-2q5 27 24 47.5t40 28t35 7.5q31 0 46.5 -16t15.5 -42q0 -31 -21 -70.5t-58.5 -75.5t-88.5 -58.5t-107 -22.5q-75 0 -112 38t-37 103q0 47 17 100.5t48 105.5q-32 16 -48.5 39.5t-16.5 50.5q0 37 28 67.5t72.5 47.5t103.5 17q33 0 58 -4
q86 65 178 105q71 31 129 42q34 7 64 7zM813 582q9 21 9 37q0 23 -19.5 35.5t-54.5 12.5q-67 0 -158 -36q-38 -15 -88 -43t-104 -74q62 -14 115.5 -46t83.5 -75l-2 -1q-14 21 -41.5 45.5t-70.5 44t-89 28.5q-110 -97 -173 -221q37 -7 72 -7q89 0 191 38t197 114q50 40 84 79
t48 69zM113 384q0 -17 9 -33.5t24 -28t29 -18.5q71 118 190 210q-25 3 -50 3q-46 0 -93.5 -15t-78 -49t-30.5 -69z" />
    <glyph glyph-name="D" unicode="D" horiz-adv-x="785" 
d="M957 627h-1q0 -11 -9 -11q-8 0 -16 8t-8 19h-9q-30 0 -68.5 -22.5t-79.5 -62.5q47 -62 47 -154q0 -53 -23.5 -122t-81 -139t-127 -110t-128.5 -54t-111 -14q-66 0 -214 15q-66 -15 -140 -15q-19 0 -35 5t-16 17q0 10 15.5 19t38.5 9q48 0 146 -20q91 33 186.5 116.5
t236.5 263.5q92 118 180 187q-26 38 -71 60t-106 22l-24 -1q4 -15 4 -37q0 -27 -8.5 -66t-31.5 -93t-60.5 -108t-73.5 -88l23 -13l-1 -2l-23 13q-45 -42 -96 -67t-102 -25q-32 0 -56.5 16.5t-33.5 41t-9 45.5q0 69 29.5 131t85.5 115.5t136 90.5q22 42 57.5 70t79.5 33
q31 3 51 -10.5t28 -39.5h15q66 0 117 -20.5t84 -56.5q49 38 90.5 56.5t69.5 18.5q20 0 31.5 -5.5t11.5 -15.5zM469 693q-38 -4 -70.5 -27.5t-55.5 -59.5q44 18 95 30t95 13q-14 48 -64 44zM537 611q0 17 -3 32q-51 -4 -105.5 -22t-103.5 -47q-15 -31 -23.5 -71t-8.5 -75
q0 -53 18 -99.5t53 -74.5q72 70 122.5 175t50.5 182zM170 161q50 0 99 24.5t93 66.5q-37 29 -56.5 80.5t-19.5 109.5q0 65 21 120q-38 -24 -75.5 -59.5t-65 -78t-42.5 -90t-15 -97.5q0 -32 16 -54t45 -22zM342 -31v-1q56 0 108.5 17t104.5 51t96.5 84t74.5 108t41 108.5
t11 84.5q0 33 -7 64.5t-20 57.5q-13 -14 -34.5 -39t-33.5 -42q-122 -161 -198.5 -246t-155 -142.5t-166.5 -84.5q114 -20 179 -20zM-12 -32q57 0 111 15q-92 9 -133 9q-11 0 -17.5 -3t-6.5 -7q0 -5 12 -9.5t34 -4.5z" />
    <glyph glyph-name="E" unicode="E" horiz-adv-x="525" 
d="M497 423h-1q25 0 50.5 8t49 28.5t35 48.5t11.5 50q0 18 -9.5 37t-34 30t-56.5 11q-37 0 -85 -15.5t-88 -47.5t-59.5 -66.5t-25.5 -67.5q-3 -12 -3 -25q0 -21 7.5 -42.5t23.5 -34.5l53 2q21 0 21 -9q0 -4 -9.5 -7.5t-24.5 -3.5q-28 0 -51 10q-76 -10 -133 -44.5t-94 -88.5
t-49 -123q-3 -16 -3 -33q0 -33 14 -58t38 -34.5t47 -9.5l32 1l-1 22q0 55 21.5 110t61 99.5t94.5 71t118 26.5q25 0 38 -14.5t13 -38.5q0 -33 -22.5 -77t-65 -86.5t-103.5 -74t-132 -40.5q2 -66 35.5 -120.5t99.5 -81.5v-2q-71 28 -111 82t-46 120l-33 -1q-76 0 -113.5 31.5
t-37.5 82.5q0 17 2 27q10 55 42.5 101.5t71.5 76t89 51.5t117 31q-24 14 -36 39t-12 53q0 14 2 21q6 34 26.5 68.5t59 62.5t89.5 45.5t106 17.5q57 0 95.5 -23t38.5 -64q0 -36 -23 -68t-58.5 -50t-81.5 -18v4zM446 264q-53 0 -103 -28.5t-87.5 -75.5t-59 -105t-21.5 -114
q70 9 130 40t101.5 72.5t63.5 85t22 75.5q0 23 -12 36.5t-34 13.5z" />
    <glyph glyph-name="F" unicode="F" horiz-adv-x="1043" 
d="M1108 644q26 0 39.5 -6.5t13.5 -17.5q0 -13 -17 -28t-49 -27.5t-72 -12.5q-48 0 -110 8q-54 -37 -99 -83q-38 -41 -119 -158h33l20 1q9 13 19 19.5t18 6.5q7 0 11 -4.5t2 -9.5q-7 -16 -49 -16q-15 -23 -24 -70h-2q8 44 23 70l-18 -1h-36q-125 -181 -205 -258.5
t-161.5 -116t-169.5 -38.5q-34 0 -65.5 8t-57.5 28.5t-36 51t-10 56.5q0 81 61.5 167.5t160.5 136.5q-12 33 -9 68q4 37 22.5 75t55.5 70t96.5 52t139.5 20q58 0 205.5 -17t228.5 -21q37 20 80 33.5t80 13.5zM1017 595q39 0 72 11t33 19q0 7 -24 7q-50 0 -124 -36zM801 485
l-1 -1q39 42 90 78q-41 5 -145 20.5t-158 21t-89 5.5q-69 0 -124.5 -16.5t-92.5 -45.5t-56 -65.5t-19 -74.5q0 -31 11 -54q42 20 90 31.5t97 12.5q72 -1 101.5 -24t29.5 -59q0 -35 -23 -75.5t-63 -75.5t-91 -56t-104 -21q-39 -1 -66.5 11.5t-24.5 38.5l3 1q5 -29 69 -29
q62 0 117 19.5t95 51t62.5 68.5t22.5 69q-1 35 -30.5 55.5t-94.5 20.5q-99 0 -187 -43q17 -35 58.5 -56t104.5 -21q40 0 72 6v-2q-24 -6 -43 -9.5t-49 -4.5h-2q-58 0 -96 23t-54 59q-45 -23 -93.5 -64t-81.5 -99t-33 -109q0 -23 8.5 -46.5t27.5 -41.5t50 -28t73 -10
q76 0 154 31t158.5 102t173.5 198l3 14q0 24 -37 24h-18l-31 -5q-10 0 -10 6q0 7 11 7l30 -4h82q84 118 97.5 135.5t25.5 30.5zM654 286l21 28h-36q16 -5 16 -22z" />
    <glyph glyph-name="G" unicode="G" horiz-adv-x="719" 
d="M193 128h-5v-11q0 -51 28.5 -81t85.5 -30q27 0 54 8.5t49.5 21t44 28t68 54.5t67 55t43 26t39.5 10l24 1q16 0 16 -7v-1q0 -3 -3 -5.5t-7 -2.5q-2 0 -12 4.5t-17 2.5q-19 -5 -40.5 -27t-94.5 -134q-84 -126 -126 -170.5t-79 -70t-81 -40.5t-92 -15q-68 0 -103 30.5
t-35 70.5q0 21 11 43t30.5 39t49.5 27t66 10v-1q-28 0 -59.5 -10t-53 -32t-23.5 -41q-2 -23 13.5 -44.5t42.5 -31t53 -9.5q63 0 128.5 28t131.5 83.5t119 135.5q57 87 85.5 120.5t55.5 42.5v1q-3 0 -12.5 -1.5t-31.5 -12t-75 -56t-71.5 -60.5t-39 -28.5t-40 -23t-43.5 -17
t-51 -7.5q-75 0 -116.5 28t-42.5 105q-48 11 -72.5 44t-24.5 79q0 44 21 93t58.5 90.5t88.5 67t106 25.5l-1 -4q-36 0 -78 -18t-87.5 -63t-70 -101t-24.5 -99q0 -40 21 -69.5t64 -40.5q0 32 10.5 79t45.5 108t92.5 119.5t127.5 103t148.5 71t155.5 26.5q55 0 85 -32t30 -82
q0 -42 -21.5 -89.5t-63 -88t-101.5 -65.5t-132 -25q-28 0 -45 8.5t-23 21.5q-17 -38 -57 -76.5t-92 -63t-112 -24.5zM734 637h-1q-24 0 -63 -5.5t-87 -24.5t-105.5 -56t-124 -106t-113.5 -157t-52 -157h5q37 0 72 10t68 29.5t68 54.5t50 71l-2 12v5q2 13 9 13q9 0 11 -16
q1 -12 7.5 -23t19.5 -16t25 -5q60 0 120 31.5t100.5 85t55 97t14.5 73.5q0 38 -19.5 61t-57.5 23z" />
    <glyph glyph-name="H" unicode="H" horiz-adv-x="923" 
d="M1192 605l-1 -1q13 0 21.5 -5.5t8.5 -14.5q0 -2 -2 -5.5t-8 -3.5q-10 0 -10 10q0 16 -11 16q-29 0 -71.5 -23t-107.5 -81.5t-147.5 -164t-140 -214.5t-57.5 -173q0 -41 15.5 -53t39.5 -12q20 0 44.5 9t40 28t18.5 42q3 -7 3 -16q0 -13 -10 -29t-36.5 -27.5t-60.5 -11.5
q-22 0 -44.5 7.5t-35.5 28.5t-13 51q0 55 37.5 137t98.5 167h-18l-90 2l-46 -1q-89 -125 -171 -203.5t-162 -119.5t-160 -41q-33 0 -69.5 13t-62.5 46.5t-26 75.5q0 30 12 70t41.5 85.5t80 91.5t119.5 76q-16 29 -16 65q0 47 26.5 91.5t70 76t100.5 46t114 14.5
q65 0 182.5 -31.5t177.5 -31.5q2 0 7.5 1.5t23 10.5t18.5 10l7 1q5 0 8.5 -3.5t2.5 -7.5l-5 -7q-20 -10 -62 -10q-60 0 -178.5 21.5t-183.5 21.5q-73 0 -131 -17.5t-95.5 -46.5t-56 -65t-18.5 -73q0 -35 17 -62q36 14 80.5 23t85.5 9q32 0 60.5 -8.5t45 -29t16.5 -47.5
q0 -34 -23 -74t-63 -74.5t-93 -56t-109 -21.5q-35 0 -61.5 13t-23.5 38h3q2 -10 14.5 -19t67.5 -9t107.5 19.5t92 51.5t62 68.5t22.5 67.5q0 34 -30 55.5t-88 21.5q-41 0 -84.5 -9t-78.5 -24q21 -31 63 -49.5t100 -18.5q34 0 71 6v-2q-49 -13 -91 -13h-4q-54 0 -92 20.5
t-56 52.5q-104 -46 -171 -131.5t-67 -160.5q0 -24 14 -51t51.5 -47t82.5 -20q105 0 220.5 77.5t245.5 243.5h-24l-38 -1q-5 0 -8 4q0 5 9 5l40 -1h26l32 42q58 78 111 137t96.5 92t63.5 33q3 0 3 -1.5t-3 -1.5q-15 0 -57.5 -32t-96 -94.5t-103.5 -135.5l-27 -40h43l83 2
l31 1q72 98 150 173t147.5 115.5t123.5 40.5z" />
    <glyph glyph-name="I" unicode="I" horiz-adv-x="670" 
d="M761 569q0 -61 -26 -142t-66.5 -154t-76.5 -121q26 -9 59 -9v-4q-34 -1 -64 8q-39 -52 -85 -96t-96.5 -77t-106 -51.5t-111.5 -18.5q-82 0 -123.5 37t-41.5 96q0 49 28 103t77.5 99.5t115 73.5t135.5 28q37 0 67 -8l-2 34q0 61 22 119.5t58 103t77.5 70t76.5 25.5
q16 0 31 -6q52 -22 52 -110zM476 362l2 -43q47 -28 47 -81q0 -14 -5 -32q22 -30 53 -46q39 47 82.5 119t71.5 153.5t28 141.5q0 79 -46 99q-15 5 -27 5q-32 0 -68.5 -26t-68 -71t-50.5 -102.5t-19 -116.5zM196 -54h-1q65 0 129 24t126 71t117 112q-29 11 -54 33
q-12 -29 -36 -57.5t-57.5 -51t-75.5 -35.5t-88 -13q-41 1 -63.5 13t-29.5 38l3 1q5 -31 69 -31q43 0 93.5 15t99.5 53t71 82q-22 26 -35.5 60.5t-17.5 66.5q-24 7 -63 7q-69 0 -132.5 -25.5t-104.5 -61.5t-64.5 -71t-32 -64.5t-8.5 -49.5q0 -30 16.5 -58t53 -43t85.5 -15z
M509 223q4 13 4 30t-8 33.5t-26 26.5q3 -23 11 -47.5t19 -42.5z" />
    <glyph glyph-name="J" unicode="J" horiz-adv-x="764" 
d="M916 605l-1 -1q11 0 17.5 -2.5t5.5 -5.5l-1 -3q-6 -4 -17 -4q-12 0 -24 4q-19 6 -53.5 -17.5t-72.5 -81.5q-8 -12 -35 -62l32 1l33 1q4 0 6 -4q0 -2 -2 -3.5t-4 -1.5h-26l-41 2q-54 -101 -92 -164q43 2 79 8q22 4 70 19v-2q-46 -21 -90 -29l-4 -1q-29 -5 -62 -7
q-99 -163 -196.5 -264t-188 -146t-174.5 -45q-56 0 -88.5 18t-46.5 44.5t-14 60.5q0 78 65 169t169 148t219 57q57 0 86.5 -23t29.5 -59q0 -34 -25 -75t-67.5 -77t-98 -58.5t-112.5 -22.5q-24 0 -46.5 7.5t-30.5 19.5t-5 24l3 1q1 -10 13 -19.5t67 -9.5q56 0 111 20.5
t97 53.5t66.5 70.5t24.5 68.5q0 32 -28 51.5t-85 19.5q-42 0 -96 -11.5t-110 -40t-108 -74t-86 -105t-34 -108.5t35 -78t106 -29q60 0 129 24.5t139 79t135.5 131t130.5 177.5q-37 0 -74.5 9.5t-66.5 31.5t-47.5 55.5t-18.5 76.5q0 39 16.5 77t48.5 69t79 49t104 18
q32 0 107.5 -18t114.5 -18q19 4 33 4zM765 498q54 76 93 97q-29 0 -96 3t-98 3q-43 0 -86.5 -10.5t-78.5 -34.5t-57.5 -59.5t-22.5 -78.5q0 -30 13 -58t39 -50t66 -35t91 -13q45 73 96 164h-16l-46 -1l-32 -1q-3 0 -5.5 1.5t-2.5 3.5q3 4 9 4l33 -1l45 -1h18q29 55 38 67z
" />
    <glyph glyph-name="K" unicode="K" horiz-adv-x="1017" 
d="M868 566q-13 0 -41 -27.5t-67.5 -83t-90.5 -142.5q-54 -92 -116 -168t-129 -129.5t-138.5 -82.5t-140.5 -29q-33 0 -69.5 13t-62.5 46.5t-26 75.5q0 78 61 166.5t159 140.5q-13 27 -13 60q0 37 18.5 77t57 74.5t98.5 56t137 21.5q65 0 165.5 -27.5t136.5 -32t58 -4.5
l37 4q19 0 19 -7q0 -3 -5.5 -6t-12.5 -3q-10 0 -20.5 3.5t-14.5 3.5zM656 316h-1q143 220 193 250q-54 1 -168 22t-177 21q-74 0 -132 -17t-95.5 -46.5t-56 -65.5t-18.5 -73q0 -32 14 -57q94 47 199 47q32 0 60.5 -8.5t45 -29t16.5 -47.5q0 -34 -23 -74t-63 -74.5t-93 -56
t-109 -21.5q-24 0 -46.5 7t-31 19.5t-6.5 24.5h2q2 -10 14.5 -19t67.5 -9t107.5 19.5t92 51.5t62 68.5t22.5 67.5q0 34 -30 55.5t-88 21.5q-100 0 -196 -48q15 -24 42.5 -41.5t61 -24.5t62.5 -7q32 0 71 6l1 -2q-54 -13 -92 -13h-4q-27 0 -57.5 7.5t-55 26.5t-37.5 44
q-45 -24 -93 -66.5t-80.5 -101t-32.5 -109.5q0 -24 14 -51t52 -47t83 -20q67 0 137.5 30t136 81.5t124 118t105.5 140.5zM1203 593l-1 -1q12 0 18 -3t6 -7q0 -5 -6.5 -9.5t-14.5 -4.5q-15 0 -20 18q-18 0 -39 -9t-48 -33t-91.5 -101t-96 -106t-56 -46t-57 -31.5t-70.5 -17.5
q28 -8 45.5 -30.5t26 -62t8.5 -139.5q0 -79 6.5 -126t29.5 -77.5t68 -34.5l31 -1q58 0 96 20l8 3q0 -2 -7 -5q-19 -10 -47.5 -16.5t-58.5 -6.5l-31 1q-86 8 -124 48t-38 111q0 31 11 96t13 96l2 34q0 81 -55 89h-3q-6 0 -14.5 -2.5t-11.5 -2.5q-5 0 -9 3.5t-4 7.5q0 8 10 8
q3 0 12 -4t14 -5h4q29 0 57.5 14t52.5 35.5t41 40t74 84.5q91 105 151 139t118 34z" />
    <glyph glyph-name="L" unicode="L" horiz-adv-x="794" 
d="M482 210h-1q-169 -176 -351 -215q151 -38 234.5 -51.5t142.5 -13.5q82 0 136 22q21 9 40.5 26.5t34.5 40.5l1 -2q-45 -71 -104.5 -103t-135.5 -32l-32 2q-34 3 -91 16t-128 37.5t-134 50.5q-40 -6 -83 -6q-20 0 -33 6.5t-13 14.5t11.5 13t31.5 5q19 0 81 -15l33 -9
q49 10 100.5 34t101 65t95.5 94q-61 -16 -108 -16q-42 0 -81 10.5t-68.5 31t-46.5 51t-17 69.5q0 48 28.5 92t77 76t110.5 49.5t125 17.5q53 0 109 -14v-2q-11 3 -41.5 8.5t-64.5 5.5q-44 0 -95 -11.5t-103.5 -44t-80 -80.5t-27.5 -96q0 -32 10.5 -62.5t34 -51.5t57 -33
t73.5 -12q50 0 113 17l17 21q32 39 99.5 130t94.5 123.5t50.5 57.5t54.5 50t67 40.5t72 15.5q24 0 38.5 -13t14.5 -35q0 -38 -39.5 -90.5t-105.5 -106.5t-147 -101.5t-158 -76.5zM890 626q-32 0 -65.5 -21t-69.5 -59.5t-123 -153t-145 -176.5q56 22 126.5 59.5t149 97.5
t122 117.5t43.5 94.5q0 21 -10.5 31t-27.5 10zM11 -14h-1q37 0 77 5q-25 10 -52.5 17t-43.5 7q-9 0 -15.5 -3.5t-6.5 -8.5q0 -7 11.5 -12t30.5 -5z" />
    <glyph glyph-name="M" unicode="M" horiz-adv-x="1228" 
d="M1228 640q11 0 18.5 -8t5.5 -26q-1 -6 -7.5 -20.5t-28 -47.5t-116.5 -162.5t-132 -191.5t-53 -98.5t-19 -63.5l-2 -31q0 -34 13 -56t44 -22q30 0 58 18.5t44 52.5l2 1q-28 -75 -104 -75q-31 0 -50.5 16.5t-29 43.5t-9.5 55l1 16q8 64 63 157.5t159.5 226t116.5 149t21 32
t10 23.5q0 7 -5 7q-13 0 -45.5 -29t-83.5 -86.5t-97 -113t-188 -229.5t-160 -174q-6 0 -12 8.5t-6 20.5q0 20 19 57.5t57.5 89.5t78.5 100.5t154 183.5t118 164q0 8 -6 8q-12 0 -41.5 -24t-138.5 -153.5t-163 -188.5q-168 -186 -305 -276t-251 -90q-81 0 -122 39t-41 102
q0 55 30.5 117t86.5 115.5t122.5 81.5t113 33t63.5 5q62 0 93.5 -24.5t31.5 -63.5q0 -34 -22 -73.5t-61 -73.5t-90.5 -55t-106.5 -21q-24 0 -47 7t-32 19.5t-8 24.5l3 1q2 -10 15 -19.5t68 -9.5q26 0 61 6.5t70.5 23.5t68.5 44t55 63t22 67q0 35 -30.5 57.5t-90.5 22.5
q-40 0 -91.5 -10.5t-103 -37.5t-98 -69.5t-76.5 -99.5t-30 -107q0 -33 16 -62.5t52.5 -45t84.5 -15.5q53 0 118.5 19.5t137.5 63.5t145 107.5t146 142t174.5 197.5t130 141.5t40.5 22.5q6 0 11.5 -5t5.5 -14q0 -16 -20.5 -54.5t-72.5 -109.5t-188 -242.5t-143 -198.5
q-1 -2 0.5 -4.5t3.5 -2.5q17 0 169.5 186.5t195 237t74.5 87t59 63t46.5 42t29.5 15.5z" />
    <glyph glyph-name="N" unicode="N" horiz-adv-x="1120" 
d="M1306 585l-1 -1q0 -2 -2 -5.5t-8 -3.5q-4 0 -7 3.5t-4 10.5q0 7 -5 7q-19 0 -50.5 -19t-82.5 -76t-108 -137.5t-117.5 -171.5t-87.5 -131t-43 -58.5t-22 -18.5t-13 9.5t-7 23.5q0 17 8 46q11 41 37.5 99.5t58.5 118.5t97.5 177t64.5 130q0 8 -6 8q-10 0 -34 -21.5
t-115.5 -140.5t-147.5 -184q-149 -176 -278 -261.5t-243 -85.5q-33 0 -65 8t-56.5 28t-39.5 50.5t-15 73.5q0 47 21.5 99.5t55.5 92t65 63.5q-19 21 -28 48.5t-9 51.5q0 37 16 75t50.5 70t90.5 51.5t130 19.5q65 0 170 -32.5t141.5 -38t58.5 -5.5q94 0 196 44l1 -2
q-105 -45 -196 -45q-60 0 -183.5 27.5t-187.5 27.5q-53 0 -105 -11t-92 -36t-64 -62.5t-24 -82.5q0 -55 43 -95q102 74 236 74q68 0 100 -28t32 -70q0 -34 -19.5 -71.5t-55 -70t-84 -52t-101.5 -19.5q-35 0 -63.5 13.5t-27.5 37.5h2q3 -10 17 -19t69 -9q39 0 83 12.5
t87.5 43t66 70t22.5 70.5q0 39 -32.5 63.5t-95.5 24.5q-65 0 -125 -20t-107 -54q55 -47 149 -47q32 0 71 6v-2q-51 -13 -94 -13q-44 0 -78 13.5t-55 36.5q-29 -22 -60.5 -57.5t-51.5 -83t-20 -88.5q0 -61 41.5 -99.5t122.5 -38.5q7 0 26.5 1t64.5 10t110 41t132.5 85.5
t129 118t106.5 119t87 108t62.5 79.5t38.5 46t32.5 33t25.5 13q6 0 12 -5.5t6 -19.5q0 -33 -23 -94.5t-62 -137t-101 -187t-73 -139.5q-4 -9 -4 -19t5 -10q7 0 29 28t109 160t129 189.5t69.5 91.5t56 65t60.5 54.5t58 23.5q12 0 19 -2.5t8 -12.5z" />
    <glyph glyph-name="O" unicode="O" horiz-adv-x="553" 
d="M605 523q12 -11 19 -31t7 -44q0 -31 -13 -79.5t-49 -114.5t-87 -126t-109 -103t-119 -66t-122 -23q-68 0 -102.5 41t-34.5 109q0 39 13.5 94.5t49 124t88.5 130.5t114 106t126.5 66.5t132.5 22.5q44 0 68 -21.5t24 -53.5q0 -15 -6 -32zM133 -54l-1 -1q34 0 79.5 12
t102.5 49.5t111 98t93.5 126.5t62.5 128.5t23 107.5q0 24 -6 39q-14 -27 -42 -49t-62 -31t-63 -9q-42 0 -71 13q-48 -49 -82.5 -106.5t-39.5 -97.5l-1 -15q0 -46 39 -46q26 0 49.5 23.5t26.5 48.5v5q0 4 2.5 5.5t3.5 -1.5q0 -6 -4 -10q-2 -26 -25.5 -49t-52.5 -24h-1
q-30 0 -45.5 18.5t-15.5 49.5q0 47 32.5 109t85.5 109q-23 23 -20 61h1q-3 -37 19 -60q37 32 70 49q32 17 73 29.5t76 12.5q28 0 46 -12q4 13 4 28q0 30 -21.5 49t-61.5 19q-47 0 -100 -17.5t-115.5 -62.5t-126.5 -128.5t-103.5 -180t-39.5 -169.5q0 -56 25 -88.5t75 -32.5z
M592 517q-15 18 -39 18q-44 0 -95.5 -29t-96.5 -75q28 -11 62 -11q30 0 64.5 10t63 34.5t41.5 52.5z" />
    <glyph glyph-name="P" unicode="P" horiz-adv-x="715" 
d="M846 588q4 0 7 -3.5t1 -5.5l-2 -1q-1 0 -4 3t-5 3q-35 0 -74 -18q13 -19 20 -43.5t7 -48.5q0 -32 -15.5 -70.5t-45.5 -73.5t-75.5 -57t-101.5 -22q-47 0 -73 22q-101 -133 -157 -194t-104 -96.5t-93.5 -53.5t-90.5 -18q-57 0 -82.5 25t-25.5 63q0 16 9.5 28.5t16.5 14.5
t7 -1q0 -4 -10 -10t-14.5 -13.5t-4.5 -18.5q0 -18 16.5 -29t40.5 -14t45 -3q27 0 63.5 9.5t78 34.5t98 75t194.5 216q-10 13 -10 26h2q0 -10 11 -22q113 137 172 192t106 79q-19 44 -76.5 66.5t-136.5 22.5q-77 0 -163 -29.5t-160 -81.5t-119 -120.5t-45 -141.5
q0 -28 10.5 -52.5t35.5 -38t54 -13.5q43 0 89 17.5t87 46.5t79.5 69.5t58 80t19.5 62.5q0 18 -11.5 29t-34.5 11q-30 0 -73 -20.5t-85.5 -55t-74 -76.5t-40.5 -82h-2q7 35 29 74.5t67 80t95.5 61.5t86.5 21q29 0 44 -15.5t15 -42.5t-18 -69.5t-60.5 -91t-92.5 -78.5
t-91.5 -40.5t-73.5 -10.5q-29 0 -55 15.5t-45 46t-19 74.5q0 76 43 147t113.5 124t155.5 82.5t163 29.5q85 0 149 -25.5t96 -69.5q39 18 79 18zM761 517q0 24 -7 42q-45 -25 -101 -81t-163 -197q25 -15 64 -15q34 0 69.5 17t66 53.5t51 86t20.5 94.5z" />
    <glyph glyph-name="Q" unicode="Q" horiz-adv-x="555" 
d="M403 -146h-1q100 0 130 24v-2q-30 -30 -67 -47t-71 -17q-42 0 -76 19.5t-68.5 61t-44.5 51.5q-38 -8 -73 -8q-68 0 -102.5 41t-34.5 109q0 39 13.5 94.5t49 124t88.5 130.5t114 106t126.5 66.5t132.5 22.5q44 0 68 -21.5t24 -53.5q0 -15 -6 -32q12 -11 19 -31t7 -44
q0 -56 -32 -133t-89 -152.5t-132.5 -134t-156.5 -80.5q2 -1 35.5 -31t67 -46.5t79.5 -16.5zM33 67l-1 -1q0 -56 25 -88.5t75 -32.5q27 0 62 7q-15 14 -28 20q-21 -6 -40 -6q-13 0 -20.5 2.5t-7.5 6.5q0 5 6 8.5t17 3.5q26 0 48 -8q34 13 66 44t49.5 60t24.5 47q7 -10 20 -10
q15 0 31 10q-10 -26 -46 -62t-73.5 -59.5t-64.5 -32.5q17 -7 33 -20q37 11 86 39t100 78t98.5 118t79 146t31.5 130q0 24 -6 39q-14 -27 -42 -49t-62 -31t-63 -9q-42 0 -71 13q-48 -49 -82.5 -106.5t-39.5 -97.5l-1 -16q0 -45 39 -45q26 0 49.5 23.5t26.5 48.5v5
q0 4 2.5 5.5t3.5 -2.5q0 -5 -4 -9q-2 -26 -25.5 -49t-52.5 -24h-1q-31 0 -46.5 18.5t-15.5 49.5q0 47 33 109t85 109q-23 25 -19 61h1q-1 -18 4 -34t15 -26q33 30 70 49q32 17 73 29.5t75 12.5q29 0 47 -12q4 13 4 28q0 30 -21.5 49t-61.5 19q-47 0 -100 -17.5t-115.5 -62.5
t-126.5 -128.5t-103.5 -180t-39.5 -169.5zM591 517q-13 18 -38 18q-22 0 -53.5 -10t-68.5 -35.5t-70 -58.5q25 -11 62 -11q30 0 64.5 10t63 34t40.5 53z" />
    <glyph glyph-name="R" unicode="R" horiz-adv-x="1055" 
d="M1123 682h-1q26 0 26 -15q0 -4 -3 -7t-7 -3q-11 0 -11 14q0 7 -4 7q-57 0 -134 -66q70 -15 107.5 -54.5t37.5 -89.5q0 -40 -25.5 -82.5t-73.5 -78t-117 -58.5t-150 -27q58 -12 76 -73q9 -31 9 -81q0 -26 -3.5 -82t-3.5 -80q0 -58 17.5 -91.5t63.5 -35.5q30 -1 65.5 5.5
t63.5 24.5l7 4q0 -2 -6 -6q-23 -15 -60 -24t-65 -9q-58 0 -99.5 25t-53.5 71q-5 23 -5 40q0 28 15 90.5t15 102.5q0 55 -14.5 86t-52.5 32q-5 0 -13 -2.5t-11 -2.5q-5 0 -9 3.5t-4 7.5q0 8 10 8q3 0 12 -4.5t15 -5.5q65 1 130 26.5t117 67t82 90t30 90.5q0 40 -27.5 69
t-83.5 41q-28 -24 -69 -68t-145.5 -170.5t-158.5 -185.5q-135 -149 -246 -215.5t-212 -66.5q-51 0 -86.5 16.5t-56 48t-20.5 77.5q0 55 30.5 117t86.5 115.5t122.5 81.5t113 33t63.5 5q62 0 93.5 -24.5t31.5 -63.5q0 -34 -22 -73.5t-61 -73.5t-90.5 -55t-106.5 -21
q-14 0 -34.5 5.5t-36.5 20.5t-16 34h2q0 -10 10.5 -19t32.5 -13.5t41 -4.5q26 0 61 6.5t70.5 23.5t68.5 44t55 63t22 67q0 35 -30.5 57.5t-90.5 22.5q-73 0 -143.5 -25.5t-127.5 -73t-92.5 -108t-35.5 -117.5q0 -33 16 -62.5t52.5 -45t84.5 -15.5q44 0 96.5 13.5t116 50
t147 111t215 229t172 196t68.5 65.5q-31 6 -73 6q-83 0 -148 -21.5t-106.5 -55.5t-62 -74t-20.5 -77q0 -29 12.5 -51.5t32.5 -31.5t39 -9l1 -3q-58 0 -91.5 30.5t-33.5 75.5q0 58 51 112t136 81.5t189 27.5q44 0 78 -6q81 67 143 67z" />
    <glyph glyph-name="S" unicode="S" horiz-adv-x="600" 
d="M679 676h-1q38 0 69.5 -19t43.5 -49.5t12 -62.5q0 -35 -11.5 -69.5t-33.5 -62t-54 -44t-69 -16.5q-21 0 -43.5 9.5t-36 31t-13.5 44.5q0 27 18.5 46t51.5 19q17 0 25.5 -8t8.5 -17q0 -8 -7 -15t-16 -7q10 5 10 20q0 9 -6.5 17t-21.5 8q-26 0 -42 -17t-16 -40
q0 -28 20 -42t52 -14q29 0 62 10.5t59.5 31.5t42.5 50.5t16 63.5q0 52 -32 76t-82 24t-94 -22t-69 -57t-25 -80q0 -22 3 -54.5t18 -96t19.5 -98t4.5 -69.5q0 -57 -24 -112t-66 -97t-97.5 -66t-115.5 -24q-37 0 -73.5 10.5t-65.5 34.5t-47 61.5t-18 84.5q0 44 17 87.5
t50.5 78.5t83 56t109.5 21q28 0 56.5 -8.5t46.5 -30t19 -48.5l1 -6q0 -38 -25 -70.5t-63.5 -51t-88.5 -18.5l-23 1l-1 3l24 -1q28 0 56.5 8.5t51.5 27.5t37.5 47t13.5 59q-2 36 -29.5 60.5t-75.5 24.5q-55 0 -100 -19t-76 -51.5t-47 -72t-16 -78.5q0 -32 11 -61.5t32.5 -52
t55 -35.5t75.5 -13q51 0 104 18t96.5 52.5t70 85t26.5 111.5q0 48 -18.5 150.5t-18.5 148.5q0 33 11.5 67t36.5 62t62 46.5t79 18.5z" />
    <glyph glyph-name="T" unicode="T" horiz-adv-x="1033" 
d="M1132 644q19 0 30.5 -9t11.5 -21q0 -23 -34.5 -42.5t-96.5 -19.5q-67 0 -152 10q-56 -37 -98 -85q-47 -54 -117.5 -166t-99 -151.5t-55.5 -71t-56.5 -59.5t-70 -55.5t-103.5 -49.5t-146 -22q-40 0 -77 13t-59 46t-22 78q0 48 27 108.5t80.5 114t115.5 85.5q-13 34 -10 71
q4 47 30.5 89t68.5 71.5t96.5 43t109.5 13.5q61 0 216 -17t201 -20q97 46 210 46zM981 595q47 0 88 3t62.5 10t21.5 14q0 4 -7 7t-16 3q-44 0 -91 -10t-84 -26zM781 489q37 44 84 75q-47 6 -144.5 20.5t-143.5 19.5t-75 5q-55 0 -109.5 -12t-96 -38.5t-66.5 -66t-25 -86.5
q0 -30 13 -55q94 46 196 46q32 0 60.5 -8.5t45 -29t16.5 -47.5q0 -34 -23 -74t-63 -74.5t-93 -56t-109 -21.5q-35 0 -61.5 13t-23.5 38h3q2 -10 15 -19.5t67 -9.5q55 0 107.5 20t92 51.5t62 68.5t22.5 68q0 34 -30 55.5t-88 21.5q-102 0 -194 -47q19 -33 61 -53.5t103 -20.5
q34 0 71 6v-2q-49 -13 -91 -13h-4q-57 0 -94 22t-54 57q-92 -49 -150 -128.5t-58 -149.5q0 -53 37 -85.5t111 -32.5q58 0 117 16.5t113.5 52t114 96.5t153 197t131.5 181z" />
    <glyph glyph-name="U" unicode="U" horiz-adv-x="849" 
d="M661 -92l-1 -1q30 0 58.5 19t44.5 53h1q-26 -75 -104 -75q-29 0 -47 14t-26 37.5t-8 50.5q0 56 31.5 128.5t93.5 167.5q-129 -176 -212.5 -260.5t-131.5 -84.5q-28 0 -46.5 15.5t-18.5 46.5t19 65.5t45 66t98 111t101.5 126.5t40.5 78.5t13 51.5t2 27q0 24 -7 46
t-21.5 41.5t-45.5 35.5t-81 16q-34 0 -76.5 -9.5t-83 -34t-75.5 -63.5t-56.5 -91.5t-21.5 -98.5q0 -51 28.5 -83.5t83.5 -32.5q50 0 90.5 15.5t68.5 41.5t42 58t14 64q0 37 -23.5 57.5t-58.5 20.5q-22 0 -49 -9.5t-48 -24.5l-2 3q21 16 51.5 25.5t57.5 9.5q32 0 58.5 -12
t37 -31.5t10.5 -38.5q0 -23 -13 -52.5t-48 -62t-86.5 -50.5t-101.5 -18q-37 0 -73.5 14t-59 49.5t-22.5 80.5q0 34 14.5 77.5t53.5 87.5t92.5 70t103.5 34.5t92 8.5q31 0 63 -9t59 -29t44.5 -49t17.5 -62q0 -79 -47.5 -163t-132 -175.5t-103.5 -114t-32 -44.5t-13 -38
q0 -18 8.5 -30t37.5 -12q32 0 80 39.5t110.5 112t209.5 271.5q58 84 173 241q6 -10 18 -10q10 0 24.5 7.5t24.5 18.5q-1 -1 -4.5 -6t-55 -73t-113 -155t-111.5 -167t-81.5 -148t-31.5 -108q0 -34 13 -56t44 -22z" />
    <glyph glyph-name="V" unicode="V" horiz-adv-x="839" 
d="M489 689v-1q64 0 110 -18.5t72 -51t26 -73.5q0 -42 -15.5 -92.5t-54.5 -110.5t-105 -136.5t-89 -107.5t-35.5 -57t-12.5 -48q0 -23 15 -23q13 0 34 14.5t47 40.5t54.5 58.5t154 184.5t182.5 208t95.5 81t66.5 25q26 0 26 -15q0 -4 -3 -7t-7 -3q-11 0 -11 14q0 7 -5 7
q-38 0 -108.5 -60.5t-204.5 -221t-169.5 -201.5t-65.5 -70.5t-51.5 -44t-34.5 -14.5q-14 0 -25 12.5t-11 30.5q0 43 24.5 93t92.5 128t88.5 103t43 60t37 73t14.5 79q0 140 -175 140q-71 0 -134 -27t-108 -71t-70 -95t-25 -97q0 -34 15.5 -62t44.5 -44q38 -19 94 -19
q54 0 97 18t71.5 47t43 63.5t14.5 66.5q0 29 -12 52t-31.5 32t-37.5 9q-26 0 -57.5 -10.5t-49.5 -27.5l-2 3q18 17 47.5 28t62.5 11q40 0 62 -25.5t23 -65.5v-5q0 -37 -16.5 -78t-47.5 -77t-75.5 -58t-96.5 -22q-30 0 -60 8t-53.5 27t-38 49.5t-14.5 70.5q0 23 7.5 57
t29.5 73t56.5 72.5t80 57.5t93.5 33.5t87 9.5z" />
    <glyph glyph-name="W" unicode="W" horiz-adv-x="1012" 
d="M1268 614h-1q4 0 12 -1.5t8 -6.5q0 -3 -4 -5t-8 -2q-3 0 -13.5 3.5t-14.5 2.5q-41 -3 -103.5 -40t-162 -133.5t-256.5 -284.5t-188 -223l-3 3q16 26 36 62t45 83t46.5 92t38.5 82.5t31.5 70.5t30 69t17.5 41q-10 -10 -36.5 -39t-191 -201.5t-233.5 -261.5l-3 2
q52 81 121.5 200t121 236.5t51.5 172.5q0 57 -41 88.5t-103 31.5q-70 0 -148.5 -43t-127 -115t-48.5 -156q0 -21 9.5 -42.5t33.5 -34t56 -12.5q61 0 121 39.5t94 99t34 101.5q0 26 -14.5 42.5t-42.5 16.5q-30 0 -67 -17.5t-65.5 -46.5t-45.5 -56l-3 2q17 28 45.5 57t66.5 47
t69 18q29 0 48 -17t19 -49q0 -44 -16 -92t-55.5 -94t-90.5 -69t-91 -23q-49 0 -82 31t-33 95q0 51 19 98.5t51.5 86.5t79.5 72.5t97.5 49.5t86.5 16q30 0 57.5 -7t51 -21t43 -43t19.5 -74q0 -32 -10.5 -79t-47.5 -124t-142 -241l-13 -18q59 66 186.5 199.5t174.5 184.5
q40 92 63.5 134.5t44.5 42.5q7 0 11.5 -4t4.5 -10q0 -24 -65 -102q-6 -14 -40.5 -99t-67.5 -161.5t-54 -118.5t-32 -57q165 199 247.5 288.5t150.5 147.5t122 86.5t99 28.5zM894 609q-5 0 -47 -98q57 68 57 90q0 8 -10 8z" />
    <glyph glyph-name="X" unicode="X" horiz-adv-x="944" 
d="M988 643l-1 -1q45 0 69.5 -23t24.5 -57q0 -33 -22 -69.5t-56 -60t-70 -35.5l-21 -6q-9 0 -9 7q0 3 4 6t10 3q3 0 8.5 -2.5t9.5 -1.5q66 22 104.5 67.5t38.5 90.5q0 33 -23.5 55t-67.5 22q-30 0 -71.5 -10t-89.5 -36.5t-99 -70.5t-101.5 -107t-87.5 -129l76 2l38 1
q2 0 4 -1.5t2 -3.5q-3 -5 -7 -5l-53 1h-63q-32 -59 -50 -115t-18 -97q0 -49 31.5 -74.5t81.5 -25.5h5l-1 16q0 54 20 105t49.5 86t63.5 51t66 16q35 0 52.5 -16.5t17.5 -43.5q0 -31 -20.5 -69.5t-57 -73.5t-84.5 -57t-98 -22h-2q5 -51 33.5 -83.5t80.5 -32.5v-2
q-53 0 -83 33t-36 85q-26 1 -54 10.5t-46 29.5t-24.5 44t-6.5 48q0 44 17 98q-58 -72 -124 -122t-134.5 -76t-139.5 -26q-39 0 -64.5 15t-33.5 35.5t-8 38.5q0 19 9.5 47.5t35.5 58.5t61 48q10 6 20 6t10 -7q0 -3 -4 -6t-11 -3q-3 0 -8.5 3t-8.5 1q-45 -24 -72 -64.5
t-27 -77.5q0 -34 24.5 -56.5t71.5 -22.5q58 0 118 24.5t115 66.5t103 95.5t85 112.5l-56 -1l-45 -2q-6 0 -9 5q0 2 3 4t7 2l48 -2h54h2q43 68 67.5 135t24.5 117q0 26 -10.5 49.5t-36.5 37t-62 13.5q-43 0 -91.5 -15.5t-90 -44.5t-67.5 -69.5t-26 -85.5q0 -31 21 -50.5
t58 -19.5q28 0 65 12t72 42.5t50 71.5l5 -1q-10 -28 -36.5 -64.5t-72 -67t-94.5 -30.5q-21 0 -42.5 8.5t-34 29t-12.5 46.5q0 38 18 79.5t57.5 77.5t96.5 61t116 25q62 0 101.5 -32.5t39.5 -96.5q0 -50 -20 -112q50 63 103.5 109.5t106 76.5t101 42.5t87.5 12.5zM590 -23
v-10q23 1 53.5 10t62 29.5t60.5 51t48 68.5t19 66q0 21 -11.5 33.5t-33.5 12.5q-31 0 -64.5 -16t-63 -52t-50 -87.5t-20.5 -105.5z" />
    <glyph glyph-name="Y" unicode="Y" horiz-adv-x="861" 
d="M926 563v-1q7 0 12.5 -5t5.5 -12q0 -9 -8.5 -19t-34 -26t-30.5 -22q-4 -5 -14.5 -20t-38 -56.5t-129.5 -223t-166 -272.5q37 -10 80.5 -30.5t72.5 -54.5t29 -78q0 -8 -2 -11q-4 4 -4 13q0 34 -21.5 62.5t-63.5 51t-100 36.5q-102 -143 -200 -206.5t-196 -63.5
q-61 0 -101 29t-40 87q0 33 20.5 66.5t68 60.5t118.5 43.5t158 16.5q80 0 152 -15q89 110 200.5 294t119.5 197q-169 -217 -259.5 -297.5t-144.5 -80.5q-14 0 -25 12t-11 30q0 33 19.5 73t86.5 113.5t87.5 100.5t35 51t24.5 49.5t13.5 48.5t3.5 41q0 139 -175 139
q-53 0 -109 -19t-103.5 -61t-71.5 -86.5t-31.5 -77t-7.5 -53.5q0 -51 28.5 -83.5t83.5 -32.5q50 0 90.5 15.5t68.5 41.5t42 58t14 64q0 18 -8 37t-28 30t-46 11q-22 0 -49 -9.5t-48 -24.5l-2 3q21 16 52 25.5t58 9.5q32 0 58 -12t36.5 -31.5t10.5 -38.5q0 -23 -13 -52.5
t-48 -62t-86.5 -50.5t-101.5 -18q-27 0 -54 7.5t-51.5 28t-35 50.5t-10.5 57q0 47 23.5 96.5t69.5 91t115 66.5t154 25q65 0 110.5 -18.5t71.5 -51.5t26 -74q0 -44 -15 -93.5t-50.5 -105t-97.5 -124t-82 -93.5t-28.5 -44t-8.5 -32q0 -23 15 -23q42 0 101 46t115 109
t97.5 115t85.5 109t57 74q3 4 14.5 31t22.5 38t23 11zM124 -324q173 0 360 225q-68 13 -148 13q-66 0 -128.5 -10t-112 -29t-78.5 -47.5t-29 -63.5q0 -20 20.5 -43.5t52 -34t63.5 -10.5z" />
    <glyph glyph-name="Z" unicode="Z" horiz-adv-x="714" 
d="M882 654l-1 -1q4 0 6 -2.5t2 -4.5q0 -5 -7 -12.5t-19 -14.5q-19 -12 -49 -19l-15.5 -15.5t-110.5 -114.5t-157 -160l81 2l34 1q4 0 6 -4q0 -2 -2.5 -3.5t-4.5 -1.5h-48l-71 1q-159 -154 -269 -232l95 -62q13 31 40.5 67t71.5 61.5t89 25.5q39 0 66 -15.5t36 -37t9 -38.5
q0 -33 -21.5 -63.5t-57.5 -47.5t-82 -17q-62 0 -139 46q-16 -43 -16 -85q0 -33 6 -67t19 -54.5t27 -27.5l-1 -2q-14 7 -30.5 28t-27.5 57.5t-11 66.5q0 47 19 94l-98 67q-125 -88 -204 -88q-42 0 -64.5 17.5t-22.5 43.5q0 25 20 49.5t51 35t58 10.5q63 0 141 -47
q47 29 105 73t111 90q10 17 10 27q0 9 -7 16t-19 8l-23 -1q-5 0 -8 4q0 5 9 5l44 -1h49h11q17 15 65.5 60.5t133.5 130.5t98 97q-35 -7 -74 -7q-42 0 -149.5 18t-152.5 20v-8q0 -44 -24.5 -91.5t-53.5 -67.5t-53 -20t-39.5 22.5t-15.5 55.5q0 23 9.5 49.5t31.5 49t56 36
t78 14.5q-10 20 -25 32l1 1q16 -12 26 -33h3q15 0 44 -4.5t104.5 -30t106.5 -32.5t53 -7q45 0 79 8l11 11q19 17 33.5 28t23.5 11zM431 622v-1l-1 9h-21q-39 0 -69.5 -11t-49 -28t-28 -39t-9.5 -42q0 -27 13.5 -45t35.5 -18q24 0 52.5 19.5t52.5 66t24 89.5zM819 605l-1 -1
l16 5l-12 -4h-3zM457 280q0 -11 -6 -23l54 48l-58 -1l-7 -1q17 -6 17 -23zM552 161q-49 0 -103 -47.5t-81 -112.5q74 -43 134 -43q55 0 92 21t50 48t13 47q0 37 -27.5 62t-77.5 25zM47 20h-1q70 0 177 65q-77 47 -135 47q-24 0 -51 -8t-45 -26.5t-18 -36.5q0 -17 18.5 -29
t54.5 -12z" />
    <glyph glyph-name="bracketleft" unicode="[" horiz-adv-x="287" 
d="M526 787h-133l-495 -977h132l-1 -5h-161l500 987h159z" />
    <glyph glyph-name="backslash" unicode="\" horiz-adv-x="551" 
d="M133 694q15 -15 27 -15q11 0 15 12q11 -36 40 -110t75 -183t108 -252.5t63 -145.5q-9 6 -34 6t-30 -6q-41 97 -135 342t-129 352z" />
    <glyph glyph-name="bracketright" unicode="]" horiz-adv-x="287" 
d="M28 -195h-159l1 5h133l495 977h-132l1 5h161z" />
    <glyph glyph-name="asciicircum" unicode="^" horiz-adv-x="409" 
d="M378 253l-140 265l-141 -265l-4 2l142 268l-1 2h3h4l-1 -2l142 -268z" />
    <glyph glyph-name="underscore" unicode="_" horiz-adv-x="478" 
d="M374 24q8 0 13 -4t5 -9t-5 -9t-13 -4q-7 0 -22 0.5t-59 2t-120 1.5q-60 0 -110.5 -3.5t-64.5 -3.5q-11 0 -17.5 4t-6.5 9t7 9.5t18 4.5q17 0 69.5 -3t104.5 -3q82 0 124 3t77 5z" />
    <glyph glyph-name="grave" unicode="`" horiz-adv-x="133" 
d="M125 511h-1q5 -16 26.5 -35t56.5 -34t56 -15v-2q-34 0 -94 27.5t-69 58.5l-1 4q0 2 2 6t9 3q11 -2 15 -13z" />
    <glyph glyph-name="a" unicode="a" horiz-adv-x="336" 
d="M140 4q28 0 89.5 58.5t109.5 124.5h5q-49 -68 -111.5 -127.5t-91.5 -59.5q-12 0 -18 10t-6 21q0 30 50 101q-47 -54 -96 -94t-69 -40q-14 0 -23.5 14.5t-9.5 38.5q0 36 25.5 90.5t70 100.5t84.5 65t72 19q19 0 30 -10t11 -28q0 -24 -24 -62l77 102q5 -8 16 -8q9 0 21 7
t19 16q-21 -31 -123 -167q-11 -15 -44.5 -59.5t-51.5 -71t-18 -35.5q0 -6 6 -6zM2 2q23 0 87.5 57t116.5 127t52 102q0 16 -9 23.5t-21 7.5q-17 0 -40 -12.5t-42 -30.5q-24 -24 -52.5 -61t-49.5 -72q-24 -38 -38.5 -72.5t-14.5 -54.5q0 -14 11 -14z" />
    <glyph glyph-name="b" unicode="b" horiz-adv-x="269" 
d="M216 216q8 -12 23 -21t37 -9v-4q-19 0 -35.5 8.5t-26.5 20.5q-12 -42 -37 -76.5t-55.5 -61.5t-71.5 -50t-71 -23q-12 0 -18 10t-6 21q0 13 10.5 36.5t34 56t63.5 84.5q51 66 234 315q5 -8 16 -8q9 0 21 7t19 16q-13 -18 -54 -74.5t-212 -287.5q-79 -105 -96.5 -131
t-17.5 -35q0 -6 6 -6q27 0 79 28.5t96 79t58 103.5q-11 17 -15 35l-1 16q0 13 5 21t10 6q11 -4 11 -31q0 -23 -6 -46z" />
    <glyph glyph-name="c" unicode="c" horiz-adv-x="262" 
d="M229 330q16 0 25 -9.5t9 -24.5q0 -19 -14 -37t-36 -22l-5 -1q-8 0 -11 8v2q0 3 3.5 6t8.5 3q21 0 34 12.5t13 34.5q0 10 -7 17t-20 7q-19 0 -52 -26t-79.5 -85.5t-77 -118t-30.5 -80.5q0 -14 11 -14q35 0 92.5 34.5t104 77t68.5 72.5h5q-35 -47 -91 -92.5t-102.5 -70.5
t-76.5 -25q-14 0 -23.5 14.5t-9.5 38.5q0 27 16 67.5t57 94t93 85.5t95 32z" />
    <glyph glyph-name="d" unicode="d" horiz-adv-x="335" 
d="M139 4q28 0 89.5 58.5t109.5 124.5h5q-49 -68 -111.5 -127.5t-91.5 -59.5q-12 0 -18 10t-6 21q0 30 48 97q-48 -53 -95 -91.5t-67 -38.5q-14 0 -23.5 14.5t-9.5 38.5q0 36 25.5 90.5t70 100.5t84.5 65t72 19q19 0 30 -10t11 -28q0 -20 -21 -57q65 86 224 303q5 -6 12 -6
q11 0 26 10t24 21q-38 -56 -279 -383q-5 -6 -41.5 -54.5t-55 -75.5t-18.5 -36q0 -6 6 -6zM2 2q23 0 87.5 57t116.5 127t52 102q0 16 -9 23.5t-21 7.5q-17 0 -40 -12.5t-42 -30.5q-24 -24 -52.5 -61t-49.5 -72q-24 -38 -38.5 -72.5t-14.5 -54.5q0 -14 11 -14z" />
    <glyph glyph-name="e" unicode="e" horiz-adv-x="262" 
d="M271 187q-22 -30 -69 -74t-106 -79.5t-95 -35.5q-14 0 -23.5 14.5t-9.5 38.5q0 36 27.5 91t75 102t88.5 66.5t73 19.5q17 0 25.5 -7.5t8.5 -17.5q0 -20 -25 -47.5t-67 -48.5q-24 -12 -52.5 -20.5t-49.5 -9.5q-35 -49 -58.5 -95.5t-23.5 -67.5q0 -14 11 -14
q23 0 66.5 20.5t103.5 69t95 95.5h5zM232 327q-17 0 -48 -22.5t-79 -81.5l-31 -41q21 2 49 10.5t50 20.5q34 19 54 47t20 49q0 18 -15 18z" />
    <glyph glyph-name="f" unicode="f" horiz-adv-x="248" 
d="M456 568l-1 -1q0 -15 -11 -42.5t-38.5 -63t-72 -71.5t-101.5 -54l-174 -239h9q33 0 70.5 10t68.5 32t51 48h5q-21 -27 -54 -50.5t-69.5 -33.5t-67.5 -10l-16 1l-234 -322q-12 6 -22 6q-14 0 -31 -12l163 221q18 26 32.5 56t14.5 51l-1 7l-13 -4q-2 0 -6.5 1.5t-4.5 7.5
q0 10 11 10q6 0 26.5 -6.5t25.5 -7.5l266 361q50 68 82.5 100t62.5 32q15 0 22 -8t7 -19zM292 418l-56 -76q45 14 93 49.5t82.5 89t34.5 88.5q0 10 -6 15t-13 5q-8 0 -20.5 -12t-31 -36.5t-47.5 -69t-36 -53.5zM-21 93q0 -30 -21 -68l55 74q-15 3 -30 3h-4v-9z" />
    <glyph glyph-name="g" unicode="g" horiz-adv-x="327" 
d="M114 4q9 0 27.5 6.5t46.5 27.5t66.5 59.5t75.5 89.5h5q-24 -32 -62.5 -76t-83 -77.5t-74.5 -33.5h-4l-6 -8q-116 -146 -179.5 -204.5t-104.5 -58.5q-22 0 -22 20q0 21 24 58t63.5 77t87.5 71.5t92 43.5q36 45 103 137q-48 -55 -98 -96.5t-71 -41.5q-14 0 -23.5 14.5
t-9.5 38.5q0 36 25.5 90.5t70 100.5t84.5 65t72 19q19 0 30 -10t11 -28q0 -17 -15 -47l61 87q5 -8 16 -8q9 0 21 7t19 16q-115 -169 -248 -339zM0 2q23 0 87.5 57t116.5 127t52 102q0 16 -9 23.5t-21 7.5q-17 0 -40 -12.5t-42 -30.5q-24 -24 -52.5 -61t-49.5 -72
q-24 -38 -38.5 -72.5t-14.5 -54.5q0 -14 11 -14zM-187 -266q21 0 82 61.5t166 197.5q-56 -15 -118 -65t-101 -105.5t-39 -77.5q0 -11 10 -11z" />
    <glyph glyph-name="h" unicode="h" horiz-adv-x="367" 
d="M173 4q28 0 89.5 58.5t109.5 124.5h5q-49 -68 -111.5 -127.5t-91.5 -59.5q-12 0 -18 10t-6 21q0 18 19 52t78 111q20 26 38.5 58.5t18.5 51.5t-20 19q-40 0 -151 -131l-147 -194q-6 12 -16 12q-13 0 -33 -19l240 327l162 218q1 -2 4.5 -3.5t6.5 -1.5q13 0 32 14t33 30
l-208 -283q-7 -10 -33 -38.5t-33 -41.5q102 115 143 115q22 0 33.5 -11.5t11.5 -30.5q0 -21 -13 -50t-35 -59q-74 -97 -94 -126.5t-20 -39.5q0 -6 6 -6z" />
    <glyph glyph-name="i" unicode="i" 
d="M283 523q12 0 12 -15q0 -9 -4 -17q-5 -11 -15 -19.5t-18 -8.5q-6 0 -9.5 5t-3.5 11q0 8 4 17q6 11 16 19t18 8zM210 343h-1q-12 -18 -122 -167q-5 -6 -41.5 -54.5t-55 -75.5t-18.5 -36q0 -6 6 -6q28 0 89.5 58.5t109.5 124.5h5q-49 -68 -111.5 -127.5t-91.5 -59.5
q-12 0 -18 10t-6 21q0 13 10.5 36.5t34 56t63.5 84.5q36 46 90 120q5 -8 16 -8q10 0 21.5 7t19.5 16z" />
    <glyph glyph-name="j" unicode="j" horiz-adv-x="201" 
d="M316 523q12 0 12 -15q0 -9 -4 -17q-5 -11 -15 -19.5t-18 -8.5q-6 0 -9.5 5t-3.5 11q0 8 4 17q6 11 16 19t18 8zM197 320q9 0 21 7t19 16q-121 -177 -248 -339q9 0 27.5 6.5t46.5 27.5t66.5 59.5t75.5 89.5h5q-24 -32 -62.5 -76t-83 -77.5t-74.5 -33.5h-4l-6 -8
q-77 -96 -124.5 -149.5t-88.5 -84t-71 -30.5q-10 0 -16 6t-6 15q0 21 24 58t63.5 77t87.5 71.5t92 43.5q109 142 240 329q5 -8 16 -8zM-312 -266q21 0 82 61.5t167 197.5q-34 -9 -75.5 -34.5t-86.5 -69.5t-71 -85.5t-26 -58.5q0 -11 10 -11z" />
    <glyph glyph-name="k" unicode="k" horiz-adv-x="333" 
d="M343 302h-1q0 -21 -22.5 -45.5t-56.5 -37.5t-65 -16q26 -10 26 -40q0 -29 -41 -74.5t-46.5 -58.5t-5.5 -20q0 -6 6 -6q28 0 89.5 58.5t109.5 124.5h5q-49 -68 -111.5 -127.5t-91.5 -59.5q-12 0 -19 11t-7 21q0 13 4.5 26.5t13.5 26.5t40 45t31 53q0 8 -6.5 13.5
t-17.5 5.5q-3 0 -12.5 -0.5t-9.5 1.5q0 5 5 5l16 -2q29 0 58 15t48.5 46t19.5 52q0 13 -13 13q-9 0 -28 -7q-31 -12 -67 -48l-59 -79l-146 -200q-6 12 -18 12q-15 0 -36 -18q102 134 201 271l156 214q4 -5 12 -5q13 0 32 14t33 30q-87 -124 -106 -148q-16 -21 -41.5 -50
t-27.5 -36q54 54 101 54q23 0 35.5 -9.5t12.5 -24.5z" />
    <glyph glyph-name="l" unicode="l" horiz-adv-x="175" 
d="M366 559q-38 -56 -279 -383q-79 -105 -96.5 -131t-17.5 -35q0 -6 6 -6q28 0 89.5 58.5t109.5 124.5h5q-49 -68 -111.5 -127.5t-91.5 -59.5q-12 0 -18 10t-6 21q0 13 13 41.5t94 136.5q44 57 241 325q5 -6 12 -6q11 0 26.5 10t23.5 21z" />
    <glyph glyph-name="m" unicode="m" horiz-adv-x="518" 
d="M526 187h-1q-49 -67 -112.5 -127t-92.5 -60q-12 0 -18 10t-6 21q0 42 97 163q23 28 41 59.5t18 50.5t-19 19q-14 0 -38 -18t-60 -61t-72 -93.5t-68.5 -98.5t-36.5 -54q-13 8 -24 8t-23 -6q5 7 17 24.5t59.5 88t55.5 81.5q57 81 57 111q0 8 -5 13t-14 5q-12 0 -31.5 -13.5
t-48 -45t-65.5 -81t-129 -185.5q-10 5 -22 5q-13 0 -25 -5q7 11 23.5 35.5t90.5 133t74 142.5q0 14 -8 14q-10 0 -37.5 -28.5t-89.5 -108.5h-5q51 64 83.5 101t47.5 40t26 -6.5t11 -31.5q0 -18 -13.5 -45t-43 -67t-31.5 -45q143 195 192 195q22 0 33.5 -11.5t11.5 -30.5
q0 -40 -55 -113q118 155 163 155q22 0 34 -11.5t12 -30.5q0 -22 -12 -51.5t-34 -57.5q-82 -104 -100.5 -130.5t-18.5 -35.5q0 -6 6 -6q28 0 90.5 59t110.5 124h5zM254 150l-12 -16z" />
    <glyph glyph-name="n" unicode="n" horiz-adv-x="366" 
d="M373 187q-49 -68 -111.5 -127.5t-91.5 -59.5q-12 0 -18 10t-6 21q0 18 18.5 53.5t76.5 109.5q21 28 40 60t19 50q0 9 -5 14t-13 5q-10 0 -21 -6q-12 -6 -34.5 -26.5t-63 -72t-95.5 -134t-58 -86.5q-7 5 -23 5t-26 -5q7 11 23 35t90 132.5t74 143.5q0 14 -8 14
q-19 0 -127 -137h-5q106 135 131 141l8 1q13 0 22.5 -10t9.5 -29q0 -16 -11.5 -40.5t-42 -67t-30.5 -43.5q109 153 164 183q12 6 26 6q17 0 29.5 -11t12.5 -31q0 -21 -13 -50t-35 -59q-95 -124 -105.5 -142t-10.5 -24t6 -6q28 0 89.5 58.5t109.5 124.5h5z" />
    <glyph glyph-name="o" unicode="o" horiz-adv-x="271" 
d="M280 187h-1q-49 -61 -105 -62q-45 -53 -94.5 -91t-78.5 -38q-14 0 -24 14.5t-10 38.5q0 35 27 89.5t73 101.5t84.5 66.5t67.5 19.5q22 0 32 -12.5t10 -28.5q0 -27 -23.5 -69.5t-59.5 -85.5q52 3 97 57h5zM0 0q28 0 74.5 36.5t90.5 88.5q-8 1 -13 8t-5 16q0 17 13.5 32.5
t33.5 15.5q6 0 11 -3.5t6 -7.5q45 67 45 101q0 16 -9.5 25.5t-27.5 9.5q-26 0 -74 -46.5t-102 -136.5t-54 -125q0 -14 11 -14z" />
    <glyph glyph-name="p" unicode="p" horiz-adv-x="375" 
d="M383 187h-1q-61 -82 -137 -89q-39 -44 -84.5 -72t-88.5 -28q-3 0 -10.5 2t-7.5 10q0 10 16 29t52 38.5t74 22.5q40 48 73.5 104t40.5 87l2 17q0 18 -12 18q-29 0 -86.5 -49t-106.5 -114q-237 -323 -305 -420q0 10 -10 10t-25 -11t-27 -28q25 42 88.5 132t133.5 185.5
t143 193.5t75 101q4 -7 14 -7q12 0 29 10.5t30 27.5q-18 -26 -73 -96q-5 -7 -33 -39t-35 -45q51 62 105 107.5t84 45.5q18 0 27 -11.5t9 -30.5q0 -35 -25 -87.5t-64 -98.5q24 2 47 12.5t44.5 30.5t38.5 42h5zM72 2q16 0 46 20t75 74q-24 -2 -54.5 -14.5t-54.5 -35t-24 -35.5
q0 -9 12 -9z" />
    <glyph glyph-name="q" unicode="q" horiz-adv-x="334" 
d="M123 4q9 0 27.5 6.5t46.5 27.5t66.5 59.5t75.5 89.5h5q-24 -32 -62.5 -76t-83 -77.5t-74.5 -33.5h-7l-48 -65q7 -3 13.5 -10.5t6.5 -23.5q0 -23 -14 -51.5t-38.5 -56.5t-49.5 -44.5t-45 -16.5q-12 0 -18 10t-6 21q0 20 49.5 97t194.5 266q-46 -52 -93.5 -90t-66.5 -38
q-14 0 -23.5 14.5t-9.5 38.5q0 36 25.5 90.5t70 100.5t84.5 65t72 19q19 0 30 -10t11 -28q0 -22 -25 -65q5 6 18.5 23.5t27 35.5t32.5 46q5 -8 16 -8q9 0 21 7t19 16q-37 -54 -250 -339h2zM2 2q23 0 87.5 57t116.5 127t52 102q0 16 -9 23.5t-21 7.5q-17 0 -40 -12.5
t-42 -30.5q-53 -52 -103 -133q-23 -39 -37.5 -73t-14.5 -54q0 -14 11 -14zM85 -101q0 26 -18 33l-18 -24q-5 -6 -41.5 -54.5t-55 -75.5t-18.5 -36q0 -6 6 -6q15 0 39 13t51 44t41 58.5t14 47.5z" />
    <glyph glyph-name="r" unicode="r" horiz-adv-x="243" 
d="M251 187q-58 -79 -117.5 -133t-82.5 -54q-17 0 -27 14.5t-10 32.5q0 45 56 124q7 10 24.5 32.5t49.5 56.5t35.5 39.5t3.5 7.5q0 6 -6 6h-2.5t-24.5 -6t-54 -6q-23 -38 -83 -115h-5q48 60 84 116q6 13 6 26l-2 30q0 7 4 11t9 4t9 -4t4 -11q0 -16 -23 -53q22 0 59 9.5
t46 9.5q21 0 21 -16q0 -14 -19 -42q-10 -13 -54 -65t-69 -89.5t-32 -59.5t-7 -34q0 -13 9 -13q23 0 83 57t110 125h5z" />
    <glyph glyph-name="s" unicode="s" horiz-adv-x="289" 
d="M298 187l-1 -1q-54 -61 -108 -93q-11 -41 -48.5 -68.5t-77.5 -27.5q-27 0 -44 14t-19 32v5q0 15 12 26t33 11q16 0 42 -8.5t35 -8.5l7 1q17 31 24 58l6 31l1 26l-1 58q0 39 7 65l-12 -20t-75 -101h-5q39 50 58 76t34 51q6 11 10.5 35t13.5 27l6 2q6 0 10 -5t3 -13
q0 -3 -3 -7t-16.5 -16t-18.5 -20q-6 -19 -6 -36v-4q0 -24 14 -74t14 -77l-1 -17l-2 -10q53 32 103 89h5zM48 4h-1q16 0 37 13t42 47h-4q-8 0 -37 9q-22 8 -34 8q-19 0 -30.5 -12.5t-11.5 -28.5q0 -15 10 -25.5t29 -10.5z" />
    <glyph glyph-name="t" unicode="t" 
d="M316 405l-1 -1q5 0 7 -4q-3 -5 -7 -5h-26l-39 2l-163 -221q-5 -6 -41.5 -54.5t-55 -75.5t-18.5 -36q0 -6 6 -6q28 0 89.5 58.5t109.5 124.5h5q-49 -68 -111.5 -127.5t-91.5 -59.5q-12 0 -18 10t-6 21q0 13 10.5 36.5t34 56t63.5 84.5l66 88q39 57 39 78q0 8 -5 13.5
t-15 6.5h-2q-6 0 -8 5q3 5 8 5l34 -1l28 -1l46 62q6 -7 16 -7q9 0 21 7t19 16q-30 -44 -56 -78l29 1zM173 374q0 -14 -15 -39l46 61l-26 -1l-21 -1q16 -5 16 -20z" />
    <glyph glyph-name="u" unicode="u" horiz-adv-x="329" 
d="M134 4h-1q28 0 89.5 58.5t109.5 124.5h5q-49 -68 -111.5 -127.5t-91.5 -59.5q-12 0 -18 10t-6 21q0 28 45 94q-21 -24 -51.5 -53.5t-61.5 -51.5t-46 -22q-13 0 -23.5 9t-10.5 33q0 10 4 30q14 48 94.5 148.5t84.5 106.5q1 -9 14 -9q9 0 22.5 7t19.5 14q-4 -5 -14.5 -19
t-77 -98t-95.5 -133.5t-29 -70.5q0 -14 11 -14q25 0 86 55t108 115h1l27 37q58 72 71 91t19 28q5 -8 16 -8q10 0 21.5 7t19.5 16q-22 -31 -72 -98.5t-51 -68.5q-79 -105 -96.5 -131t-17.5 -35q0 -6 6 -6z" />
    <glyph glyph-name="v" unicode="v" horiz-adv-x="305" 
d="M157 327q22 0 33.5 -11.5t11.5 -30.5q0 -21 -13 -50t-35 -59q-74 -97 -94 -126.5t-20 -39.5q0 -6 6 -6q24 0 57.5 21.5t79 64.5t94.5 105.5t49 73.5q0 8 -9 16.5t-9 19.5q0 13 9.5 22.5t19.5 9.5q8 0 13.5 -7t5.5 -19q0 -13 -24.5 -52.5t-80.5 -105t-113.5 -109.5
t-90.5 -44q-12 0 -18 10t-6 21q0 12 9.5 33.5t30 51t57.5 78.5q23 29 40.5 60.5t17.5 49.5q0 19 -20 19q-22 0 -61 -38.5t-83 -97.5h-5q106 140 148 140z" />
    <glyph glyph-name="w" unicode="w" horiz-adv-x="412" 
d="M445 337q8 0 13.5 -7t5.5 -19q0 -18 -41 -76.5t-103 -119.5t-108.5 -88t-76.5 -27q-12 0 -18 10t-6 21q0 31 43 92q-47 -52 -92.5 -88.5t-65.5 -36.5q-13 0 -23.5 9t-10.5 33q0 10 4 30q14 48 94.5 148.5t84.5 106.5q1 -9 13 -9q9 0 22.5 7t20.5 14q-4 -5 -14.5 -19
t-77 -98t-95.5 -133.5t-29 -70.5q0 -14 11 -14q12 0 39.5 18t73 62.5t81.5 89.5l11 14q1 1 1.5 2t36 45t69.5 95q5 -8 16 -8q9 0 21 7t19 16q-25 -38 -115 -156q-1 -1 -4.5 -6t-31 -41t-46.5 -63.5t-29 -44t-10 -22.5t6 -6q29 0 66.5 21.5t85.5 64.5t98 105.5t50 73.5
t-8.5 18.5t-8.5 17.5q0 13 9 22.5t19 9.5z" />
    <glyph glyph-name="x" unicode="x" horiz-adv-x="299" 
d="M361 322h-1q7 0 13 -4t6 -10q0 -4 -5 -9t-10 -5q-9 0 -12 9t-4.5 10.5t-4.5 1.5q-20 -5 -38.5 -20.5t-51.5 -64.5q-12 -25 -32 -53h35l-5 -6h-35q-75 -99 -92.5 -125.5t-17.5 -35.5q0 -6 6 -6q28 0 89.5 58.5t109.5 124.5h5q-49 -68 -111.5 -127.5t-91.5 -59.5
q-12 0 -18 10t-6 21q0 27 39 85q-49 -50 -94 -82.5t-70 -35.5h-3q-6 0 -11 4.5t-5 9.5t4.5 9t10.5 4q8 0 14.5 -8.5t9.5 -8.5q67 30 156 125l28 38h-43q6 2 6 6h42l13 17q23 29 40.5 60.5t17.5 49.5q0 19 -20 19t-54.5 -27.5t-99.5 -108.5h-5q72 87 105 113.5t53 26.5
q45 0 45 -42q0 -18 -7 -36q25 34 46 52t50 21h4z" />
    <glyph glyph-name="y" unicode="y" horiz-adv-x="322" 
d="M109 4q9 0 27.5 6.5t46.5 27.5t66.5 59.5t75.5 89.5h5q-24 -32 -62.5 -76t-83 -77.5t-74.5 -33.5h-4l-6 -8q-116 -146 -179.5 -205t-104.5 -59q-10 0 -16 5.5t-6 14.5q0 21 24 58.5t63.5 77.5t87.5 71.5t92 43.5l96 127q-47 -52 -94 -90t-67 -38q-13 0 -23.5 9.5
t-10.5 32.5q0 17 4 30q14 48 92 146t86 109q3 -9 14 -9q9 0 22.5 7t20.5 14q-4 -5 -14.5 -19t-77 -98t-95.5 -133.5t-29 -70.5q0 -14 11 -14q24 0 85 55t109 115l111 156q5 -8 16 -8q9 0 21 7t19 16q-115 -169 -248 -339zM-192 -266q21 0 82 61.5t166 197.5
q-56 -15 -118 -65t-101 -105.5t-39 -77.5q0 -11 10 -11z" />
    <glyph glyph-name="z" unicode="z" horiz-adv-x="309" 
d="M262 260v-1q-27 -23 -130 -124l40 1q3 0 4 -3q-1 -3 -4 -3l-43 1q-71 -69 -91 -86q5 -2 21.5 -8t32 -10t31.5 -4q32 0 82 44.5t107 118.5h5q-74 -96 -133.5 -146t-99.5 -50q-11 0 -25 3.5t-32 15t-20 12.5q-31 -22 -51 -22q-11 0 -17.5 5t-6.5 12q0 13 18 25.5t45 12.5
q16 0 39 -7q37 31 89 85l-43 -2q-3 0 -5 3q2 3 6 3l42 -1h4q77 77 118 114q-16 -8 -36.5 -13.5t-36.5 -5.5q-44 0 -44 28q0 11 20 30t20 25q0 2 -2 6.5t-9 4.5q-23 0 -56 -29t-88 -108h-5q59 85 96 116q15 12 27 17q16 8 36 8q18 0 30 -7.5t12 -24.5q0 -11 -23 -30
q-18 -16 -20 -19t-2 -5q0 -8 8 -8q21 0 47.5 9t40.5 20q8 7 26.5 43t32.5 36q6 0 10 -4.5t4 -10.5q0 -9 -9 -20.5t-32.5 -27t-24.5 -16.5zM-43 3q18 0 46 20q-18 9 -33 9t-23.5 -5t-8.5 -11q0 -5 5.5 -9t13.5 -4z" />
    <glyph glyph-name="braceleft" unicode="{" horiz-adv-x="287" 
d="M337 699q11 30 36 56.5t64.5 42.5t75.5 16l-2 -3q-41 0 -83 -30.5t-63 -82.5q-9 -24 -28 -86.5t-31 -93.5q-39 -99 -79.5 -142t-94.5 -43h-6q56 -20 56 -93q0 -56 -33 -138q-11 -30 -40.5 -92t-38.5 -88q-10 -29 -10 -53q0 -34 19 -52t50 -18l-2 -3q-28 0 -52 11.5
t-33.5 31t-9.5 37.5t8 45q11 31 54.5 108t57.5 113q23 59 23 105q0 32 -14.5 55t-44.5 31l-15 -1q-11 0 -11 8q0 3 3 5t8 1l16 -7l17 -1q88 0 143 140q15 38 33 117t27 104z" />
    <glyph glyph-name="bar" unicode="|" horiz-adv-x="390" 
d="M204 -95q-8 5 -12 5q-7 0 -12 -5v750q2 -3 5.5 -5t5.5 -2q6 0 13 7v-750z" />
    <glyph glyph-name="braceright" unicode="}" horiz-adv-x="288" 
d="M350 690l-1 -1q-7 -20 -16.5 -38.5t-46 -84.5t-48.5 -98q-24 -62 -24 -105q0 -32 14.5 -55t44.5 -31l16 1q2 0 6.5 -1.5t4.5 -5.5t-3 -6t-8 -1l-17 7l-16 1q-37 0 -66.5 -23t-47.5 -55.5t-29 -61.5q-15 -38 -33 -117t-27 -104q-11 -30 -36 -56.5t-64.5 -42.5t-75.5 -16
l1 3q41 0 83.5 31t62.5 82q9 24 28.5 86.5t31.5 93.5q38 98 79 141.5t94 43.5h7q-56 20 -56 93q0 54 32 138q11 28 41 90.5t39 89.5q10 30 10 53q0 33 -19.5 51.5t-49.5 18.5l2 4q40 0 67.5 -21t27.5 -60q0 -18 -8 -44z" />
    <glyph glyph-name="asciitilde" unicode="~" horiz-adv-x="600" 
d="M215 330q28 0 49 -12t40 -44.5t26.5 -41t15 -13.5t17.5 -8t22 -3q29 0 56.5 22t41 50t17.5 49h4q-4 -21 -18 -50t-42.5 -52t-58.5 -23q-15 0 -32 4t-33.5 16t-34.5 40.5t-25.5 39t-19.5 16.5t-25 6q-19 0 -43.5 -13.5t-46 -45t-27.5 -64.5h-4q9 47 44.5 87t76.5 40z" />
    <glyph glyph-name="exclamdown" unicode="&#xa1;" horiz-adv-x="240" 
d="M186 290q-2 0 -7.5 2.5t-5.5 12.5q0 7 5 17q5 11 15 19.5t18 8.5q6 0 9.5 -5t3.5 -11l-4 -16q-6 -11 -16 -19.5t-18 -8.5zM-143 -279q41 83 149.5 264.5t133.5 230.5l4 -1l-16.5 -33t-108 -217.5t-120.5 -240.5q-6 12 -16 12q-12 0 -26 -15z" />
    <glyph glyph-name="cent" unicode="&#xa2;" horiz-adv-x="263" 
d="M1 2q35 0 92.5 34.5t104 77t68.5 72.5h5q-35 -47 -91 -92.5t-102.5 -70.5t-76.5 -25h-4l1 -1l-60 -88l-12 2l69 88q-11 2 -19 16.5t-8 35.5q0 27 16 67.5t57 94t93 85.5t95 32l10 -1l59 83l11 -1l-67 -83q8 -3 14.5 -10.5t6.5 -21.5q0 -19 -14 -37t-36 -22l-5 -1
q-9 0 -11 9v1q0 3 3.5 6.5t8.5 3.5q21 0 34 12t13 34q0 10 -6.5 17t-20.5 7q-19 0 -52 -26t-79.5 -85.5t-77 -118t-30.5 -80.5q0 -14 11 -14z" />
    <glyph glyph-name="sterling" unicode="&#xa3;" horiz-adv-x="821" 
d="M835 546l-1 -1q-39 0 -79.5 -16t-74 -41.5t-53 -54t-19.5 -50.5q0 -20 19 -32.5t57 -12.5q36 0 70 20.5t60.5 54t41.5 72t15 72.5q0 42 -24 68.5t-74 26.5q-39 0 -73 -15.5t-61 -43.5t-53 -68t-61.5 -111.5t-44.5 -88.5l21 1l33 1q4 0 6 -4q-2 -4 -6 -4h-26l-31 1
q-74 -142 -147 -217t-166 -103q141 -28 251 -46t173 -18q37 0 72.5 6t61.5 17q43 18 69 66l1 -2q-72 -135 -228 -135q-85 0 -243 49.5t-182 55.5q-49 -11 -101 -11q-20 0 -33.5 7t-13.5 15q0 7 10.5 12t30.5 5q23 0 118 -18q38 12 71 33.5t60 49.5t54 67.5t93 166.5l-31 -1
l-32 -1q-6 0 -9 4q0 5 9 5l34 -1l32 -1q52 99 88.5 156t79 99t88.5 60.5t90 18.5q32 0 61 -10.5t46.5 -38t17.5 -62.5t-16 -73t-45.5 -70t-70 -51.5t-86.5 -19.5t-70 18t-24 45q0 24 17.5 50.5t50 49.5t78 37t98.5 14z" />
    <glyph glyph-name="yen" unicode="&#xa5;" horiz-adv-x="861" 
d="M926 563l-1 -1q8 0 13.5 -5t5.5 -13q0 -4 -5 -14t-34 -28t-35 -25q-29 -38 -62 -92.5t-88 -160.5t-77 -144l27 1l33 1q4 0 6 -4q-2 -5 -6 -5l-27 1l-36 1l-26 -43l26 1l32 1q5 0 7 -4q0 -5 -7 -5h-26l-35 1q-86 -136 -177.5 -194t-201.5 -58q-61 0 -101 29t-40 87
q0 12 2 20.5t6 8t4 -5.5q0 -20 20.5 -43.5t52 -34t63.5 -10.5q89 0 174 47.5t169 154.5h-1l-46 -2l-32 -1q-5 0 -8 5q3 5 9 5l33 -1l45 -1h4l32 43h-7l-45 -1l-32 -1q-9 0 -9 5q3 4 9 4l34 -1l44 -1h9q10 15 37.5 57.5t83.5 141.5t79 136q-119 -150 -204 -224.5t-139 -74.5
q-13 0 -24 12t-11 30q0 33 14.5 66.5t64.5 85t65.5 71.5t26 39t17.5 41t10 44t3 40q0 139 -175 139q-53 0 -109 -19t-103.5 -61t-71.5 -86.5t-31.5 -77t-7.5 -53.5q0 -51 28.5 -83.5t83.5 -32.5q50 0 90.5 15.5t68.5 41.5t42 58t14 64q0 18 -8 37t-28 30t-46 11
q-22 0 -49 -9.5t-48 -24.5l-2 3q21 16 51.5 25.5t57.5 9.5q32 0 58.5 -12t37 -31.5t10.5 -38.5q0 -23 -13 -52.5t-48 -62t-86.5 -50.5t-101.5 -18q-27 0 -54 7.5t-51.5 28t-35 50.5t-10.5 57q0 47 23.5 96.5t69.5 91t115 66.5t154 25q64 0 110 -18.5t72 -51.5t26 -74
q0 -52 -12 -92.5t-34.5 -80.5t-72 -91.5t-63 -66.5t-21.5 -31.5t-9.5 -26t-1.5 -12.5q0 -23 16 -23q52 0 138 76.5t249 285.5q3 4 14.5 31t22.5 38t23 11z" />
    <glyph glyph-name="brokenbar" unicode="&#xa6;" horiz-adv-x="389" 
d="M204 364l-24 -1v292q2 -3 5.5 -5t5.5 -2q6 0 13 7v-291zM204 -95q-8 5 -12 5q-7 0 -12 -5v292h24v-292z" />
    <glyph glyph-name="section" unicode="&#xa7;" horiz-adv-x="491" 
d="M512 509q0 -16 -10.5 -40t-35.5 -43.5t-51 -19.5q-4 0 -7 3.5t-3 7.5q0 6 4.5 11.5t10.5 5.5q4 0 6.5 -3.5t2.5 -7.5q0 -6 -4 -12q28 4 45.5 30t17.5 57q0 29 -16 48.5t-46 19.5q-34 0 -62 -20t-47.5 -55t-19.5 -69q0 -11 5 -29t31.5 -58.5t33.5 -59t7 -33.5
q0 -19 -11.5 -37t-58.5 -58v-3q0 -44 -22.5 -79t-60 -56.5t-72.5 -21.5q-43 0 -64 17t-21 44q0 16 10.5 39.5t35.5 43t51 19.5q10 0 10 -11q0 -6 -4.5 -11t-10.5 -5q-4 0 -6.5 3.5t-2.5 7.5q0 7 5 12q-28 -4 -46 -30.5t-18 -57.5q0 -28 16 -47.5t47 -19.5q33 0 61 20
t47.5 55t19.5 69q0 11 -5 29t-31.5 58.5t-33.5 59t-7 33.5q0 10 3 20t9.5 19t14 16.5t14.5 14t16.5 15t12.5 10.5v2q0 44 22.5 79.5t60 57t72.5 21.5q43 0 64 -17t21 -44zM345 234q0 30 -30 75.5t-36 63.5t-7 30q-41 -42 -41 -81q0 -30 35 -83.5t38 -85.5q41 42 41 81z" />
    <glyph glyph-name="dieresis" unicode="&#xa8;" horiz-adv-x="264" 
d="M239 570h-1q9 0 9 -11l-3 -12q-4 -7 -11 -13t-12 -6q-4 0 -6.5 3.5t-2.5 7.5l3 12q4 7 11.5 13t12.5 6zM322 570q4 0 6.5 -3.5t2.5 -7.5l-3 -12q-4 -8 -11 -13.5t-13 -5.5q-8 0 -8 11l3 11q4 8 10.5 14t12.5 6z" />
    <glyph glyph-name="copyright" unicode="&#xa9;" horiz-adv-x="601" 
d="M485 685q30 0 60 -12t50 -42.5t20 -69.5q0 -32 -11 -62q-28 -75 -102 -129.5t-149 -54.5q-59 0 -94.5 35t-35.5 89q0 33 11 63q10 27 31 57.5t54 58.5t76.5 47.5t89.5 19.5zM598 501q11 30 11 61q0 38 -19 66.5t-48.5 39.5t-56.5 11q-36 0 -74.5 -14t-72 -38.5
t-59.5 -57.5t-39 -69q-12 -33 -12 -62q0 -37 19.5 -66t49 -40t56.5 -11q45 0 97 24t92 67.5t56 88.5zM319 452q0 36 24 79t54.5 62t56.5 19l-1 -3q-21 0 -43.5 -28.5t-41.5 -75.5t-19 -83q0 -38 24 -38q23 0 50 16t51 51l2 -3q-20 -30 -47 -49t-57 -19q-24 0 -38.5 21
t-14.5 51zM506 605h3l-18 -62h-3v22q0 18 -9 31t-26 13v3q24 0 38 -18z" />
    <glyph glyph-name="ordfeminine" unicode="&#xaa;" horiz-adv-x="387" 
d="M325 479v-1q15 0 49 32t61 70h3q-29 -39 -63 -71.5t-50 -32.5q-2 0 -7.5 3.5t-5.5 13.5q0 17 28 57q-27 -31 -54 -53t-38 -22q-8 0 -13 8t-5 22q0 31 24.5 69t55 61t60.5 23q10 0 16.5 -6t6.5 -16q0 -12 -14 -34l43 57q3 -5 9 -5q5 0 11.5 4t10.5 9q-3 -4 -9.5 -13.5
t-31 -42.5t-27.5 -37q-43 -57 -53 -72t-10 -20zM248 477q13 0 48.5 31.5t64.5 70.5t29 57q0 8 -4.5 13t-11.5 5q-20 0 -46 -24q-30 -29 -57 -74q-29 -49 -29 -71q0 -8 6 -8z" />
    <glyph glyph-name="registered" unicode="&#xae;" horiz-adv-x="601" 
d="M485 685q30 0 60 -12t50 -42.5t20 -69.5q0 -32 -11 -62q-28 -75 -102 -129.5t-149 -54.5q-59 0 -94.5 35t-35.5 89q0 33 11 63q10 27 31 57.5t54 58.5t76.5 47.5t89.5 19.5zM598 501q11 30 11 61q0 38 -19 66.5t-48.5 39.5t-56.5 11q-36 0 -74.5 -14t-72 -38.5
t-59.5 -57.5t-39 -69q-12 -33 -12 -62q0 -37 19.5 -66t49 -40t56.5 -11q45 0 97 24t92 67.5t56 88.5zM460 606v-1q23 0 35.5 -11.5t12.5 -28.5q0 -19 -14.5 -37t-38.5 -25q-14 -4 -24 -4q23 -6 31 -20q3 -6 3 -16l-6 -66q0 -13 17 -13v-3q-21 0 -36 10t-15 28q0 14 5.5 37
t5.5 28q0 14 -20 15h-22l-35 -107h15l-1 -4h-15h-40h-14l1 4h14l74 210h-15l1 4h81zM465 552q5 13 5 27q0 10 -5 16.5t-13 6.5h-25l-33 -100h25q11 0 23.5 11t22.5 39z" />
    <glyph glyph-name="macron" unicode="&#xaf;" horiz-adv-x="601" 
d="M530 738l-74 1l-74 -1l2 11q30 -3 76 -3q42 0 72 3z" />
    <glyph glyph-name="degree" unicode="&#xb0;" horiz-adv-x="126" 
d="M248 681q17 0 17 -17q0 -9 -7 -25t-22.5 -31.5t-29.5 -15.5q-11 0 -17 6t-6 14q0 9 7.5 25t24 30t33.5 14zM248 676q-6 0 -16.5 -10t-21 -30t-10.5 -31q0 -8 6 -8q13 0 30.5 27t17.5 43q0 9 -6 9z" />
    <glyph glyph-name="plusminus" unicode="&#xb1;" horiz-adv-x="428" 
d="M423 341h-1q-4 -6 -3 -10h-152l-40 -155q-6 2 -13 0l41 155h-154q5 7 4 10h152l40 153q6 -4 13 0l-40 -153h153zM345 47q-4 -6 -3 -10h-318q5 7 4 10h317z" />
    <glyph glyph-name="acute" unicode="&#xb4;" horiz-adv-x="134" 
d="M237 511q1 2 4.5 7.5t11.5 5.5q5 0 8 -3.5t1 -9.5q-9 -31 -69.5 -58t-93.5 -27v2q13 0 41 9t59 30t38 44z" />
    <glyph glyph-name="paragraph" unicode="&#xb6;" horiz-adv-x="732" 
d="M883 817v-1q34 0 52 -13t18 -31q0 -20 -22.5 -36.5t-58.5 -16.5q-60 0 -143 33q-64 -48 -157 -169q-91 -117 -239.5 -315t-185.5 -251q-16 -23 -25.5 -50t-6.5 -49q45 -14 126 -14q47 0 72.5 -14t25.5 -33q0 -16 -18.5 -31t-46 -20.5t-52.5 -3.5q-83 6 -120 110
q-79 19 -79 73q0 14 6.5 34t22.5 46.5t41.5 60t27.5 36.5l112 150q-26 -16 -53 -25.5t-48 -9.5q-31 0 -47.5 17.5t-16.5 47.5q0 24 11 54t28 58q19 31 54.5 70t83.5 70t88 37q-22 2 -46.5 13.5t-40 35.5t-15.5 51q0 38 26 68t70 45.5t106 13.5q39 -1 85 -15t113 -43.5
t83 -36.5q88 54 169 54zM551 613h-1q78 95 159 146q-17 7 -86 37t-116 43.5t-87 13.5q-49 0 -89.5 -19.5t-59.5 -51.5t-19 -62q0 -27 14 -49t37.5 -31t45.5 -9q30 0 46.5 -17.5t16.5 -47.5v-14l72 98q3 -7 11 -7q10 0 26 8.5t19 13.5q-14 -22 -148 -200l-225 -300
q-9 -11 -43.5 -55t-54 -76.5t-19.5 -56.5q0 -36 48 -54q-4 13 -4 31q0 19 7 40q14 45 110 168q4 5 15.5 20.5t125.5 170.5t199 260zM871 722v-1q25 0 43 17t18 37q0 16 -12.5 26.5t-37.5 10.5q-74 0 -150 -58q81 -32 139 -32zM240 -102q-79 0 -125 10q10 -44 35 -69
q13 -13 34.5 -22.5t49.5 -9.5q34 0 54.5 15t20.5 34q0 17 -18 29.5t-51 12.5z" />
    <glyph glyph-name="periodcentered" unicode="&#xb7;" horiz-adv-x="135" 
d="M120 309q13 0 13 -15q0 -9 -4 -17q-6 -11 -15.5 -19t-17.5 -8q-13 0 -13 15q0 9 4 17q5 10 15 18.5t18 8.5z" />
    <glyph glyph-name="cedilla" unicode="&#xb8;" horiz-adv-x="599" 
d="M271 -29q12 0 23 -7.5t10 -27.5l-2 -12q-4 -20 -21.5 -32.5t-35.5 -12.5q-14 0 -23 8.5t-8 25.5l3 2q1 -13 7.5 -20.5t15.5 -7.5q12 0 26 11t19 25q3 8 3 16q0 12 -7.5 20t-19.5 8q-7 0 -16 -3l-1 -1h-6l24 35h6l-21 -31q12 4 24 4z" />
    <glyph glyph-name="ordmasculine" unicode="&#xba;" horiz-adv-x="357" 
d="M369 658q11 0 17.5 -7t6.5 -18q0 -24 -23 -63.5t-58.5 -67.5t-64.5 -28q-7 0 -12.5 8.5t-5.5 21.5q0 29 25.5 68t56 62.5t58.5 23.5zM369 655q-11 0 -30 -15.5t-43 -48t-40 -63.5q-14 -28 -14 -43q0 -3 1.5 -5.5t3.5 -2.5q20 0 43.5 17t46 44.5t35.5 54.5t13 45
q0 17 -16 17z" />
    <glyph glyph-name="questiondown" unicode="&#xbf;" horiz-adv-x="352" 
d="M360 556q-2 0 -7.5 2.5t-5.5 12.5q0 7 5 17t15 18.5t18 8.5q2 0 7.5 -2.5t5.5 -12.5q0 -9 -4 -17q-6 -11 -16 -19t-18 -8zM48 -22l-1 -1q-23 0 -44 10.5t-29.5 27.5t-8.5 34q0 16 6 35q9 27 32.5 63t62 74.5t144 129t125.5 147.5h4q-6 -17 -18.5 -37.5t-36.5 -49
t-89.5 -91t-88.5 -87.5t-39 -45t-31 -44.5t-24 -50.5q-12 -37 -12 -62q0 -51 48 -51q36 0 77.5 28.5t76.5 71.5t57 87.5t22 73.5q0 36 -33 36q-17 0 -39 -14t-45.5 -43.5t-42.5 -67.5t-19 -64q0 -8 3 -14l-1 -2q-12 20 -12 46q0 21 12 49.5t40.5 56.5t55.5 42t49 14
q30 0 45 -15t15 -40q0 -32 -22.5 -75t-60 -82.5t-85 -64.5t-93.5 -25z" />
    <glyph glyph-name="Agrave" unicode="&#xc0;" horiz-adv-x="898" 
d="M1088 871q7 -23 38 -44.5t59 -30.5t41 -9v-2q-33 0 -93.5 27.5t-69.5 58.5l-1 4q0 2 2 6t9 3q11 -2 15 -13zM1039 618l-1 -1q6 0 11 -4.5t5 -13.5q0 -28 -46.5 -105.5t-174.5 -264t-141 -222.5h87q-2 -5 -1 -8h-181q2 4 1 8h83q-7 9 -6 25q11 73 140 253h-29l-61 1
q-138 -145 -247 -228.5t-195.5 -119t-156.5 -35.5q-40 0 -70 10t-49.5 28.5t-29 43t-9.5 53.5q0 68 47.5 146t126.5 133q-14 18 -21.5 42t-7.5 46q0 37 18 77t55.5 74.5t97 56t136.5 21.5q65 0 169.5 -33t139.5 -38t55 -5q96 0 199 44l1 -2q-108 -45 -200 -45q-60 0 -181 27
t-185 27q-78 0 -137 -19t-95 -49t-53 -65.5t-17 -68.5q0 -22 9.5 -45t25.5 -39q52 34 115 54t130 20q32 0 60.5 -8.5t45 -29t16.5 -47.5q0 -34 -23 -74t-63 -74.5t-93 -56t-108 -21.5q-31 0 -56 16.5t-29 40.5l1 -1q3 -9 14.5 -17.5t31 -12.5t37.5 -4q55 0 107.5 20t92 51.5
t62 68.5t22.5 68q0 34 -29.5 55.5t-88.5 21.5q-65 0 -127.5 -20t-113.5 -54q50 -47 145 -47q32 0 71 6v-2q-52 -13 -96 -13q-87 0 -129 50q-34 -24 -72 -63t-63 -90t-25 -93q0 -23 7.5 -42.5t21.5 -35t43.5 -27.5t76.5 -12q72 0 150 28.5t160 82t166 128.5q9 14 14.5 32
t5.5 31q0 26 -18 32h-17q-8 0 -8 5q3 4 9 4l43 -1h49h30q27 27 63 65.5t92 100.5t84 92.5t50 49t31 18.5zM1043 606q1 8 -5 8q-8 0 -31.5 -20t-121 -131t-155.5 -172l70 2h20q34 47 111 149t93.5 128.5t18.5 35.5zM615 193v-1q45 41 98 94h-9l-69 -1l-19 -1q16 -8 16 -33
q0 -27 -17 -58z" />
    <glyph glyph-name="Aacute" unicode="&#xc1;" horiz-adv-x="898" 
d="M1217 884q5 0 7.5 -3.5t0.5 -9.5q-9 -31 -69 -58.5t-94 -27.5v2q13 0 41 9t59.5 30.5t38.5 44.5q3 13 16 13zM1039 618l-1 -1q6 0 11 -4.5t5 -13.5q0 -18 -18.5 -54.5t-52 -90t-156 -232.5t-135.5 -215h87q-2 -5 -1 -8h-181q2 4 1 8h83q-7 9 -6 25q11 73 140 253h-29
l-61 1q-138 -145 -247 -228.5t-195.5 -119t-156.5 -35.5q-40 0 -70 10t-49.5 28.5t-29 43t-9.5 53.5q0 33 15 79.5t58 103t101 96.5q-14 18 -21.5 42t-7.5 46q0 37 18 77t55.5 74.5t97 56t136.5 21.5q65 0 169.5 -33t139.5 -38t55 -5q96 0 199 44l1 -2q-108 -45 -200 -45
q-60 0 -181 27t-185 27q-78 0 -137 -19t-95 -49t-53 -65.5t-17 -68.5q0 -22 9.5 -45t25.5 -39q52 34 115 54t130 20q32 0 60.5 -8.5t45 -29t16.5 -47.5q0 -34 -23 -74t-63 -74.5t-93 -56t-108 -21.5q-31 0 -56 16.5t-29 40.5l1 -1q5 -14 26 -23.5t57 -9.5q55 0 107.5 19.5
t92 51.5t62 68.5t22.5 67.5q0 34 -30 55.5t-88 21.5q-65 0 -127.5 -20t-113.5 -54q50 -47 145 -47q32 0 71 6v-2q-53 -13 -96 -13q-44 0 -76.5 13.5t-52.5 36.5q-34 -23 -72 -62.5t-63 -90.5t-25 -93q0 -23 7.5 -42.5t21.5 -35t43.5 -27.5t76.5 -12q72 0 150 28.5t160 82
t166 128.5q9 14 14.5 32t5.5 31q0 12 -4.5 20.5t-13.5 12.5l-17 -1q-8 0 -8 5q3 5 9 5l43 -2h49h30q27 27 63 65.5t92 100.5t84 92.5t50 49t31 18.5zM1043 606q1 8 -5 8q-8 0 -32 -20t-122 -132t-154 -171l70 2h20q34 47 111 149t93.5 128.5t18.5 35.5zM615 193q43 38 98 93
h-9l-69 -1l-19 -1q16 -8 16 -33q0 -27 -17 -58z" />
    <glyph glyph-name="Acircumflex" unicode="&#xc2;" horiz-adv-x="898" 
d="M1174 766h-5l-40 64l-62 -64h-5l52 71l16 -1l17 1zM1039 618l-1 -1q6 0 11 -4.5t5 -13.5q0 -18 -18.5 -54.5t-52 -90t-156 -232.5t-135.5 -215h87q-2 -5 -1 -8h-181q2 4 1 8h83q-7 9 -6 25q11 73 140 253h-29l-61 1q-138 -145 -247 -228.5t-195.5 -119t-156.5 -35.5
q-40 0 -70 10t-49.5 28.5t-29 43t-9.5 53.5q0 42 18 88.5t58 98.5t98 92q-14 18 -21.5 42t-7.5 46q0 37 18 77t55.5 74.5t97 56t136.5 21.5q65 0 169.5 -33t139.5 -38t55 -5q96 0 199 44l1 -2q-108 -45 -200 -45q-60 0 -181 27t-185 27q-78 0 -137 -19t-95 -49t-53 -65.5
t-17 -68.5q0 -22 9.5 -45t25.5 -39q52 34 115 54t130 20q32 0 60.5 -8.5t45 -29t16.5 -47.5q0 -34 -23 -74t-63 -74.5t-93 -56t-108 -21.5q-31 0 -56 16.5t-29 40.5l1 -1q5 -14 26 -23.5t57 -9.5q55 0 107.5 19.5t92 51.5t62 68.5t22.5 67.5q0 34 -30 55.5t-88 21.5
q-65 0 -127.5 -20t-113.5 -54q50 -47 145 -47q32 0 71 6v-2q-53 -13 -96 -13q-44 0 -76.5 13.5t-52.5 36.5q-34 -23 -72 -62.5t-63 -90.5t-25 -93q0 -23 7.5 -42.5t21.5 -35t43.5 -27.5t76.5 -12q72 0 150 28.5t160 82t166 128.5q9 14 14.5 32t5.5 31q0 12 -4.5 20.5
t-13.5 12.5l-17 -1q-8 0 -8 5q3 5 9 5l43 -1l49 -1h30q27 27 63 65.5t92 100.5t84 92.5t50 49t31 18.5zM1043 606q1 8 -5 8q-8 0 -32 -20t-122 -132t-154 -171l70 2h20q34 47 111 149t93.5 128.5t18.5 35.5zM615 193q43 38 98 93h-9l-69 -1l-19 -1q16 -8 16 -33
q0 -27 -17 -58z" />
    <glyph glyph-name="Atilde" unicode="&#xc3;" horiz-adv-x="898" 
d="M1222 791q-18 -34 -33 -48t-34 -14q-18 0 -42.5 21.5t-33 24.5t-12.5 3q-20 0 -42 -39l-2 1q10 20 23 35t31 15q15 0 44.5 -23t45.5 -23q26 0 53 49zM1039 618l-1 -1q6 0 11 -4.5t5 -13.5q0 -18 -18.5 -54.5t-52 -90t-156 -232.5t-135.5 -215h87q-2 -5 -1 -8h-181
q2 4 1 8h83q-7 9 -6 25q11 73 140 253h-29l-61 1q-138 -145 -247 -228.5t-195.5 -119t-156.5 -35.5q-40 0 -70 10t-49.5 28.5t-29 43t-9.5 53.5q0 42 18 88.5t58 98.5t98 92q-14 18 -21.5 42t-7.5 46q0 37 18 77t55.5 74.5t97 56t136.5 21.5q65 0 169.5 -33t139.5 -38t55 -5
q96 0 199 44l1 -2q-108 -45 -200 -45q-60 0 -181 27t-185 27q-78 0 -137 -19t-95 -49t-53 -65.5t-17 -68.5q0 -22 9.5 -45t25.5 -39q52 34 115 54t130 20q32 0 60.5 -8.5t45 -29t16.5 -47.5q0 -34 -23 -74t-63 -74.5t-93 -56t-108 -21.5q-31 0 -56 16.5t-29 40.5l1 -1
q5 -14 26 -23.5t57 -9.5q55 0 107.5 19.5t92 51.5t62 68.5t22.5 67.5q0 34 -30 55.5t-88 21.5q-65 0 -127.5 -20t-113.5 -54q50 -47 145 -47q32 0 71 6v-2q-53 -13 -96 -13q-44 0 -76.5 13.5t-52.5 36.5q-34 -23 -72 -62.5t-63 -90.5t-25 -93q0 -23 7.5 -42.5t21.5 -35
t43.5 -27.5t76.5 -12q72 0 150 28.5t160 82t166 128.5q9 14 14.5 32t5.5 31q0 12 -4.5 20.5t-13.5 12.5l-17 -1q-8 0 -8 5q3 5 9 5l43 -2h49h30q27 27 63 65.5t92 100.5t84 92.5t50 49t31 18.5zM1043 606q1 8 -5 8q-8 0 -32 -20t-122 -132t-154 -171l70 2h20q34 47 111 149
t93.5 128.5t18.5 35.5zM615 193q43 38 98 93h-9l-69 -1l-19 -1q16 -8 16 -33q0 -27 -17 -58z" />
    <glyph glyph-name="Adieresis" unicode="&#xc4;" horiz-adv-x="898" 
d="M1090 787q9 0 9 -11l-3 -12q-3 -7 -10.5 -13t-12.5 -6q-9 0 -9 11l3 11q4 8 10.5 14t12.5 6zM1173 787v-1q9 0 9 -10l-3 -12q-3 -8 -10 -13.5t-13 -5.5q-9 0 -9 11l3 11q4 8 10.5 14t12.5 6zM1039 618l-1 -1q6 0 11 -4.5t5 -13.5q0 -28 -46.5 -105.5t-174.5 -264
t-141 -222.5h87q-2 -5 -1 -8h-181q2 4 1 8h83q-7 9 -6 24q11 72 139 254h-29l-61 1q-360 -383 -598 -383q-50 0 -87.5 17t-54 49t-16.5 69q0 68 48 146.5t126 132.5q-14 18 -21.5 41.5t-7.5 45.5q0 38 18 78t55.5 74.5t97 56t136.5 21.5q64 0 166.5 -32.5t139 -38t58.5 -5.5
q96 0 199 44l1 -2q-106 -45 -200 -45q-60 0 -181 27t-185 27q-78 0 -137 -19t-95 -49t-53 -65.5t-17 -68.5q0 -22 9.5 -45t25.5 -39q52 34 115 54t130 20q32 0 60.5 -8.5t45 -29t16.5 -47.5q0 -34 -23 -74t-63 -74.5t-93 -56t-109 -21.5q-30 0 -55 16.5t-29 39.5h1
q3 -9 14.5 -17.5t31 -12.5t37.5 -4q55 0 107.5 19.5t92 51.5t62 68.5t22.5 67.5q0 25 -16 44t-45 26.5t-57 7.5q-65 0 -127.5 -20t-114.5 -54q23 -22 60.5 -34.5t85.5 -12.5q33 0 70 6l1 -2q-22 -5 -51 -9.5t-45 -4.5q-86 0 -129 51q-34 -24 -72 -63t-63 -90t-25 -93
q0 -53 37 -85t111 -32q72 0 150.5 28.5t160.5 82t166 128.5q9 14 14.5 32t5.5 31q0 26 -18 32h-18q-5 0 -7 4q0 5 9 5l43 -1h49h30q27 27 63 65.5t92 100.5t84 92.5t50 49t31 18.5zM1043 606q1 8 -5 8q-8 0 -32 -20t-122 -132t-154 -171l70 1l20 1q34 47 111 149t93.5 128.5
t18.5 35.5zM615 193v-1q45 41 98 94h-9l-69 -1l-19 -1q16 -9 16 -33q0 -27 -17 -58z" />
    <glyph glyph-name="Aring" unicode="&#xc5;" horiz-adv-x="898" 
d="M1083 695q13 0 13 -14q0 -11 -7 -24q-9 -14 -25 -25.5t-27 -11.5q-14 0 -14 14q0 10 8 23q9 15 24.5 26.5t27.5 11.5zM1079 657h-1q11 17 11 27q0 8 -8 8q-18 0 -40 -35q-11 -17 -11 -26q0 -8 9 -8t20 9.5t20 24.5zM1039 618l-1 -1q6 0 11 -4.5t5 -13.5
q0 -28 -46.5 -105.5t-174.5 -264t-141 -222.5h87q-2 -5 -1 -8h-181q2 4 1 8h83q-7 9 -6 24q11 72 139 254h-29l-61 1q-360 -383 -598 -383q-50 0 -87.5 17t-54 49t-16.5 69q0 68 48 146.5t126 132.5q-14 18 -21.5 41.5t-7.5 45.5q0 38 18 78t55.5 74.5t97 56t136.5 21.5
q64 0 166.5 -32.5t139 -38t58.5 -5.5q96 0 199 44l1 -2q-106 -45 -200 -45q-60 0 -181 27t-185 27q-78 0 -137 -19t-95 -49t-53 -65.5t-17 -68.5q0 -22 9.5 -45t25.5 -39q52 34 115 54t130 20q32 0 60.5 -8.5t45 -29t16.5 -47.5q0 -34 -23 -74t-63 -74.5t-93 -56t-109 -21.5
q-30 0 -55 16.5t-29 39.5h1q5 -14 25.5 -24t57.5 -10q55 0 107.5 19.5t92 51.5t62 68.5t22.5 67.5q0 34 -29.5 55.5t-88.5 21.5q-66 0 -128 -19.5t-114 -53.5q23 -22 60.5 -34.5t85.5 -12.5q33 0 70 6l1 -2q-22 -5 -51 -9.5t-45 -4.5q-86 0 -129 51q-34 -24 -72 -63t-63 -90
t-25 -93q0 -53 37 -85t111 -32q72 0 150.5 28.5t160.5 82t166 128.5q9 14 14.5 32t5.5 31q0 26 -18 32h-18q-5 0 -7 4q0 5 9 5l43 -1h49h30q27 27 63 65.5t92 100.5t84 92.5t50 49t31 18.5zM1043 606q1 8 -5 8q-8 0 -32 -20t-122 -132t-154 -171l70 1l20 1q34 47 111 149
t93.5 128.5t18.5 35.5zM615 193v-1q45 41 98 94h-9l-69 -1l-19 -1q16 -9 16 -33q0 -27 -17 -58z" />
    <glyph glyph-name="AE" unicode="&#xc6;" horiz-adv-x="1191" 
d="M1338 629l-2 -2q16 1 24 -6.5t8 -17.5t-8 -20.5t-21 -15.5t-25 -6q-37 -1 -80 5q-14 -25 -14 -53q0 -23 10.5 -41t29.5 -24l-1 -1q-20 7 -31 25.5t-11 42.5q0 29 13 52q-41 7 -108 26.5t-75 21.5q7 -7 7 -16q0 -22 -35.5 -85.5t-141.5 -220.5h25q56 0 82 18t37 49h5
l-52 -148h-5q4 18 4 26q0 45 -73 45l-30 1q-7 -11 -61 -90.5t-83 -125t-35 -64.5q14 0 48.5 -2t71 -6t109.5 -16t120 -12q27 0 44.5 5t29 15t18.5 40l3 -2q-8 -42 -19 -61.5t-27.5 -31t-40.5 -12.5l-21 -1q-32 0 -52 5.5t-68 26.5t-97 30t-102 12.5t-113 3.5l3 8l86 -2
q-11 11 -8 28q10 71 138 253l-88 1h-1q-138 -145 -247 -228.5t-195.5 -119t-156.5 -35.5q-40 0 -70 10t-49.5 28.5t-29 43t-9.5 53.5q0 55 31.5 118t89.5 118t137.5 89t169.5 34q32 0 60.5 -8.5t45 -29t16.5 -47.5q0 -34 -23 -74t-63 -74.5t-93 -56t-108 -21.5q-32 0 -56 14
t-28 38l1 -1q9 -28 82 -28q55 0 107.5 19.5t92 51.5t62 68.5t22.5 67.5q0 34 -30 55.5t-88 21.5q-62 0 -122 -18.5t-109.5 -49.5t-93 -77t-64.5 -95.5t-21 -85.5q0 -53 37 -85t111 -32q72 0 150.5 28.5t160.5 82t166 128.5q9 14 14.5 32t5.5 31q0 26 -18 32h-18q-5 0 -7 4
q0 5 9 5l43 -1h79q11 11 42.5 43.5t118 128t99.5 109t31 29t28 16.5q-119 31 -214 31h-34q-34 -2 -69.5 -12.5t-64 -31.5t-47 -51t-18.5 -63q0 -25 12 -47t32 -34.5t39 -18.5v-1q-53 11 -81 40t-28 65q0 20 10 44t36 48t70.5 43t108.5 23l48 1q88 0 201.5 -20t155.5 -24
t70 -4q30 20 73 23zM1322 606q13 1 21 4t8 6q0 2 -4 4t-11 1q-36 -1 -62 -16h3zM1043 605q1 8 -5 8q-8 0 -32 -20t-122.5 -131.5t-154.5 -170.5l90 1q13 19 34 47t89 117.5t83.5 115t17.5 33.5zM615 192q22 20 98 93l-78 -1h-19q16 -9 16 -33q0 -27 -17 -59z" />
    <glyph glyph-name="Ccedilla" unicode="&#xc7;" horiz-adv-x="694" 
d="M741 673l-1 -1q49 0 76.5 -19t27.5 -52q0 -36 -35.5 -85.5t-103.5 -101.5q-78 -60 -185 -98t-227 -38q-40 0 -74 8q-28 -54 -43 -109.5t-15 -103.5q0 -38 13.5 -66t37 -38.5t46.5 -10.5q41 0 83 15.5t75 49t54 77.5t21 84q0 23 -10.5 35t-26.5 12q-17 0 -35.5 -12
t-30 -29.5t-15.5 -33.5h-2q5 27 24 47.5t40 28t35 7.5q31 0 46.5 -16t15.5 -42q0 -31 -21 -70.5t-58.5 -75.5t-88.5 -58.5t-107 -22.5q-75 0 -112 38t-37 103q0 47 17 100.5t48 105.5q-32 16 -48.5 39.5t-16.5 50.5q0 37 28 67.5t72.5 47.5t103.5 17q33 0 58 -4
q86 65 178 105q71 31 129 42q34 7 64 7zM813 582q9 21 9 37q0 23 -19.5 35.5t-54.5 12.5q-67 0 -158 -36q-38 -15 -88 -43t-104 -74q62 -14 115.5 -46t83.5 -75l-2 -1q-14 21 -41.5 45.5t-70.5 44t-89 28.5q-110 -97 -173 -221q37 -7 72 -7q89 0 191 38t197 114q50 40 84 79
t48 69zM113 384q0 -17 9 -33.5t24 -28t29 -18.5q71 118 190 210q-25 3 -50 3q-46 0 -93.5 -15t-78 -49t-30.5 -69zM265 -75h-1q17 0 25.5 -10t7.5 -26l-2 -11q-4 -20 -21 -33t-35 -13q-14 0 -23.5 9t-8.5 26l3 2q1 -14 7.5 -21.5t15.5 -7.5q12 0 26 11.5t20 25.5l3 15
q0 12 -8 20t-20 8q-7 0 -16 -3l-1 -1h-6l24 36h6l-21 -31q12 4 25 4z" />
    <glyph glyph-name="Egrave" unicode="&#xc8;" horiz-adv-x="524" 
d="M632 871q7 -23 38 -44.5t59 -30.5t41 -9v-2q-33 0 -93.5 27.5t-69.5 58.5l-1 4q0 5 3.5 7.5t7.5 1.5q11 -2 15 -13zM526 642l-1 -1q58 0 96 -22.5t38 -64.5q0 -34 -22.5 -66.5t-59 -51t-81.5 -18.5v5q25 0 50.5 8t49 28.5t35 48.5t11.5 50q0 18 -9.5 36.5t-34 29.5
t-56.5 11q-27 0 -58.5 -7.5t-61.5 -22t-61.5 -40t-51 -59.5t-25.5 -67q-3 -12 -3 -25q0 -21 7.5 -43t23.5 -34l53 2q21 0 21 -9q0 -4 -9.5 -7.5t-24.5 -3.5q-27 0 -52 10q-45 -6 -91 -24.5t-83.5 -51t-64 -78.5t-36.5 -102q-3 -16 -3 -33q0 -33 14 -58t38 -34.5t47 -9.5
l32 1l-1 21q0 55 21.5 110.5t60.5 100t94.5 71t118.5 26.5q25 0 38 -14.5t13 -38.5q0 -33 -22.5 -77t-65 -86.5t-103.5 -74t-132 -40.5q2 -66 35.5 -120.5t99.5 -81.5l-1 -2q-70 28 -110 82t-46 120l-33 -1q-28 0 -56 5.5t-52 21.5t-34 40.5t-10 46.5q0 13 3 26
q12 67 57.5 122.5t112 91t150.5 47.5q-24 14 -36 38.5t-12 52.5l1 22q6 34 27 68.5t59.5 62.5t89.5 45.5t106 17.5zM446 264q-54 0 -103.5 -28.5t-87.5 -75.5t-59 -105t-21 -114q70 9 130 40t101.5 72.5t63.5 84.5t22 75q0 24 -12 37.5t-34 13.5z" />
    <glyph glyph-name="Eacute" unicode="&#xc9;" horiz-adv-x="524" 
d="M761 884q5 0 7.5 -3.5t0.5 -9.5q-9 -31 -69 -58.5t-94 -27.5v2q13 0 41 9t59.5 30.5t38.5 44.5q3 13 16 13zM526 642l-1 -1q58 0 96 -22.5t38 -64.5q0 -34 -22.5 -66t-59 -50.5t-81.5 -18.5v4q25 0 50.5 8t49 28.5t35 48.5t11.5 50q0 18 -9.5 37t-34 30t-56.5 11
q-37 0 -85 -15.5t-88 -47.5t-59.5 -66.5t-25.5 -67.5q-3 -12 -3 -25q0 -21 7.5 -43t23.5 -34l53 2q21 0 21 -9q0 -4 -9.5 -7.5t-24.5 -3.5q-27 0 -52 10q-45 -6 -91 -24.5t-83.5 -51t-64 -78.5t-36.5 -102q-3 -16 -3 -33q0 -33 14 -58t38 -34.5t47 -9.5l32 1l-1 22
q0 55 21.5 110t60.5 99.5t94.5 71t118.5 26.5q25 0 38 -14.5t13 -38.5q0 -33 -19.5 -71t-47.5 -70.5t-66.5 -61t-87.5 -48.5t-102 -27q2 -66 35.5 -120.5t99.5 -81.5l-1 -2q-70 28 -110 82t-46 120l-33 -1q-28 0 -56 5.5t-52 21.5t-34 40.5t-10 46.5l3 27q10 55 42.5 101.5
t71.5 76t89 51.5t117 31q-24 14 -36 39t-12 53l1 21q6 34 27 68.5t59.5 62.5t89.5 45.5t106 17.5zM446 264q-54 0 -103.5 -28.5t-87.5 -75.5t-59 -105t-21 -114q70 9 130 40t101.5 72.5t63.5 85t22 75.5q0 23 -12 36.5t-34 13.5z" />
    <glyph glyph-name="Ecircumflex" unicode="&#xca;" horiz-adv-x="524" 
d="M718 766h-5l-40 64l-62 -64h-5l52 71l16 -1l17 1zM526 642h-1q58 0 96 -23t38 -65q0 -34 -22.5 -66t-59 -50.5t-81.5 -18.5v4q25 0 50.5 8t49 28.5t35 48.5t11.5 50q0 18 -9.5 37t-34 30t-56.5 11q-37 0 -85 -15.5t-88 -47.5t-59.5 -66.5t-25.5 -67.5q-3 -12 -3 -25
q0 -21 7.5 -43t23.5 -34l53 2q21 0 21 -9q0 -4 -9.5 -7t-24.5 -3q-31 0 -52 10q-76 -11 -132.5 -45.5t-93.5 -88.5t-49 -123q-3 -16 -3 -33q0 -33 14 -58t38 -34.5t47 -9.5l32 1l-1 22q0 55 21.5 110t61 99.5t94.5 71t118 26.5q25 0 38 -14.5t13 -38.5q0 -15 -7 -40
t-27.5 -58t-52 -64.5t-73.5 -57.5t-85 -39.5t-78 -18.5q2 -66 35.5 -120.5t99.5 -81.5l-1 -2q-70 28 -110 82t-46 120l-33 -1q-28 0 -56 5.5t-52 21.5t-34 40.5t-10 46.5l3 27q10 55 42.5 101.5t71.5 76t89 51.5t117 31q-24 14 -36 39t-12 53l1 21q6 34 27 68.5t59.5 62.5
t89.5 45.5t106 17.5zM446 264q-54 0 -103.5 -28.5t-87.5 -75.5t-59 -105t-21 -114q70 9 130 40t101.5 72.5t63.5 85t22 75.5q0 23 -12 36.5t-34 13.5z" />
    <glyph glyph-name="Edieresis" unicode="&#xcb;" horiz-adv-x="524" 
d="M617 745q-9 0 -9 11l3 11q4 8 10.5 14t12.5 6q9 0 9 -11l-3 -12q-3 -8 -10 -13.5t-13 -5.5zM717 787v-1q9 0 9 -10l-3 -12q-3 -8 -10 -13.5t-13 -5.5q-9 0 -9 11l3 11q4 8 10.5 14t12.5 6zM526 642l-1 -1q42 0 74.5 -12.5t46 -32.5t13.5 -42q0 -36 -23 -68t-58.5 -50
t-81.5 -18v5q25 0 50.5 8t49 28.5t35 48.5t11.5 50q0 18 -9.5 36.5t-34 29.5t-56.5 11q-47 0 -94.5 -19t-78.5 -43.5t-54.5 -57.5t-31.5 -76l-2 -25q0 -22 7.5 -43.5t23.5 -33.5l53 2q20 0 20 -9q0 -4 -9.5 -7.5t-23.5 -3.5q-27 0 -52 10q-76 -10 -132.5 -45t-93.5 -89
t-49 -122q-3 -18 -3 -33q0 -33 14 -58t38 -34.5t47 -9.5l32 1l-1 21q0 55 21.5 110.5t60.5 100t94.5 71t118.5 26.5q24 0 37 -14.5t13 -38.5q0 -33 -22.5 -77t-65 -86.5t-103 -74t-131.5 -40.5q2 -66 35.5 -120.5t99.5 -81.5l-1 -3q-71 28 -110.5 82.5t-45.5 120.5l-33 -1
q-28 0 -56 5.5t-52 21.5t-34 40.5t-10 46.5q0 13 3 26q12 67 57.5 122.5t112 91t150.5 46.5q-24 14 -36.5 39.5t-12.5 52.5l2 22q6 34 27 68.5t59.5 62.5t89.5 45.5t106 17.5zM446 263q-40 0 -79 -16.5t-77.5 -50t-68 -87t-38 -98t-8.5 -70.5q70 9 130 40t101.5 72.5
t63.5 84.5t22 75q0 23 -12 36.5t-34 13.5z" />
    <glyph glyph-name="Igrave" unicode="&#xcc;" horiz-adv-x="671" 
d="M736 871q7 -23 38 -44.5t59 -30.5t41 -9v-2q-33 0 -93.5 27.5t-69.5 58.5l-1 4q0 5 4 7.5t8 1.5q11 -2 14 -13zM709 679q25 -11 38.5 -40t13.5 -70q0 -85 -48 -201.5t-122 -215.5q30 -10 60 -10v-4q-34 0 -64 8q-61 -79 -127 -132.5t-134.5 -81.5t-137.5 -28
q-82 0 -123.5 37t-41.5 96q0 49 28 103t77.5 99.5t115 73.5t135.5 28q37 0 67 -8l-2 33q0 62 22 120.5t58 103t77.5 70t76.5 25.5q16 0 31 -6zM520 206q22 -30 53 -46q39 47 82.5 119t71.5 153t28 142q0 79 -46 99q-15 5 -27 5q-32 0 -68.5 -26t-68 -71t-50.5 -102.5
t-19 -116.5l2 -43q47 -28 47 -81q0 -14 -5 -32zM196 -54h-1q65 0 129 24t126 71t117 112q-29 11 -54 33q-12 -29 -36 -57.5t-57.5 -51t-75.5 -35.5t-88 -13q-41 0 -63.5 12t-29.5 39l3 1q5 -33 69 -31q43 0 93.5 15t99.5 53t71 82q-23 26 -36 60t-17 67q-30 7 -63 7
q-69 0 -132.5 -25.5t-110.5 -66.5t-73 -89t-26 -91q0 -31 16 -59t53 -42.5t86 -14.5zM509 223q4 13 4 30t-8 33.5t-26 26.5q6 -51 30 -90z" />
    <glyph glyph-name="Iacute" unicode="&#xcd;" horiz-adv-x="671" 
d="M865 884q5 0 7.5 -3.5t1.5 -9.5q-6 -20 -34 -38.5t-68 -33t-62 -14.5v2q13 0 41 9t59.5 30.5t38.5 44.5q1 6 6 9.5t10 3.5zM709 679q25 -11 38.5 -40t13.5 -70q0 -61 -26 -142t-66.5 -154t-76.5 -121q24 -8 59 -10v-4q-35 0 -64 9q-39 -52 -85 -96t-96.5 -77t-106 -51.5
t-111.5 -18.5q-82 0 -123.5 37t-41.5 96q0 49 28 103t77.5 99.5t115 73.5t135.5 28q37 0 67 -8l-2 34q0 61 22 119.5t58 103t77.5 70t76.5 25.5q16 0 31 -6zM520 206q22 -30 53 -46q39 47 82.5 119t71.5 153t28 142q0 79 -46 99q-15 5 -27 5q-32 0 -68.5 -26t-68 -71
t-50.5 -102.5t-19 -116.5l2 -43q47 -28 47 -81q0 -14 -5 -32zM196 -54h-1q65 0 129 24t126 71t117 112q-29 11 -54 33q-12 -29 -36 -57.5t-57.5 -51t-75.5 -35.5t-88 -13q-41 0 -63.5 12t-29.5 39l3 1q5 -31 69 -31q43 0 93.5 15t99.5 53t71 82q-22 26 -35.5 60.5
t-17.5 66.5q-24 7 -63 7q-69 0 -132.5 -25.5t-110.5 -66.5t-73 -89t-26 -91q0 -30 16.5 -58t53 -43t85.5 -15zM509 223q4 13 4 30t-8 33.5t-26 26.5q6 -51 30 -90z" />
    <glyph glyph-name="Icircumflex" unicode="&#xce;" horiz-adv-x="670" 
d="M822 766h-4l-41 64l-62 -64h-5l52 71l17 -1l17 1zM709 679q25 -11 38.5 -40t13.5 -70q0 -85 -48 -201.5t-122 -215.5q27 -9 60 -9v-4q-34 -1 -64 8q-39 -52 -85 -96t-96.5 -77t-106 -51.5t-111.5 -18.5q-82 0 -123.5 37t-41.5 96q0 49 28 103t77.5 99.5t115 73.5
t135.5 28q37 0 67 -8l-2 34q0 61 22 119.5t58 103t77.5 70t76.5 25.5q16 0 31 -6zM520 206q22 -30 53 -46q39 47 82.5 119t71.5 153t28 142q0 79 -46 99q-15 5 -27 5q-32 0 -68.5 -26t-68 -71t-50.5 -102.5t-19 -116.5l2 -43q47 -28 47 -81q0 -14 -5 -32zM196 -54h-1
q65 0 129 24t126 71t117 112q-31 12 -54 33q-12 -29 -36 -57.5t-57.5 -51t-75.5 -35.5t-88 -13q-41 1 -63.5 13t-29.5 38l3 1q5 -31 69 -31q43 0 93.5 15t99.5 53t71 82q-22 26 -35.5 60.5t-17.5 66.5q-24 7 -63 7q-69 0 -132.5 -25.5t-110.5 -66.5t-73 -89t-26 -91
q0 -30 16 -58t53 -43t86 -15zM509 223q4 13 4 30t-8 33.5t-26 26.5q3 -23 11 -47.5t19 -42.5z" />
    <glyph glyph-name="Idieresis" unicode="&#xcf;" horiz-adv-x="671" 
d="M721 745q-9 0 -9 11l3 11q4 8 10.5 14t12.5 6q9 0 9 -11l-3 -12q-3 -8 -10 -13.5t-13 -5.5zM821 787v-1q9 0 9 -10l-3 -12q-3 -8 -10 -13.5t-13 -5.5q-9 0 -9 11l3 11q4 8 10.5 14t12.5 6zM709 679q25 -11 38.5 -40t13.5 -70q0 -85 -48 -201.5t-122 -215.5q30 -10 60 -10
v-4q-34 0 -64 8q-39 -51 -85 -95.5t-96.5 -77t-106 -51.5t-111.5 -19q-82 1 -123.5 38t-41.5 96q0 49 28 103t77.5 99.5t115 73.5t135.5 28q39 0 67 -9l-2 34q0 62 22 120.5t58 103t77.5 70t76.5 25.5q16 0 31 -6zM520 206q22 -30 53 -46q39 47 82.5 119t71.5 153t28 142
q0 79 -47 99q-13 5 -26 5q-32 0 -68.5 -26t-68 -71t-50.5 -102.5t-19 -116.5l2 -43q47 -28 47 -81q0 -14 -5 -32zM195 -54q38 0 83.5 10t98.5 37.5t103.5 72t86.5 86.5q-32 14 -54 34q-12 -29 -36 -57.5t-57.5 -51t-75.5 -35.5t-88 -13q-41 0 -63.5 12t-29.5 39l2 1
q7 -33 70 -31q43 0 93.5 15t99.5 53t71 82q-23 26 -36 60t-17 67q-30 7 -64 7q-69 0 -132 -25.5t-110 -66.5t-73 -89t-26 -91q0 -31 16 -59t52.5 -42.5t85.5 -14.5zM509 223h-1q5 13 5 30t-8 33.5t-26 26.5q6 -51 30 -90z" />
    <glyph glyph-name="Eth" unicode="&#xd0;" horiz-adv-x="784" 
d="M957 627h-1q0 -11 -10 -11q-7 0 -15 8.5t-8 18.5h-10q-29 0 -67.5 -23t-79.5 -62q47 -63 47 -154q0 -53 -23.5 -122t-81 -139t-127 -110t-128.5 -54t-111 -14q-65 0 -215 15q-64 -15 -139 -15q-19 0 -35.5 5t-16.5 17q0 10 16 19t39 9q38 0 146 -20q81 30 160 94.5
t165 164.5l-60 -6q-3 0 -9.5 2t-6.5 9q0 4 5 7t12 3l67 -5l90 111q92 118 180 187q-26 38 -71 60t-106 22l-24 -1q4 -15 4 -37q0 -27 -8.5 -66t-31.5 -93t-60.5 -108t-73.5 -88l23 -13l-1 -2l-23 13q-45 -42 -96 -67t-102 -25q-32 0 -56.5 16.5t-33.5 41t-9 45.5
q0 69 29.5 131t85.5 115.5t136 90.5q22 42 57.5 70t79.5 33q31 3 51 -10.5t28 -39.5h15q66 0 117 -20.5t84 -56.5q49 38 90.5 56.5t69.5 18.5q20 0 31.5 -5.5t11.5 -15.5zM469 692h-1q-37 -4 -69.5 -27t-55.5 -59q43 18 94 29.5t96 13.5q-15 49 -64 43zM537 611q0 17 -3 32
q-106 -9 -209 -69q-15 -32 -23.5 -71.5t-8.5 -74.5q0 -53 18 -99.5t53 -74.5q54 53 94.5 123.5t59.5 129.5t19 104zM170 161h-1q50 0 99.5 24.5t93.5 66.5q-37 29 -56.5 80t-19.5 110q0 65 21 120q-38 -25 -75.5 -60t-65 -77.5t-42.5 -90t-15 -97.5q0 -24 8.5 -42.5
t23.5 -26t29 -7.5zM342 -32q56 0 108.5 17t104.5 51t96.5 84t74.5 108t41 108.5t11 84.5q0 32 -7 64t-20 57q-27 -27 -69 -80q-91 -121 -152 -195q18 3 37 3q6 0 9.5 -3t3.5 -7t-3.5 -7t-9.5 -3l-49 4q-88 -103 -174 -169t-181 -96q120 -21 179 -21zM-12 -32q55 0 111 14
q-85 10 -133 10q-11 0 -18 -3t-7 -7q0 -5 12.5 -9.5t34.5 -4.5z" />
    <glyph glyph-name="Ntilde" unicode="&#xd1;" horiz-adv-x="1120" 
d="M1383 791q-18 -34 -33 -48t-34 -14q-18 0 -42.5 21.5t-33 24.5t-12.5 3q-20 0 -42 -39l-2 1q10 20 23 35t31 15q15 0 44.5 -23t45.5 -23q26 0 53 49zM1279 600l-1 -1q12 0 19 -2.5t8 -12.5q0 -2 -2 -5.5t-8 -3.5q-4 0 -7 3.5t-4 10.5q0 7 -5 7q-19 0 -50.5 -19t-82.5 -76
t-108 -137.5t-117.5 -171.5t-87.5 -131t-43 -58.5t-22 -18.5t-13 9.5t-7 22.5q0 18 8 47q11 41 37.5 99.5t58.5 118.5t97.5 177t64.5 130q0 8 -6 8q-10 0 -34 -21.5t-115.5 -140.5t-147.5 -184q-149 -176 -278 -261.5t-243 -85.5q-33 0 -65 8t-56.5 28t-39.5 50.5t-15 73.5
q0 47 21.5 99.5t55.5 92t65 63.5q-19 21 -28 48.5t-9 51.5q0 37 16 75t50.5 70t90.5 51.5t130 19.5q65 0 170 -32.5t141.5 -38t58.5 -5.5q94 0 196 44l1 -2q-105 -45 -196 -45q-60 0 -183.5 27t-187.5 27q-53 0 -105 -11t-92 -36t-64 -62t-24 -82q0 -55 43 -95
q102 74 236 74q68 0 100 -28t32 -70q0 -34 -19.5 -71.5t-55 -70t-84 -52t-101.5 -19.5q-35 0 -63.5 13.5t-27.5 37.5h2q3 -10 17 -19t69 -9q39 0 83 12.5t87.5 43t66 70t22.5 70.5q0 39 -32.5 63.5t-95.5 24.5q-65 0 -125 -20t-107 -54q55 -47 149 -47q32 0 71 6v-2
q-51 -13 -94 -13q-44 0 -78 13.5t-56 36.5q-29 -22 -60 -57.5t-51 -83t-20 -88.5q0 -61 41.5 -99.5t122.5 -38.5q7 0 26.5 1t64.5 10t110 41t132.5 85.5t129 118t106.5 119t87 108t62.5 79.5t38.5 46t32.5 33t25.5 13q5 0 11.5 -5.5t6.5 -19.5q0 -33 -23 -94.5t-62 -137
t-101 -187t-73 -139.5q-4 -9 -4 -19t5 -10q7 0 29 28t109 160t129 189.5t69.5 91.5t56 65t60.5 54.5t58 23.5z" />
    <glyph glyph-name="Ograve" unicode="&#xd2;" horiz-adv-x="553" 
d="M507 863q5 -17 26.5 -35.5t56.5 -33.5t56 -15v-2q-22 0 -62 14t-68 32.5t-34 38.5v4q0 2 2 6t9 3q11 -2 14 -12zM605 523q12 -11 19 -31t7 -44q0 -39 -19.5 -99.5t-65 -132t-97.5 -124t-106 -88t-108.5 -52t-102.5 -16.5q-68 0 -102.5 41t-34.5 109q0 56 23 125.5
t65 137.5t96 122.5t111.5 90t116 52t112.5 16.5q44 0 67.5 -21.5t23.5 -53.5q0 -18 -5 -32zM132 -54v-1q34 0 79.5 12t102.5 49.5t111 98t93.5 126.5t62.5 128.5t23 107.5q0 25 -7 39q-18 -37 -62.5 -63t-104.5 -26q-41 0 -70 13q-48 -49 -82.5 -106.5t-39.5 -97.5l-2 -16
q0 -21 10 -33t30 -12q26 0 49.5 23.5t26.5 47.5v6q0 4 2.5 5.5t3.5 -2.5q0 -5 -4 -9q-2 -26 -25.5 -49t-52.5 -24h-1q-31 0 -46.5 18.5t-15.5 49.5q0 47 33 109t85 109q-23 25 -19 61h1q-1 -18 4 -34t15 -26q33 30 70 49q32 17 73 29.5t75 12.5q28 0 46 -12q5 13 5 28
q0 30 -21.5 49t-61.5 19q-47 0 -100 -17.5t-115.5 -62.5t-126.5 -128.5t-103.5 -180t-39.5 -169.5q0 -55 25 -88t74 -33zM592 517q-15 18 -39 18q-44 0 -95.5 -29t-96.5 -75q28 -11 62 -11q30 0 64.5 10t63 34.5t41.5 52.5z" />
    <glyph glyph-name="Oacute" unicode="&#xd3;" horiz-adv-x="553" 
d="M636 875q5 0 8 -3.5t1 -9.5q-5 -16 -29 -34.5t-68 -34.5t-66 -16v2q31 0 80 26.5t58 57.5q5 12 16 12zM605 523q12 -11 19 -31t7 -44q0 -39 -19.5 -99.5t-65 -132t-97.5 -124t-106 -88t-108.5 -52t-102.5 -16.5q-68 0 -102.5 41t-34.5 109q0 39 13.5 94.5t49 124
t88.5 130.5t114 106t126.5 66.5t132.5 22.5q44 0 67.5 -21.5t23.5 -53.5q0 -18 -5 -32zM132 -54v-1q34 0 79.5 12t102.5 49.5t111 98t93.5 126.5t62.5 128.5t23 107.5q0 24 -6 39q-14 -27 -42 -49t-62 -31t-63 -9q-42 0 -71 13q-48 -49 -82.5 -106.5t-39.5 -97.5l-2 -16
q0 -21 10 -33t30 -12q26 0 49.5 23.5t26.5 48.5v5q0 4 2.5 5.5t3.5 -1.5q0 -6 -4 -10q-2 -26 -25.5 -49t-52.5 -24h-1q-31 0 -46.5 18.5t-15.5 49.5q0 47 33 109t85 109q-23 25 -19 61h1q-1 -18 4 -34t15 -26q33 30 70 49q32 17 73 29.5t75 12.5q28 0 46 -12q5 13 5 28
q0 30 -21.5 49t-61.5 19q-47 0 -100 -17.5t-115.5 -62.5t-126.5 -128.5t-103.5 -180t-39.5 -169.5q0 -55 25 -88t74 -33zM592 517q-15 18 -39 18q-44 0 -95.5 -29t-96.5 -75q28 -11 62 -11q30 0 64.5 10t63 34.5t41.5 52.5z" />
    <glyph glyph-name="Ocircumflex" unicode="&#xd4;" horiz-adv-x="553" 
d="M486 758h-4l52 71l16 -1l17 1l27 -71h-5l-40 63zM605 523q12 -11 19 -31t7 -44q0 -39 -19.5 -99.5t-65 -132t-97.5 -124t-106 -88t-108.5 -52t-102.5 -16.5q-68 0 -102.5 41t-34.5 109q0 39 13.5 94.5t49 124t88.5 130.5t114 106t126.5 66.5t132.5 22.5q44 0 67.5 -21.5
t23.5 -53.5q0 -18 -5 -32zM132 -54v-1q34 0 79.5 12t102.5 49.5t111 98t93.5 126.5t62.5 128.5t23 107.5q0 25 -7 39q-18 -37 -62.5 -63t-104.5 -26q-41 0 -70 13q-48 -49 -82.5 -106.5t-39.5 -97.5l-2 -15q0 -46 40 -46q26 0 49.5 23.5t26.5 48.5v5q0 4 2.5 5.5t3.5 -1.5
q0 -6 -4 -10q-2 -26 -25.5 -49t-52.5 -24h-1q-31 0 -46.5 18.5t-15.5 49.5q0 47 33 109t85 109q-23 25 -19 61h1q-1 -18 4 -34t15 -26q33 30 70 49q32 17 73 29.5t75 12.5q28 0 46 -12q5 13 5 28q0 30 -21.5 49t-61.5 19q-47 0 -100 -17.5t-115.5 -62.5t-126.5 -128.5
t-103.5 -180t-39.5 -169.5q0 -55 25 -88t74 -33zM592 517q-15 18 -39 18q-44 0 -95.5 -29t-96.5 -75q28 -11 62 -11q30 0 64.5 10t63 34.5t41.5 52.5z" />
    <glyph glyph-name="Otilde" unicode="&#xd5;" horiz-adv-x="553" 
d="M487 769q-21 0 -42 -39l-2 2q14 26 26.5 37.5t27.5 11.5t44.5 -22.5t44.5 -22.5q28 0 54 48l2 -2q-23 -41 -37.5 -51t-29.5 -10q-18 0 -42.5 21t-33 24t-12.5 3zM605 523q12 -11 19 -31t7 -44q0 -39 -19.5 -99.5t-65 -132t-97.5 -124t-106 -88t-108.5 -52t-102.5 -16.5
q-68 0 -102.5 41t-34.5 109q0 39 13.5 94.5t49 124t88.5 130.5t114 106t126.5 66.5t132.5 22.5q44 0 67.5 -21.5t23.5 -53.5q0 -18 -5 -32zM132 -54v-1q34 0 79.5 12t102.5 49.5t111 98t93.5 126.5t62.5 128.5t23 107.5q0 24 -6 39q-14 -27 -42 -49t-62 -31t-63 -9
q-42 0 -71 13q-48 -49 -82.5 -106.5t-39.5 -97.5l-2 -16q0 -21 10 -33t30 -12q26 0 49.5 23.5t26.5 47.5v6q0 4 2.5 5.5t3.5 -2.5q0 -5 -4 -9q-2 -26 -25.5 -49t-52.5 -24h-1q-31 0 -46.5 18.5t-15.5 49.5q0 47 33 109t85 109q-23 25 -19 61h1q-1 -18 4 -34t15 -26
q33 30 70 49q32 17 73 29.5t75 12.5q28 0 46 -12q5 13 5 28q0 30 -21.5 49t-61.5 19q-47 0 -100 -17.5t-115.5 -62.5t-126.5 -128.5t-103.5 -180t-39.5 -169.5q0 -55 25 -88t74 -33zM592 517q-15 18 -39 18q-44 0 -95.5 -29t-96.5 -75q28 -11 62 -11q30 0 64.5 10t63 34.5
t41.5 52.5z" />
    <glyph glyph-name="Odieresis" unicode="&#xd6;" horiz-adv-x="553" 
d="M492 737v-1q-9 0 -9 11l3 12q3 7 10.5 13t12.5 6q9 0 9 -11l-3 -11q-3 -8 -10 -13.5t-13 -5.5zM576 736h-1q-1 0 -4.5 2t-3.5 9l3 12q3 8 10 13.5t13 5.5q4 0 6.5 -3t2.5 -8l-3 -11q-3 -8 -10.5 -14t-12.5 -6zM605 523q12 -11 19 -31.5t7 -43.5q0 -39 -19.5 -99.5
t-65 -132t-97.5 -124t-106 -88t-108.5 -52t-102.5 -16.5q-68 0 -102.5 41t-34.5 109q0 56 23 125.5t65 137.5t96 122.5t111.5 90t116 52t112.5 16.5q44 0 67.5 -21.5t23.5 -53.5q0 -14 -5 -32zM132 -54v-1q34 0 79.5 12t102.5 49.5t111 98t93.5 126.5t62.5 128.5t23 107.5
q0 24 -7 39q-14 -27 -42 -49t-62 -31t-63 -9q-41 0 -70 13q-48 -50 -82.5 -107t-40.5 -97l-1 -16q0 -21 10 -33t30 -12q26 0 49.5 23.5t26.5 47.5v6q0 4 2.5 5.5t3.5 -2.5q0 -5 -4 -9q-2 -26 -25.5 -49t-52.5 -24h-1q-31 0 -46.5 18.5t-15.5 49.5q0 47 32.5 109t85.5 109
q-23 25 -19 61h1q-1 -18 4 -34t15 -26q33 30 70 49q33 17 73 29.5t75 12.5q25 0 46 -12q5 15 5 28q0 29 -21.5 48.5t-61.5 19.5q-47 0 -100 -17.5t-115.5 -62.5t-126.5 -128.5t-103.5 -180t-39.5 -169.5q0 -55 25 -88t74 -33zM591 517q-13 18 -38 18q-45 0 -95.5 -29
t-96.5 -75q28 -11 62 -11q30 0 64.5 10t63 34t40.5 53z" />
    <glyph glyph-name="multiply" unicode="&#xd7;" horiz-adv-x="428" 
d="M261 285l113 -157l-4 -3l-112 157l-169 -158l-2 3l169 158l-114 158l3 3l114 -158l167 157l3 -3z" />
    <glyph glyph-name="Oslash" unicode="&#xd8;" horiz-adv-x="553" 
d="M605 523q12 -11 19 -31t7 -44q0 -39 -19.5 -99.5t-65 -132t-97.5 -124t-106 -88t-108.5 -52t-102.5 -16.5q-30 0 -51 7l-33 -46l-13 2l35 48q-37 16 -56 53t-19 86q0 39 13.5 94.5t49 124t88.5 130.5t114 106t126.5 66.5t132.5 22.5q24 0 42 -6l36 49l3 -2l-35 -49
q22 -9 34 -27t12 -40q0 -15 -6 -32zM33 67q0 -80 45 -108l157 216q-21 17 -21 56q0 47 32.5 109t85.5 109q-23 23 -20 61h1q-1 -18 4 -34t15 -26q37 32 70 49q51 26 94 35l61 85q-16 6 -39 6q-47 0 -100 -17.5t-115.5 -62.5t-126.5 -128.5t-103.5 -180t-39.5 -169.5z
M601 557q0 20 -10.5 36t-29.5 24l-58 -81q27 5 47 5q25 0 46 -12q5 15 5 28zM421 420h2q30 0 64.5 10t63 34.5t41.5 52.5q-13 18 -39 18q-27 0 -58 -11zM361 431q11 -5 26.5 -7.5t25.5 -3.5l72 100q-29 -12 -62.5 -36.5t-61.5 -52.5zM132 -55q34 0 79.5 12t102.5 49.5
t111 98t93.5 126.5t62.5 128.5t23 107.5q0 24 -7 39q-14 -27 -42 -49.5t-62 -31.5t-63 -9l-12 1l-171 -241q10 -12 29 -12q13 0 29.5 8.5t30 27t15.5 36.5l1 6q0 4 2.5 5t3.5 -2q0 -5 -4 -9q-2 -26 -26 -49.5t-52 -23.5h-1q-21 0 -32 7l-155 -217q21 -8 44 -8zM236 210
q0 -14 5 -26l170 233q-30 3 -51 12q-49 -49 -83.5 -106t-39.5 -97z" />
    <glyph glyph-name="Ugrave" unicode="&#xd9;" horiz-adv-x="849" 
d="M956 785q-33 0 -93.5 27.5t-69.5 58.5l-1 4q0 5 3.5 7.5t7.5 1.5q12 -2 15 -13q7 -23 38 -44.5t59 -30.5t41 -9v-2zM661 -92l-1 -1q30 0 58.5 19t44.5 53h1q-26 -75 -104 -75q-24 0 -43.5 11.5t-29 37.5t-9.5 53q0 55 32 127.5t94 168.5q-130 -177 -213 -261.5
t-131 -84.5q-28 0 -46.5 15.5t-18.5 47.5q0 31 19 65.5t45 66t98 111t101.5 126.5t40.5 78.5t13 51.5t2 27q0 24 -7 46t-21.5 41.5t-45.5 35.5t-81 16q-34 0 -76.5 -9.5t-83 -34t-75.5 -63.5t-56.5 -91.5t-21.5 -98.5q0 -51 28.5 -83.5t83.5 -32.5q50 0 90.5 15.5t68.5 41.5
t42 58t14 64q0 37 -23.5 57t-58.5 20q-24 0 -50 -9t-47 -25l-3 4q22 16 52.5 25.5t57.5 9.5q32 0 58.5 -12t37 -31.5t10.5 -38.5q0 -23 -13 -52.5t-48 -62t-86.5 -50.5t-101.5 -18q-74 0 -114.5 41t-40.5 103q0 47 22 96t66.5 90t113 66t154.5 25q51 0 91.5 -19.5t66.5 -54
t26 -74.5q0 -64 -29 -126t-69.5 -115.5t-119.5 -139t-94.5 -112t-15.5 -42.5q0 -18 8.5 -30t37.5 -12q32 0 80 39.5t110.5 112t209.5 271.5q58 84 173 241q6 -10 18 -10q10 0 24.5 7.5t24.5 17.5q-1 -1 -4 -5t-43.5 -57t-95.5 -129t-113 -165t-99.5 -172t-41.5 -129
q0 -23 6.5 -42t21 -27t29.5 -8z" />
    <glyph glyph-name="Uacute" unicode="&#xda;" horiz-adv-x="849" 
d="M956 871h-1q-9 -31 -69 -58.5t-94 -27.5v2q13 0 41 9t59.5 30.5t38.5 44.5q1 6 6 9.5t10 3.5t7.5 -3.5t1.5 -9.5zM661 -92l-1 -1q30 0 58.5 19t44.5 53h1q-26 -75 -104 -75q-24 0 -43.5 11.5t-29 37.5t-9.5 53q0 42 24 108.5t102 187.5q-129 -176 -212.5 -260.5
t-131.5 -84.5q-28 0 -46.5 15.5t-18.5 46.5t19 65.5t45 66t98 111t101.5 126.5t40.5 78.5t13 51.5t2 27q0 24 -7 46t-21.5 41.5t-45.5 35.5t-81 16q-34 0 -76.5 -9.5t-83 -34t-75.5 -63.5t-56.5 -91.5t-21.5 -98.5q0 -51 28.5 -83.5t83.5 -32.5q50 0 90.5 15.5t68.5 41.5
t42 58t14 64q0 37 -23.5 57t-58.5 20q-24 0 -50 -9t-47 -25l-3 4q22 16 52.5 25.5t57.5 9.5q32 0 58.5 -12t37 -31.5t10.5 -38.5q0 -23 -13 -52.5t-48 -62t-86.5 -50.5t-101.5 -18q-74 0 -114.5 41t-40.5 103q0 34 14.5 77.5t53.5 87.5t92 70t103.5 34.5t92.5 8.5
q31 0 63 -9t59 -29t44.5 -49t17.5 -62q0 -79 -47.5 -163t-132 -175.5t-103.5 -114t-32 -44.5t-13 -38q0 -18 8.5 -30t37.5 -12q32 0 80 39.5t110.5 112t209.5 271.5q58 84 173 241q6 -10 18 -10q10 0 24.5 7.5t24.5 18.5q-1 -1 -4.5 -6t-55 -73t-113 -155t-111.5 -167
t-81.5 -148t-31.5 -108q0 -34 13 -56t44 -22z" />
    <glyph glyph-name="Ucircumflex" unicode="&#xdb;" horiz-adv-x="849" 
d="M797 766h-5l52 71l17 -1l16 1l27 -71h-4l-41 64zM661 -92l-1 -1q30 0 58.5 19t44.5 53h1q-26 -75 -104 -75q-24 0 -43.5 11.5t-29 37.5t-9.5 53q0 42 24 108.5t102 187.5q-129 -176 -212.5 -260.5t-131.5 -84.5q-28 0 -46.5 15.5t-18.5 46.5t19 65.5t45 66t98 111
t101.5 126.5t40.5 78.5t13 51.5t2 27q0 24 -7 46t-21.5 41.5t-45.5 35.5t-81 16q-34 0 -76.5 -9.5t-83 -34t-75.5 -63.5t-56.5 -91.5t-21.5 -98.5q0 -51 28.5 -83.5t83.5 -32.5q50 0 90.5 15.5t68.5 41.5t42 58t14 64q0 37 -23.5 57t-58.5 20q-24 0 -50 -9t-47 -25l-3 4
q22 16 52.5 25.5t57.5 9.5q32 0 58.5 -12t37 -31.5t10.5 -38.5q0 -23 -13 -52.5t-48 -62t-86.5 -50.5t-101.5 -18q-74 0 -114.5 41t-40.5 103q0 34 14.5 77.5t53.5 87.5t92 70t103.5 34.5t92.5 8.5q31 0 63 -9t59 -29t44.5 -49t17.5 -62q0 -79 -47.5 -163t-132 -175.5
t-103.5 -114t-32 -44.5t-13 -38q0 -18 8.5 -30t37.5 -12q32 0 80 39.5t110.5 112t209.5 271.5q58 84 173 241q6 -10 18 -10q10 0 24.5 7.5t24.5 18.5q-1 -1 -4.5 -6t-55 -73t-113 -155t-111.5 -167t-81.5 -148t-31.5 -108q0 -34 13 -56t44 -22z" />
    <glyph glyph-name="Udieresis" unicode="&#xdc;" horiz-adv-x="849" 
d="M803 745q-9 0 -9 11l3 11q4 8 10.5 14t12.5 6q9 0 9 -11l-3 -12q-3 -8 -10 -13.5t-13 -5.5zM886 745q-9 0 -9 11l3 11q3 8 10 13.5t13 5.5q9 0 9 -10l-3 -12q-3 -8 -10 -13.5t-13 -5.5zM661 -93h-1q30 0 58.5 19t44.5 53h1q-28 -75 -104 -75q-24 0 -43.5 11.5t-29 37.5
t-9.5 53q0 55 32 127.5t94 168.5q-130 -177 -213 -261.5t-131 -84.5q-28 0 -47 15.5t-19 47.5q0 13 4.5 30.5t16 38t31.5 47t102 116.5t111 136t42 83.5t13 73.5q0 34 -15.5 67.5t-52.5 53t-87 19.5q-53 0 -101 -16.5t-85 -44.5t-63.5 -63.5t-42 -74t-18.5 -64.5t-3 -35
q0 -37 15.5 -64.5t41 -39t54.5 -11.5q37 0 75.5 10.5t69.5 34.5t51 59t20 75q0 37 -23.5 57t-58.5 20q-23 0 -49.5 -9.5t-47.5 -24.5l-3 4q22 16 52.5 25.5t57.5 9.5q32 0 58.5 -12t37 -31.5t10.5 -38.5q0 -23 -13 -52.5t-48 -62t-86.5 -50.5t-101.5 -18q-74 0 -114.5 41
t-40.5 103q0 47 22 96t66.5 90t113 66t154.5 25q51 0 91.5 -19.5t66.5 -54t26 -74.5q0 -64 -29 -126t-69.5 -115.5t-119.5 -139t-94.5 -112t-15.5 -42.5q0 -18 8.5 -30t36.5 -12q32 0 80.5 39.5t112.5 113.5t208 270q58 84 173 241q6 -10 18 -10q10 0 24.5 7.5t24.5 17.5
q-1 -1 -4 -5t-43.5 -57t-95.5 -129t-113 -165t-99.5 -172t-41.5 -129q0 -23 6.5 -42t21 -27.5t29.5 -8.5z" />
    <glyph glyph-name="Yacute" unicode="&#xdd;" horiz-adv-x="861" 
d="M930 871q-9 -31 -69.5 -58.5t-93.5 -27.5v2q13 0 41 9t59 30.5t38 44.5q1 6 6 9.5t10 3.5t7.5 -3.5t1.5 -9.5zM926 563v-1q7 0 12.5 -5t5.5 -12q0 -9 -9 -19.5t-34 -26t-30 -21.5h-1q-53 -72 -151.5 -246t-138.5 -237.5t-58 -88.5q38 -10 81.5 -30.5t72.5 -54.5t29 -78
q0 -8 -2 -11q-4 4 -4 13q0 34 -21.5 62.5t-63.5 51t-100 36.5q-103 -144 -200.5 -207t-195.5 -63q-61 0 -101 29t-40 87q0 33 20.5 66.5t68 60.5t118.5 43.5t158 16.5q80 0 152 -15q44 54 96.5 131t129 205t93.5 155q-166 -215 -257.5 -296.5t-145.5 -81.5q-14 0 -25 12
t-11 30q0 33 19.5 73t86.5 113.5t87.5 100.5t35 51t24.5 49.5t13.5 48.5t3.5 41q0 139 -175 139q-53 0 -109 -19t-103.5 -61t-71.5 -86.5t-31.5 -77t-7.5 -53.5q0 -51 28.5 -83.5t83.5 -32.5q50 0 90.5 15.5t68.5 41.5t42 58t14 64q0 37 -23.5 57t-58.5 20q-22 0 -49 -9
t-48 -24l-3 3q22 16 52.5 25.5t57.5 9.5q32 0 58.5 -12t37 -31.5t10.5 -38.5q0 -23 -13 -52.5t-48 -62t-86.5 -50.5t-101.5 -18q-27 0 -54 7.5t-51.5 27.5t-35 50.5t-10.5 57.5q0 46 23.5 95.5t69.5 91t115 67t154 25.5q64 0 110 -18.5t72 -51.5t26 -74q0 -44 -15 -93.5
t-50.5 -105t-97.5 -124t-82 -93.5t-28.5 -44t-8.5 -32q0 -23 15 -23q42 0 101 46t115 109t97.5 115t85.5 109t57 74q3 4 14.5 31t22.5 38t23 11zM124 -324q173 0 360 225q-68 13 -148 13q-66 0 -128.5 -10t-112 -29t-78.5 -47.5t-29 -63.5q0 -20 20.5 -43.5t52 -34
t63.5 -10.5z" />
    <glyph glyph-name="Thorn" unicode="&#xde;" horiz-adv-x="983" 
d="M1123 682q12 0 19 -2.5t7 -12.5q0 -3 -3.5 -6.5t-7.5 -3.5q-10 0 -10 15q0 7 -5 7q-48 0 -106 -44.5t-129 -124.5q43 -23 66 -58.5t23 -75.5q0 -42 -26 -85t-78.5 -78t-131 -56.5t-177.5 -22.5q-47 -48 -112 -102.5t-142 -91t-155 -36.5q-81 0 -122 39t-41 102
q0 46 21.5 97.5t61.5 99.5t97 85.5t123 55.5q32 42 91.5 80.5t148.5 60t189 21.5q89 0 154 -30q53 58 96 94.5t79.5 54.5t69.5 18zM161 -54q50 0 113 18.5t143 73.5t159 136t172 190t125 145q-53 31 -147 31q-69 0 -142.5 -14.5t-136.5 -50t-101 -82.5q40 4 61 4q33 0 62 -9
t46 -30t17 -49q0 -34 -22 -73.5t-61 -73.5t-90.5 -55t-106.5 -21q-24 0 -47 7t-32 19.5t-8 24.5h3q2 -10 15 -19t68 -9q54 0 105 19.5t89.5 50.5t60 67t21.5 67q0 35 -30 57.5t-90 22.5q-30 0 -65 -5q-26 -33 -39 -68t-13 -65q0 -39 19.5 -63t54.5 -24l3 -4
q-54 0 -84.5 29.5t-30.5 75.5q0 24 10.5 53t28.5 54q-61 -17 -114 -52t-90.5 -78.5t-58 -90t-20.5 -86.5q0 -55 38.5 -89t114.5 -34zM936 406q0 29 -13.5 54.5t-40.5 43.5q-16 -18 -134 -160t-180 -206q38 1 85.5 10.5t95 31.5t84.5 51.5t61 63t33 62.5t9 49z" />
    <glyph glyph-name="germandbls" unicode="&#xdf;" horiz-adv-x="314" 
d="M209 345h-1q-11 0 -9 -13q2 -19 18.5 -60t23 -67t6.5 -49q0 -30 -9 -59.5t-32.5 -54.5t-55 -35t-55.5 -10q-31 0 -48.5 17t-17.5 43q0 7 6 9t6 -4q0 -4 -3.5 -7.5t-3.5 -6.5q0 -9 7 -20.5t19 -17.5t24 -6q41 0 68.5 22.5t41 61t13.5 80.5q0 35 -3.5 83t-11.5 82
q-2 9 3.5 14t25.5 5q26 0 62 21.5t71 68.5t35 78q0 11 -7 18t-20 7q-30 0 -66.5 -31.5t-78.5 -88.5t-157.5 -241t-180.5 -262.5t-121.5 -118t-109.5 -39.5q-12 0 -24 3v4q11 -3 22 -3q30 0 63.5 17t75.5 60t88.5 113.5t123.5 201.5t119 193l-27 -1l-32 -1q-6 0 -8 4q3 5 8 5
l34 -1l29 -1q71 102 130 146.5t112 44.5q33 0 49.5 -13t16.5 -35q0 -16 -10.5 -39.5t-40 -53t-72 -46.5t-84.5 -17h-12z" />
    <glyph glyph-name="agrave" unicode="&#xe0;" horiz-adv-x="336" 
d="M259 580q5 -16 26 -35t56 -34t56 -15v-2q-33 0 -93.5 27.5t-69.5 58.5l-1 4q0 5 4 7.5t8 1.5q11 -2 14 -13zM371 343q-22 -31 -72 -98.5t-51 -68.5q-79 -105 -96.5 -131t-17.5 -35q0 -6 6 -6q28 0 89.5 58.5t109.5 124.5h5q-49 -68 -111.5 -127.5t-91.5 -59.5
q-12 0 -18 10t-6 21q0 30 50 101q-47 -54 -96 -94t-69 -40q-14 0 -23.5 14.5t-9.5 38.5q0 36 25.5 90.5t70 100.5t84.5 65t72 19q19 0 30 -10t11 -28q0 -24 -24 -62l77 102q5 -8 16 -8q9 0 21 7t19 16zM2 2q23 0 87.5 57t116.5 127t52 102q0 16 -9 23.5t-21 7.5
q-17 0 -40 -12.5t-42 -30.5q-24 -23 -52.5 -60.5t-50.5 -72.5q-23 -39 -37.5 -73t-14.5 -54q0 -14 11 -14z" />
    <glyph glyph-name="aacute" unicode="&#xe1;" horiz-adv-x="336" 
d="M388 593q5 0 7.5 -3.5t1.5 -9.5q-9 -31 -69.5 -58.5t-94.5 -27.5v2q13 0 41 9t59.5 30.5t38.5 44.5q1 6 6 9.5t10 3.5zM371 343q-21 -31 -123 -167q-79 -105 -96.5 -131t-17.5 -35q0 -6 6 -6q28 0 89.5 58.5t109.5 124.5h5q-49 -68 -111.5 -127.5t-91.5 -59.5
q-12 0 -18 10t-6 21q0 30 50 101q-47 -54 -96 -94t-69 -40q-14 0 -23.5 14.5t-9.5 38.5q0 36 25.5 90.5t70 100.5t84.5 65t72 19q19 0 30 -10t11 -28q0 -24 -24 -62l77 102q5 -8 16 -8q9 0 21 7t19 16zM2 2q23 0 87.5 57t116.5 127t52 102q0 16 -9 23.5t-21 7.5
q-17 0 -40 -12.5t-42 -30.5q-53 -52 -103 -133q-23 -39 -37.5 -73t-14.5 -54q0 -14 11 -14z" />
    <glyph glyph-name="acircumflex" unicode="&#xe2;" horiz-adv-x="336" 
d="M238 475h-5l52 71l17 -1l17 1l26 -71h-4l-40 64zM140 4q28 0 89.5 58.5t109.5 124.5h5q-49 -68 -111.5 -127.5t-91.5 -59.5q-12 0 -18 10t-6 21q0 30 50 101q-47 -54 -96 -94t-69 -40q-14 0 -23.5 14.5t-9.5 38.5q0 36 25.5 90.5t70 100.5t84.5 65t72 19q19 0 30 -10
t11 -28q0 -24 -24 -62l77 102q5 -8 16 -8q9 0 21 7t19 16q-21 -31 -123 -167q-11 -15 -44.5 -59.5t-51.5 -71t-18 -35.5q0 -6 6 -6zM2 2q23 0 87.5 57t116.5 127t52 102q0 16 -9 23.5t-21 7.5q-17 0 -40 -12.5t-42 -30.5q-53 -52 -103 -133q-23 -39 -37.5 -73t-14.5 -54
q0 -14 11 -14z" />
    <glyph glyph-name="atilde" unicode="&#xe3;" horiz-adv-x="336" 
d="M238 487q-20 0 -42 -39l-2 1q11 20 23.5 35t31.5 15q15 0 44.5 -23t44.5 -23q26 0 54 49l2 -2q-19 -34 -33.5 -48t-33.5 -14q-17 0 -46 24.5t-43 24.5zM371 343q-22 -31 -72 -98.5t-51 -68.5q-79 -105 -96.5 -131t-17.5 -35q0 -6 6 -6q28 0 89.5 58.5t109.5 124.5h5
q-49 -68 -111.5 -127.5t-91.5 -59.5q-12 0 -18 10t-6 21q0 30 50 101q-47 -54 -96 -94t-69 -40q-14 0 -23.5 14.5t-9.5 38.5q0 36 25.5 90.5t70 100.5t84.5 65t72 19q19 0 30 -10t11 -28q0 -24 -24 -62l77 102q5 -8 16 -8q9 0 21 7t19 16zM2 2q23 0 87.5 57t116.5 127
t52 102q0 16 -9 23.5t-21 7.5q-17 0 -40 -12.5t-42 -30.5q-53 -52 -103 -133q-23 -39 -37.5 -73t-14.5 -54q0 -14 11 -14z" />
    <glyph glyph-name="adieresis" unicode="&#xe4;" horiz-adv-x="336" 
d="M244 454q-9 0 -9 11l3 11q4 8 10.5 14t12.5 6q9 0 9 -11l-3 -12q-3 -8 -10 -13.5t-13 -5.5zM327 454q-9 0 -9 10q0 6 3 12q3 8 10 13.5t13 5.5q9 0 9 -10l-3 -12q-3 -8 -10 -13.5t-13 -5.5zM140 4q28 0 89.5 58.5t109.5 124.5h5q-49 -68 -111.5 -127.5t-91.5 -59.5
q-12 0 -18 10t-6 21q0 30 50 101q-47 -54 -96 -94t-69 -40q-14 0 -23.5 14.5t-9.5 38.5q0 36 25.5 90.5t70 100.5t84.5 65t72 19q19 0 30 -10t11 -28q0 -24 -24 -62l77 102q5 -8 16 -8q4 0 15.5 4t24.5 19q-21 -31 -123 -167q-79 -105 -96.5 -131t-17.5 -35q0 -6 6 -6zM2 2
q23 0 87.5 57t116.5 127t52 102q0 16 -9 23.5t-21 7.5q-17 0 -40 -12.5t-42 -30.5q-24 -23 -52.5 -60.5t-50.5 -72.5q-23 -38 -37.5 -73t-14.5 -54q0 -14 11 -14z" />
    <glyph glyph-name="aring" unicode="&#xe5;" horiz-adv-x="336" 
d="M232 329q-14 0 -14 14q0 10 8 23q9 15 25 26.5t27 11.5q2 0 8 -2.5t6 -11.5q0 -10 -8 -24q-9 -14 -25 -25.5t-27 -11.5zM236 366q-11 -17 -11 -26q0 -8 9 -8t20 9.5t20 24.5q11 20 11 27q0 8 -9 8q-19 0 -40 -35zM140 4q28 0 89.5 58.5t109.5 124.5h5
q-49 -68 -111.5 -127.5t-91.5 -59.5q-12 0 -18 10t-6 21q0 30 50 101q-47 -54 -96 -94t-69 -40q-14 0 -23.5 14.5t-9.5 38.5q0 36 25.5 90.5t70 100.5t84.5 65t72 19q19 0 30 -10t11 -28q0 -24 -24 -62l77 102q5 -8 16 -8q4 0 15.5 4t24.5 19q-21 -31 -123 -167
q-79 -105 -96.5 -131t-17.5 -35q0 -6 6 -6zM2 2q23 0 87.5 57t116.5 127t52 102q0 16 -9 23.5t-21 7.5q-18 0 -40.5 -12.5t-41.5 -30.5q-24 -23 -52.5 -60.5t-50.5 -72.5q-23 -38 -37.5 -73t-14.5 -54q0 -14 11 -14z" />
    <glyph glyph-name="ae" unicode="&#xe6;" horiz-adv-x="448" 
d="M456 187q-22 -30 -69 -74t-106 -79.5t-95 -35.5q-14 0 -23.5 14.5t-9.5 38.5q0 21 10 50t26 57q-49 -61 -106.5 -110.5t-80.5 -49.5q-14 0 -23.5 14.5t-9.5 38.5q0 36 25.5 90.5t70 100.5t84.5 65t72 19q19 0 30 -10t11 -28q0 -24 -25 -63q41 46 82 71t65.5 29.5
t32.5 4.5q17 0 25.5 -7.5t8.5 -17.5q0 -20 -25 -47.5t-66 -48.5q-24 -12 -53 -20.5t-49 -9.5q-35 -50 -59 -96t-24 -67q0 -14 11 -14q23 0 67 20.5t103.5 69t94.5 95.5h5zM417 327q-17 0 -48 -22.5t-78 -81.5l-31 -41q20 2 48 10.5t50 20.5q34 18 54 46.5t20 48.5
q0 19 -15 19zM2 2q23 0 87.5 57t116.5 127t52 102q0 16 -9 23.5t-21 7.5q-17 0 -40 -12.5t-42 -30.5q-24 -23 -52.5 -60.5t-50.5 -72.5q-23 -39 -37.5 -73t-14.5 -54q0 -14 11 -14z" />
    <glyph glyph-name="ccedilla" unicode="&#xe7;" horiz-adv-x="261" 
d="M271 186q-35 -47 -91 -92.5t-102.5 -70.5t-76.5 -25q-14 0 -23.5 14.5t-9.5 38.5q0 27 16 67.5t57 94t93 85.5t95 32q16 0 25 -9.5t9 -24.5q0 -19 -14 -37t-36 -22l-5 -1q-8 0 -11 8v2q0 3 3.5 6t8.5 3q21 0 34 12.5t13 34.5q0 10 -6.5 17t-20.5 7q-19 0 -52 -26
t-79.5 -85.5t-77 -118t-30.5 -80.5q0 -14 11 -14q23 0 66.5 20t103.5 68.5t95 95.5h5zM9 -31q17 0 25.5 -9.5t6.5 -26.5l-1 -11q-5 -20 -22 -32.5t-35 -12.5q-14 0 -23 8.5t-8 25.5l2 2q1 -11 6.5 -20t17.5 -9t26 11.5t19 25.5q3 8 3 16q0 12 -7.5 20t-19.5 8q-8 0 -17 -3
v-1h-6l23 35h6l-20 -31q12 4 24 4z" />
    <glyph glyph-name="egrave" unicode="&#xe8;" horiz-adv-x="262" 
d="M259 580q5 -16 26 -35t56 -34t56 -15v-2q-33 0 -93.5 27.5t-69.5 58.5l-1 4q0 5 4 7.5t8 1.5q11 -2 14 -13zM1 2q23 0 66.5 20.5t103.5 69t95 95.5h5q-23 -30 -69.5 -74t-105.5 -79.5t-95 -35.5q-14 0 -23.5 14.5t-9.5 38.5q0 36 27.5 91t75 102t88.5 66.5t73 19.5
q17 0 25.5 -7.5t8.5 -17.5q0 -15 -14 -34.5t-36 -35.5t-42 -26q-24 -12 -52.5 -20.5t-49.5 -9.5q-35 -50 -58.5 -96t-23.5 -67q0 -14 11 -14zM232 327q-17 0 -48 -22.5t-79 -81.5l-31 -41q21 2 49 10.5t50 20.5q34 18 54 46.5t20 48.5q0 19 -15 19z" />
    <glyph glyph-name="eacute" unicode="&#xe9;" horiz-adv-x="262" 
d="M388 593q5 0 7.5 -3.5t1.5 -9.5q-9 -31 -69.5 -58.5t-94.5 -27.5v2q13 0 41 9t59.5 30.5t38.5 44.5q1 6 6 9.5t10 3.5zM1 2q23 0 66.5 20.5t103.5 69t95 95.5h5q-23 -30 -69.5 -74t-105.5 -79.5t-95 -35.5q-14 0 -23.5 14.5t-9.5 38.5q0 36 27.5 91t75 102t88.5 66.5
t73 19.5q17 0 25.5 -7.5t8.5 -17.5q0 -20 -25 -47.5t-67 -48.5q-24 -12 -52.5 -20.5t-49.5 -9.5q-35 -49 -58.5 -95.5t-23.5 -67.5q0 -14 11 -14zM232 327q-17 0 -48 -22.5t-79 -81.5l-31 -41q21 2 49 10.5t50 20.5q34 18 54 46.5t20 48.5q0 19 -15 19z" />
    <glyph glyph-name="ecircumflex" unicode="&#xea;" horiz-adv-x="262" 
d="M345 475h-4l-40 64l-63 -64h-5l52 71l17 -1l17 1zM1 2q23 0 66.5 20.5t103.5 69t95 95.5h5q-23 -30 -69.5 -74t-105.5 -79.5t-95 -35.5q-14 0 -23.5 14.5t-9.5 38.5q0 36 27.5 91t75 102t88.5 66.5t73 19.5q17 0 25.5 -7.5t8.5 -17.5q0 -20 -25 -47.5t-67 -48.5
q-24 -12 -52.5 -20.5t-49.5 -9.5q-35 -49 -58.5 -95.5t-23.5 -67.5q0 -14 11 -14zM232 327q-17 0 -48 -22.5t-79 -81.5l-31 -41q21 2 49 10.5t50 20.5q34 18 54 46.5t20 48.5q0 19 -15 19z" />
    <glyph glyph-name="edieresis" unicode="&#xeb;" horiz-adv-x="262" 
d="M244 454q-9 0 -9 11l3 11q4 8 10.5 14t12.5 6q9 0 9 -11l-3 -12q-3 -8 -10 -13.5t-13 -5.5zM344 496v-1q9 0 9 -10l-3 -12q-3 -8 -10 -13.5t-13 -5.5q-9 0 -9 11l3 11q4 8 10.5 14t12.5 6zM1 2q23 0 66.5 20.5t103 69t94.5 95.5h5q-22 -30 -69 -74t-106 -79.5t-94 -35.5
q-14 0 -23.5 14.5t-9.5 38.5q0 36 27.5 91t75 102t88.5 66.5t73 19.5q17 0 25.5 -7.5t8.5 -17.5q0 -15 -14 -34.5t-36 -35.5t-42 -26q-53 -26 -102 -30q-35 -50 -58.5 -96t-23.5 -67q0 -14 11 -14zM232 327q-17 0 -48 -22.5t-79 -81.5l-31 -41q21 2 49 10.5t50 20.5
q34 18 54 46.5t20 48.5q0 8 -4 13.5t-11 5.5z" />
    <glyph glyph-name="igrave" unicode="&#xec;" 
d="M243 575q7 -23 38 -44.5t59 -30.5t41 -9v-2q-14 0 -47 9.5t-71 30.5t-45 45l-1 5q0 4 3.5 6.5t8.5 2.5q11 -2 14 -13zM210 343h-1q-12 -18 -122 -167q-5 -6 -41.5 -54.5t-55 -75.5t-18.5 -36q0 -6 6 -6q28 0 89.5 58.5t109.5 124.5h5q-49 -68 -111.5 -127.5t-91.5 -59.5
q-12 0 -18 10t-6 21q0 13 10.5 36.5t34 56t63.5 84.5l91 120q4 -8 15 -8q10 0 21.5 7t19.5 16z" />
    <glyph glyph-name="iacute" unicode="&#xed;" 
d="M356 575q1 2 4.5 7.5t11.5 5.5q5 0 7.5 -4t1.5 -10q-5 -16 -29.5 -35t-68.5 -34.5t-66 -15.5v2q13 0 41 9t59.5 30.5t38.5 44.5zM210 343h-1q-12 -18 -122 -167q-5 -6 -41.5 -54.5t-55 -75.5t-18.5 -36q0 -6 6 -6q28 0 89.5 58.5t109.5 124.5h5q-49 -68 -111.5 -127.5
t-91.5 -59.5q-12 0 -18 10t-6 21q0 13 10.5 36.5t34 56t63.5 84.5l90 120q5 -8 16 -8q10 0 21.5 7t19.5 16z" />
    <glyph glyph-name="icircumflex" unicode="&#xee;" 
d="M329 470h-5l-40 64l-62 -64h-5l52 71l17 -1l16 1zM210 343h-1q-12 -18 -122 -167q-5 -6 -41.5 -54.5t-55 -75.5t-18.5 -36q0 -6 6 -6q28 0 89.5 58.5t109.5 124.5h5q-49 -68 -111.5 -127.5t-91.5 -59.5q-12 0 -18 10t-6 21q0 13 10.5 36.5t34 56t63.5 84.5l91 120
q4 -8 15 -8q10 0 21.5 7t19.5 16z" />
    <glyph glyph-name="idieresis" unicode="&#xef;" 
d="M245 490q9 0 9 -10q0 -6 -3 -12q-3 -8 -10 -13.5t-13 -5.5q-9 0 -9 10q0 6 3 12q3 8 10 13.5t13 5.5zM328 490q9 0 9 -10q0 -6 -3 -12q-3 -8 -10 -13.5t-13 -5.5q-9 0 -9 10q0 6 3 12q3 8 10 13.5t13 5.5zM209 343q-25 -37 -123 -167q-11 -15 -44.5 -59.5t-51.5 -71
t-18 -35.5q0 -6 6 -6q28 0 89.5 58.5t109.5 124.5h5q-49 -68 -111.5 -127.5t-91.5 -59.5q-12 0 -18 10t-6 21q0 13 10.5 36.5t34 56t63.5 84.5q36 46 90 120q5 -8 16 -8q9 0 21 7t19 16z" />
    <glyph glyph-name="eth" unicode="&#xf0;" horiz-adv-x="315" 
d="M498 610l-1 -1l2 -4q0 -2 -2 -5.5t-5 -5.5l-60 -29q5 -17 5 -34q0 -45 -28 -107.5t-75 -128.5q-56 -76 -129.5 -148.5t-147.5 -119.5q-39 -29 -55 -29q-14 0 -23.5 14.5t-9.5 38.5q0 36 25.5 90.5t70 100.5t84.5 65t72 19q19 0 30 -10t11 -28q0 -35 -51.5 -103
t-112.5 -124q60 48 118.5 114.5t101.5 135.5q39 62 61 121.5t22 102.5v12l-24 -18t-28 -19q-5 -4 -11 -4q-4 0 -8 4l-1 4q0 3 3 7t8 7l60 29q-10 61 -72 61q-4 0 -4 2t4 2q79 0 101 -48q5 3 24 17.5t29 20.5l8 2q4 0 8 -4zM-10 16v-1q0 -14 11 -14q23 0 87.5 57t116.5 127
t52 102q0 16 -8.5 24t-20.5 8q-18 0 -40.5 -12.5t-41.5 -30.5q-24 -23 -52 -59.5t-51 -73.5q-24 -39 -38.5 -73.5t-14.5 -53.5z" />
    <glyph glyph-name="ntilde" unicode="&#xf1;" horiz-adv-x="366" 
d="M247 487q-20 0 -42 -39l-2 1q11 20 23.5 35t31.5 15q15 0 44.5 -23t44.5 -23q26 0 54 49l2 -2q-19 -34 -33.5 -48t-33.5 -14q-17 0 -46 24.5t-43 24.5zM169 4q28 0 89.5 58.5t109.5 124.5h5q-49 -68 -111.5 -127.5t-91.5 -59.5q-12 0 -18 10t-6 21q0 18 19 53.5t76 109.5
q21 26 40 58.5t19 51.5q0 9 -5.5 14t-12.5 5q-10 0 -21 -6q-2 -1 -9.5 -6t-28 -23.5t-61 -70.5t-95 -133.5t-57.5 -85.5q-7 5 -23 5t-26 -5q7 11 23 35t90 132.5t74 143.5q0 14 -8 14q-20 0 -127 -137h-5q106 135 131 141l8 1q12 0 22 -10t10 -29q0 -20 -14.5 -47.5
t-41 -63.5t-29.5 -41q112 155 164 184q14 6 27 6q17 0 29.5 -11t12.5 -31q0 -21 -13 -50t-35 -59q-95 -124 -105.5 -142t-10.5 -24t6 -6z" />
    <glyph glyph-name="ograve" unicode="&#xf2;" horiz-adv-x="271" 
d="M259 580q5 -16 26 -35t56 -34t56 -15v-2q-33 0 -93.5 27.5t-69.5 58.5l-1 4q0 5 4 7.5t8 1.5q11 -2 14 -13zM178 130q54 3 96 57h5q-49 -61 -105 -62q-46 -54 -95 -91.5t-78 -37.5q-14 0 -24 14.5t-10 38.5q0 26 16 66.5t56.5 93.5t90.5 85t89 32q22 0 32 -12.5t10 -29.5
q0 -26 -23.5 -68.5t-59.5 -85.5zM0 0q28 0 74.5 36.5t90.5 88.5q-7 1 -12.5 6.5t-5.5 16.5q0 17 13.5 33t33.5 16q6 0 11 -4t6 -8q45 67 45 102q0 16 -9.5 25.5t-27.5 9.5q-26 0 -74 -46.5t-102 -136.5t-54 -125q0 -14 11 -14z" />
    <glyph glyph-name="oacute" unicode="&#xf3;" horiz-adv-x="271" 
d="M388 593q5 0 7.5 -3.5t1.5 -9.5q-9 -31 -69.5 -58.5t-94.5 -27.5v2q13 0 41 9t59.5 30.5t38.5 44.5q1 6 6 9.5t10 3.5zM178 130q54 3 96 57h5q-49 -61 -105 -62q-45 -53 -94.5 -91t-78.5 -38q-14 0 -24 14.5t-10 38.5q0 35 27 89.5t73 101.5t84.5 66.5t67.5 19.5
q22 0 32 -12.5t10 -28.5q0 -27 -23.5 -69.5t-59.5 -85.5zM0 0q28 0 74.5 36.5t90.5 88.5q-8 1 -13 8t-5 16q0 17 13.5 32.5t33.5 15.5q6 0 11 -4t6 -8q45 67 45 102q0 16 -9.5 25.5t-27.5 9.5q-26 0 -74 -46.5t-102 -136.5t-54 -125q0 -14 11 -14z" />
    <glyph glyph-name="ocircumflex" unicode="&#xf4;" horiz-adv-x="271" 
d="M345 475h-4l-40 64l-63 -64h-5l52 71l17 -1l17 1zM178 130q54 3 96 57h5q-49 -61 -105 -62q-45 -53 -94.5 -91t-78.5 -38q-14 0 -24 14.5t-10 38.5q0 35 27 89.5t73 101.5t84.5 66.5t67.5 19.5q22 0 32 -12.5t10 -28.5q0 -27 -23.5 -69.5t-59.5 -85.5zM0 0
q28 0 74.5 36.5t90.5 88.5q-8 1 -13 8t-5 16q0 17 13.5 32.5t33.5 15.5q6 0 11 -4t6 -8q45 68 45 102q0 16 -9.5 25.5t-27.5 9.5q-26 0 -74 -46.5t-102 -136.5t-54 -125q0 -14 11 -14z" />
    <glyph glyph-name="otilde" unicode="&#xf5;" horiz-adv-x="271" 
d="M394 500q-19 -34 -33.5 -48t-33.5 -14q-17 0 -46 24.5t-43 24.5q-9 0 -20.5 -10.5t-21.5 -28.5l-1 1q10 20 23 35t31 15q15 0 44.5 -23t44.5 -23q26 0 54 49zM178 130q54 3 96 57h5q-49 -61 -105 -62q-45 -53 -94.5 -91t-78.5 -38q-14 0 -24 14.5t-10 38.5q0 35 27 89.5
t73 101.5t84.5 66.5t67.5 19.5q22 0 32 -12.5t10 -29.5q0 -26 -23.5 -68.5t-59.5 -85.5zM0 0q28 0 74.5 36.5t90.5 88.5q-8 1 -13 8t-5 15q0 18 13.5 33.5t33.5 15.5q6 0 11 -4t6 -8q45 67 45 102q0 16 -9.5 25.5t-27.5 9.5q-26 0 -74 -46.5t-102 -136.5t-54 -125
q0 -14 11 -14z" />
    <glyph glyph-name="odieresis" unicode="&#xf6;" horiz-adv-x="271" 
d="M244 454q-9 0 -9 11l3 11q4 8 10.5 14t12.5 6q9 0 9 -11l-3 -12q-3 -8 -10 -13.5t-13 -5.5zM344 496v-1q9 0 9 -10q0 -6 -3 -12q-3 -8 -10 -13.5t-13 -5.5q-9 0 -9 11l3 11q4 8 10.5 14t12.5 6zM178 130q53 1 96 57h5q-49 -61 -105 -62q-46 -54 -95 -91.5t-79 -37.5
q-14 0 -23.5 14.5t-9.5 38.5q0 26 16 66.5t56.5 93.5t90.5 85t89 32q22 0 32 -12.5t10 -29.5q0 -26 -23.5 -68.5t-59.5 -85.5zM0 0v-1q28 0 74.5 36.5t90.5 89.5q-7 1 -12.5 6.5t-5.5 16.5q0 17 13.5 33t33.5 16q6 0 11 -4t6 -8q45 67 45 102q0 16 -9.5 25.5t-27.5 9.5
q-26 0 -74 -46.5t-102 -136.5t-54 -125q0 -14 11 -14z" />
    <glyph glyph-name="divide" unicode="&#xf7;" horiz-adv-x="398" 
d="M305 506q2 0 7.5 -2.5t5.5 -12.5q0 -7 -5 -17t-15 -18.5t-18 -8.5q-2 0 -7.5 2.5t-5.5 12.5q0 7 5 17t15 18.5t18 8.5zM411 341q-2 -2 -3 -3.5t0 -6.5h-318q3 4 3.5 5.5t-0.5 4.5h318zM225 226q2 0 7.5 -2.5t5.5 -12.5q0 -7 -5 -17q-5 -11 -15 -19.5t-18 -8.5
q-6 0 -9.5 5t-3.5 11l4 17q6 11 16 19t18 8z" />
    <glyph glyph-name="oslash" unicode="&#xf8;" horiz-adv-x="282" 
d="M178 130q54 3 96 57h5q-49 -61 -105 -62q-45 -53 -94 -90.5t-78 -38.5l-81 -113l-3 2l79 111q-12 1 -21 16t-9 37q0 35 27 89.5t73 101.5t84.5 66.5t67.5 19.5l13 -2l67 93l3 -2l-66 -92q12 -4 18.5 -15t6.5 -23q0 -27 -23.5 -69.5t-59.5 -85.5zM-11 14q0 -14 11 -14
l230 321l-11 1q-26 0 -74 -46.5t-102 -136.5t-54 -125zM5 0q28 3 73 39t87 86q-8 1 -13 8t-5 15q0 18 13.5 33.5t33.5 15.5q6 0 11 -4t6 -8q45 67 45 102q0 11 -6 20.5t-16 12.5z" />
    <glyph glyph-name="ugrave" unicode="&#xf9;" horiz-adv-x="329" 
d="M289 580q5 -16 26 -35t56 -34t56 -15v-2q-33 0 -93.5 27.5t-69.5 58.5l-1 4q0 5 4 7.5t8 1.5q11 -2 14 -13zM364 343q-25 -37 -123 -167q-11 -15 -44.5 -59.5t-51.5 -71t-18 -35.5q0 -6 6 -6q28 0 89.5 58.5t109.5 124.5h5q-49 -68 -111.5 -127.5t-91.5 -59.5
q-12 0 -18 10t-6 21q0 27 45 94q-21 -24 -51.5 -53.5t-61.5 -51.5t-46 -22q-13 0 -23.5 9t-10.5 33q0 10 4 30q14 48 94.5 148.5t84.5 106.5q1 -9 13 -9q10 0 23.5 6.5t19.5 14.5q-4 -5 -14.5 -19t-77 -98t-95.5 -133.5t-29 -70.5q0 -14 11 -14q12 0 39.5 18t73 62.5
t81.5 89.5l28 36q2 3 33 42t57 78q5 -8 16 -8q9 0 21 7t19 16z" />
    <glyph glyph-name="uacute" unicode="&#xfa;" horiz-adv-x="329" 
d="M418 593q5 0 7.5 -3.5t1.5 -9.5q-9 -31 -69.5 -58.5t-94.5 -27.5v2q13 0 41 9t59.5 30.5t38.5 44.5q1 6 6 9.5t10 3.5zM364 343q-25 -37 -123 -167q-11 -15 -44.5 -59.5t-51.5 -71t-18 -35.5q0 -6 6 -6q28 0 89.5 58.5t109.5 124.5h5q-49 -68 -111.5 -127.5t-91.5 -59.5
q-12 0 -18 10t-6 21q0 28 45 94q-21 -24 -51.5 -53.5t-61.5 -51.5t-46 -22q-13 0 -23.5 9t-10.5 33q0 10 4 30q14 48 94.5 148.5t84.5 106.5q1 -9 13 -9q9 0 22.5 7t20.5 14q-4 -5 -14.5 -19t-77 -98t-95.5 -133.5t-29 -70.5q0 -14 11 -14q12 0 39.5 18t73 62.5t81.5 89.5
l28 36q2 3 33 42t57 78q5 -8 16 -8q9 0 21 7t19 16z" />
    <glyph glyph-name="ucircumflex" unicode="&#xfb;" horiz-adv-x="329" 
d="M375 475h-4l-40 64l-63 -64h-5l52 71l17 -1l17 1zM364 343q-25 -37 -123 -167q-11 -15 -44.5 -59.5t-51.5 -71t-18 -35.5q0 -6 6 -6q28 0 89.5 58.5t109.5 124.5h5q-49 -68 -111.5 -127.5t-91.5 -59.5q-12 0 -18 10t-6 21q0 28 45 94q-21 -24 -51.5 -53.5t-61.5 -51.5
t-46 -22q-13 0 -23.5 9t-10.5 33q0 10 4 30q14 48 92 146t86 109q3 -9 14 -9q9 0 22.5 7t20.5 14q-4 -5 -14.5 -19t-77 -98t-95.5 -133.5t-29 -70.5q0 -14 11 -14q12 0 39.5 18t73 62.5t81.5 89.5l28 36q2 3 33 42t57 78q5 -8 16 -8q9 0 21 7t19 16z" />
    <glyph glyph-name="udieresis" unicode="&#xfc;" horiz-adv-x="329" 
d="M264 454q-9 0 -9 11l3 11q4 8 10.5 14t12.5 6q9 0 9 -11l-3 -12q-3 -8 -10 -13.5t-13 -5.5zM364 496v-1q9 0 9 -10l-3 -12q-3 -8 -10 -13.5t-13 -5.5q-9 0 -9 11l3 11q4 8 10.5 14t12.5 6zM364 343v-1q-22 -33 -123 -166q-11 -15 -44.5 -59.5t-51.5 -71t-18 -35.5
q0 -6 6 -6q28 0 89.5 58.5t109.5 124.5h5q-49 -68 -111.5 -127.5t-91.5 -59.5q-12 0 -18 10t-6 21q0 27 45 93q-46 -51 -92.5 -88.5t-66.5 -37.5q-13 0 -23.5 9t-10.5 33q0 17 4 30q14 48 92 146t86 109q3 -10 14 -10q10 0 23.5 7t19.5 15q-4 -5 -14.5 -19t-77 -98
t-95.5 -133.5t-29 -70.5q0 -14 11 -14q24 0 85 55t109 115l28 36q2 3 33 42t57 78q5 -8 16 -8q9 0 21 7t19 16z" />
    <glyph glyph-name="yacute" unicode="&#xfd;" horiz-adv-x="322" 
d="M417 593q5 0 7.5 -3.5t1.5 -9.5q-9 -31 -69.5 -58.5t-94.5 -27.5v2q13 0 41 9t59.5 30.5t38.5 44.5q1 6 6 9.5t10 3.5zM317 320q9 0 21 7t19 16q-121 -177 -248 -339q9 0 27.5 6.5t46.5 27.5t66.5 59.5t75.5 89.5h5q-24 -32 -62.5 -76t-83 -77.5t-74.5 -33.5h-4l-6 -8
q-128 -162 -188 -213t-96 -51q-10 0 -16 5.5t-6 14.5q0 21 24 58.5t63.5 77.5t87.5 71.5t92 43.5l96 127q-48 -52 -94.5 -90t-66.5 -38q-13 0 -23.5 9.5t-10.5 32.5q0 17 4 30q14 48 92 146t86 109q3 -9 14 -9q9 0 22.5 7t20.5 14q-4 -5 -14.5 -19t-77 -98t-95.5 -133.5
t-29 -70.5q0 -14 11 -14q24 0 85 55t109 115l111 156q5 -8 16 -8zM-192 -266h-1q21 0 82.5 61.5t166.5 197.5q-56 -15 -118 -65t-101 -105.5t-39 -77.5q0 -11 10 -11z" />
    <glyph glyph-name="thorn" unicode="&#xfe;" horiz-adv-x="355" 
d="M250 104l-1 -1q53 12 108 84h5q-58 -76 -116 -87q-39 -45 -84.5 -73.5t-89.5 -28.5q-3 0 -10.5 2t-7.5 10q0 10 16 29t52 38.5t74 22.5q40 48 73.5 104t40.5 87l2 17q0 18 -12 18q-29 0 -86.5 -49t-106.5 -114q-237 -323 -305 -420q0 10 -10 10t-25 -11t-27 -28
q32 55 204 292.5t423 574.5q5 -6 14 -6q12 0 29 11t30 26q-1 -1 -3.5 -5t-108.5 -148t-148 -198q-5 -7 -33 -39t-35 -45q51 62 105 107.5t84 45.5q18 0 27 -11.5t9 -30.5q0 -35 -24.5 -86.5t-62.5 -97.5zM72 2q16 0 46 20t75 74q-24 -2 -54.5 -14.5t-54.5 -35t-24 -35.5
q0 -9 12 -9z" />
    <glyph glyph-name="ydieresis" unicode="&#xff;" horiz-adv-x="322" 
d="M273 454q-9 0 -9 11l3 11q4 8 10.5 14t12.5 6q9 0 9 -11l-3 -12q-3 -8 -10 -13.5t-13 -5.5zM373 496v-1q9 0 9 -10l-3 -12q-3 -8 -10 -13.5t-13 -5.5q-9 0 -9 11l3 11q4 8 10.5 14t12.5 6zM317 320q9 0 20.5 6.5t19.5 15.5q-137 -197 -248 -338q9 0 27.5 6.5t46.5 27.5
t66.5 59.5t75.5 89.5h5q-24 -32 -62.5 -76t-83 -77.5t-74.5 -33.5l-5 -1l-5 -7q-128 -162 -188 -213t-96 -51q-10 0 -16 5.5t-6 14.5q0 27 41 83t105.5 104.5t120.5 62.5l95 128q-47 -52 -93.5 -90t-66.5 -38q-13 0 -23.5 9t-10.5 33q0 17 4 30q14 48 92 146t86 109
q3 -9 14 -9q10 0 23.5 6.5t19.5 14.5q-4 -5 -14.5 -19t-77 -98t-95.5 -133.5t-29 -70.5q0 -14 11 -14q24 0 85 55t109 115l111 156q5 -8 16 -8zM-193 -266q21 0 82.5 61.5t166.5 197.5q-56 -15 -118 -65t-101 -105.5t-39 -77.5q0 -11 9 -11z" />
    <glyph glyph-name="Amacron" unicode="&#x100;" horiz-adv-x="898" 
d="M1127 774q42 0 72 3l-2 -11l-74 1l-74 -1l2 11q30 -3 76 -3zM1039 618l-1 -1q6 0 11 -4.5t5 -13.5q0 -18 -18.5 -54.5t-52 -90t-156 -232.5t-135.5 -215h87q-2 -5 -1 -8h-181q2 4 1 8h83q-7 9 -6 25q11 73 140 253h-29l-61 1q-138 -145 -247 -228.5t-195.5 -119
t-156.5 -35.5q-40 0 -70 10t-49.5 28.5t-29 43t-9.5 53.5q0 42 18 88.5t58 98.5t98 92q-14 18 -21.5 42t-7.5 46q0 37 18 77t55.5 74.5t97 56t136.5 21.5q65 0 169.5 -33t139.5 -38t55 -5q96 0 199 44l1 -2q-108 -45 -200 -45q-60 0 -181 27t-185 27q-78 0 -137 -19t-95 -49
t-53 -65.5t-17 -68.5q0 -22 9.5 -45t25.5 -39q52 34 115 54t130 20q32 0 60.5 -8.5t45 -29t16.5 -47.5q0 -34 -23 -74t-63 -74.5t-93 -56t-108 -21.5q-31 0 -56 16.5t-29 40.5l1 -1q5 -14 26 -23.5t57 -9.5q55 0 107.5 19.5t92 51.5t62 68.5t22.5 67.5q0 34 -30 55.5
t-88 21.5q-65 0 -127.5 -20t-113.5 -54q50 -47 145 -47q32 0 71 6v-2q-53 -13 -96 -13q-44 0 -76.5 13.5t-52.5 36.5q-34 -23 -72 -62.5t-63 -90.5t-25 -93q0 -23 7.5 -42.5t21.5 -35t43.5 -27.5t76.5 -12q72 0 150 28.5t160 82t166 128.5q9 14 14.5 32t5.5 31
q0 12 -4.5 20.5t-13.5 12.5l-17 -1q-8 0 -8 5q3 5 9 5l43 -2h49h30q27 27 63 65.5t92 100.5t84 92.5t50 49t31 18.5zM1043 606q1 8 -5 8q-8 0 -32 -20t-122 -132t-154 -171l70 2h20q34 47 111 149t93.5 128.5t18.5 35.5zM615 193q43 38 98 93h-9l-69 -1l-19 -1q16 -8 16 -33
q0 -27 -17 -58z" />
    <glyph glyph-name="amacron" unicode="&#x101;" horiz-adv-x="336" 
d="M368 475l-74 1l-74 -1l2 11q30 -3 77 -3q43 0 71 3zM140 4q28 0 89.5 58.5t109.5 124.5h5q-49 -68 -111.5 -127.5t-91.5 -59.5q-12 0 -18 10t-6 21q0 30 50 101q-47 -54 -96 -94t-69 -40q-14 0 -23.5 14.5t-9.5 38.5q0 36 25.5 90.5t70 100.5t84.5 65t72 19q19 0 30 -10
t11 -28q0 -24 -24 -62l77 102q5 -8 16 -8q9 0 21 7t19 16q-21 -31 -123 -167q-11 -15 -44.5 -59.5t-51.5 -71t-18 -35.5q0 -6 6 -6zM2 2q23 0 87.5 57t116.5 127t52 102q0 16 -9 23.5t-21 7.5q-17 0 -40 -12.5t-42 -30.5q-53 -52 -103 -133q-23 -39 -37.5 -73t-14.5 -54
q0 -14 11 -14z" />
    <glyph glyph-name="Abreve" unicode="&#x102;" horiz-adv-x="898" 
d="M1172 774q-15 -22 -32.5 -35.5t-31.5 -13.5t-20.5 14t-4.5 36l3 1q-4 -41 24 -41q14 0 30.5 11t29.5 31zM1039 618l-1 -1q6 0 11 -4.5t5 -13.5q0 -18 -18.5 -54.5t-52 -90t-156 -232.5t-135.5 -215h87q-2 -5 -1 -8h-181q2 4 1 8h83q-7 9 -6 25q11 73 140 253h-29l-61 1
q-138 -145 -247 -228.5t-195.5 -119t-156.5 -35.5q-40 0 -70 10t-49.5 28.5t-29 43t-9.5 53.5q0 42 18 88.5t58 98.5t98 92q-14 18 -21.5 42t-7.5 46q0 37 18 77t55.5 74.5t97 56t136.5 21.5q65 0 169.5 -33t139.5 -38t55 -5q96 0 199 44l1 -2q-108 -45 -200 -45
q-60 0 -181 27t-185 27q-78 0 -137 -19t-95 -49t-53 -65.5t-17 -68.5q0 -22 9.5 -45t25.5 -39q52 34 115 54t130 20q32 0 60.5 -8.5t45 -29t16.5 -47.5q0 -34 -23 -74t-63 -74.5t-93 -56t-108 -21.5q-31 0 -56 16.5t-29 40.5l1 -1q5 -14 26 -23.5t57 -9.5q55 0 107.5 19.5
t92 51.5t62 68.5t22.5 67.5q0 34 -30 55.5t-88 21.5q-65 0 -127.5 -20t-113.5 -54q50 -47 145 -47q32 0 71 6v-2q-53 -13 -96 -13q-44 0 -76.5 13.5t-52.5 36.5q-34 -23 -72 -62.5t-63 -90.5t-25 -93q0 -23 7.5 -42.5t21.5 -35t43.5 -27.5t76.5 -12q72 0 150 28.5t160 82
t166 128.5q9 14 14.5 32t5.5 31q0 12 -4.5 20.5t-13.5 12.5l-17 -1q-8 0 -8 5q3 5 9 5l43 -1l49 -1h30q27 27 63 65.5t92 100.5t84 92.5t50 49t31 18.5zM1043 606q1 8 -5 8q-8 0 -32 -20t-122 -132t-154 -171l70 2h20q34 47 111 149t93.5 128.5t18.5 35.5zM615 193
q43 38 98 93h-9l-69 -1l-19 -1q16 -8 16 -33q0 -27 -17 -58z" />
    <glyph glyph-name="abreve" unicode="&#x103;" horiz-adv-x="336" 
d="M280 434q-15 0 -21.5 13.5t-4.5 36.5l3 1q-3 -41 25 -41q14 0 30 10.5t30 31.5l1 -3q-15 -22 -32 -35.5t-31 -13.5zM140 4q28 0 89.5 58.5t109.5 124.5h5q-49 -68 -111.5 -127.5t-91.5 -59.5q-12 0 -18 10t-6 21q0 30 50 101q-47 -54 -96 -94t-69 -40q-14 0 -23.5 14.5
t-9.5 38.5q0 36 25.5 90.5t70 100.5t84.5 65t72 19q19 0 30 -10t11 -28q0 -24 -24 -62l77 102q5 -8 16 -8q9 0 21 7t19 16q-21 -31 -123 -167q-11 -15 -44.5 -59.5t-51.5 -71t-18 -35.5q0 -6 6 -6zM2 2q23 0 87.5 57t116.5 127t52 102q0 16 -9 23.5t-21 7.5q-17 0 -40 -12.5
t-42 -30.5q-53 -52 -103 -133q-23 -39 -37.5 -73t-14.5 -54q0 -14 11 -14z" />
    <glyph glyph-name="Aogonek" unicode="&#x104;" horiz-adv-x="898" 
d="M780 8l-1 -1q-2 -5 -1 -8h-79q-39 -38 -49 -69l-2 -15q0 -17 12.5 -27t30.5 -10q23 0 45 13l3 -3q-10 -11 -26.5 -20t-39.5 -9q-21 0 -35.5 10t-14.5 26q0 20 13 43.5t53 60.5h-92q3 4 1 8h83q-7 9 -6 25q11 73 140 253h-29l-61 1q-138 -145 -247 -228.5t-195.5 -119
t-156.5 -35.5q-40 0 -70 10t-49.5 28.5t-29 43t-9.5 53.5q0 33 15 79.5t58 103t101 96.5q-14 18 -21.5 42t-7.5 46q0 37 18 77t55.5 74.5t97 56t136.5 21.5q65 0 169.5 -33t139.5 -38t55 -5q93 0 199 44l1 -2q-108 -45 -200 -45q-60 0 -181 27t-185 27q-59 0 -115 -12.5
t-97.5 -40.5t-65.5 -67t-24 -82q0 -22 9.5 -45t25.5 -39q52 34 115 54t130 20q32 0 60.5 -8.5t45 -29t16.5 -47.5q0 -34 -23 -74t-63 -74.5t-93 -56t-108 -21.5q-31 0 -56 16.5t-29 40.5l1 -1q5 -14 26 -23.5t57 -9.5q55 0 107.5 19.5t92 51.5t62 68.5t22.5 67.5
q0 34 -29.5 55.5t-88.5 21.5q-65 0 -127.5 -20t-113.5 -54q50 -47 145 -47q32 0 71 6v-2q-52 -13 -96 -13t-76.5 13.5t-52.5 36.5q-34 -23 -72 -62.5t-63 -90t-25 -93.5q0 -23 7.5 -42.5t21.5 -35t43.5 -27.5t76.5 -12q72 0 150 28.5t160 82t166 128.5q9 14 14.5 32t5.5 31
q0 12 -4.5 20.5t-13.5 12.5l-17 -1q-8 0 -8 5q3 5 9 5l43 -1l49 -1h30q27 27 63 65.5t92 100.5t84 92.5t50 49t31 18.5q5 0 10.5 -4.5t5.5 -13.5q0 -28 -46.5 -105.5t-174.5 -264t-141 -222.5h87zM800 293h20q34 47 111 149t93.5 128.5t18.5 35.5q1 8 -5 8q-8 0 -31.5 -20
t-121 -131t-155.5 -172zM615 193q43 38 98 93h-9l-69 -1l-19 -1q16 -8 16 -33q0 -27 -17 -58z" />
    <glyph glyph-name="aogonek" unicode="&#x105;" horiz-adv-x="336" 
d="M140 4q28 0 89.5 58.5t109.5 124.5h5q-47 -65 -106 -122t-90 -64h1q-40 -39 -50 -70q-2 -6 -2 -16q0 -17 12 -26.5t31 -9.5q23 0 45 12l3 -2q-12 -14 -30.5 -22t-35.5 -8q-21 0 -35.5 10t-14.5 26q0 21 13 45t53 60q-10 1 -15.5 11t-5.5 20q0 30 50 101q-47 -54 -96 -94
t-69 -40q-14 0 -23.5 14.5t-9.5 38.5q0 36 25.5 90.5t70 100.5t84.5 65t72 19q19 0 30 -10t11 -28q0 -24 -24 -62l77 102q5 -8 16 -8q9 0 21 7t19 16q-21 -31 -123 -167q-11 -15 -44.5 -59.5t-51.5 -71t-18 -35.5q0 -6 6 -6zM2 2q23 0 87.5 57t116.5 127t52 102
q0 16 -9 23.5t-21 7.5q-18 0 -40.5 -12.5t-41.5 -30.5q-24 -23 -52.5 -60.5t-50.5 -72.5q-23 -38 -37.5 -73t-14.5 -54q0 -14 11 -14z" />
    <glyph glyph-name="Cacute" unicode="&#x106;" horiz-adv-x="693" 
d="M1000 884q5 0 7.5 -3.5t1.5 -9.5q-6 -20 -34 -38.5t-68 -33t-62 -14.5v2q13 0 41 9t59.5 30.5t38.5 44.5q1 6 6 9.5t10 3.5zM740 673v-1q49 0 76.5 -19t27.5 -52q0 -36 -35.5 -85.5t-103.5 -101.5q-78 -60 -185 -98t-227 -38q-40 0 -74 8q-58 -114 -58 -213
q0 -38 13.5 -66t37 -38.5t46.5 -10.5q27 0 65 9.5t79 43t65 83.5t24 90q0 23 -10.5 35t-26.5 12q-17 0 -35.5 -12t-30 -29.5t-15.5 -33.5h-2q5 27 24 47.5t40 28t35 7.5q31 0 46.5 -16t15.5 -42q0 -31 -21 -70.5t-58.5 -75.5t-88.5 -58.5t-107 -22.5q-75 0 -112.5 38
t-37.5 103q0 96 66 206q-32 16 -48.5 39.5t-16.5 50.5q0 37 28 67.5t72.5 47.5t103.5 17q33 0 58 -4q84 65 178 105q71 31 129 42q42 7 63 7zM813 582q9 21 9 37q0 23 -19.5 35.5t-54.5 12.5q-67 0 -158 -36q-38 -15 -88 -43t-104 -74q62 -14 115.5 -46t83.5 -75l-2 -1
q-14 21 -41.5 45.5t-70.5 44t-89 28.5q-110 -97 -173 -221q37 -7 72 -7q89 0 191 38t197 114q50 40 84 79t48 69zM113 384q0 -23 16 -44t46 -36q71 118 190 210q-25 3 -50 3q-46 0 -93.5 -15t-78 -49t-30.5 -69z" />
    <glyph glyph-name="cacute" unicode="&#x107;" horiz-adv-x="262" 
d="M372 580q1 6 6 9.5t10 3.5t7.5 -3.5t1.5 -9.5q-9 -31 -69.5 -58.5t-94.5 -27.5v2q31 0 80 26.5t59 57.5zM229 330q16 0 25 -9.5t9 -24.5q0 -19 -14 -37.5t-36 -22.5h-5q-8 0 -11 8v2q0 3 3.5 6t8.5 3q20 0 33.5 12.5t13.5 34.5q0 10 -7 17t-20 7q-19 0 -52 -26
t-79.5 -85.5t-77 -118t-30.5 -80.5q0 -14 11 -14q35 0 92.5 34.5t104 77t68.5 72.5h5q-35 -47 -91 -92.5t-102.5 -70.5t-76.5 -25q-14 0 -23.5 14.5t-9.5 38.5q0 27 16 67.5t57 94t93 85.5t95 32z" />
    <glyph glyph-name="Cdotaccent" unicode="&#x10a;" horiz-adv-x="693" 
d="M923 802q4 0 6.5 -3t2.5 -7q0 -6 -3 -12q-4 -8 -11 -13.5t-13 -5.5q-8 0 -8 10q0 6 3 12q3 8 10 13.5t13 5.5zM740 673v-1q49 0 76.5 -19t27.5 -52q0 -36 -35.5 -85.5t-103.5 -101.5q-78 -60 -185 -98t-227 -38q-40 0 -74 8q-59 -116 -59 -213q0 -38 14 -66t37.5 -38.5
t46.5 -10.5q27 0 65 9.5t79 43t65 83.5t24 90q0 23 -10.5 35t-26.5 12q-17 0 -35.5 -12t-30 -29.5t-15.5 -33.5h-2q5 27 24 47.5t40 28t35 7.5q31 0 46.5 -16t15.5 -42q0 -31 -21 -70.5t-58.5 -75.5t-88.5 -58.5t-107 -22.5q-75 0 -112.5 38t-37.5 102q0 97 66 207
q-32 16 -48.5 39.5t-16.5 50.5q0 37 28 67.5t72.5 47.5t103.5 17q33 0 58 -4q84 65 178 105q71 31 129 42q42 7 63 7zM813 582q9 21 9 37q0 23 -19.5 35.5t-54.5 12.5q-67 0 -158 -36q-38 -15 -88 -43t-104 -74q62 -14 115.5 -46t83.5 -75l-2 -1q-15 21 -42.5 45.5t-70 44
t-88.5 28.5q-110 -97 -173 -221q29 -7 72 -7q101 0 203.5 43.5t183.5 108.5q102 81 133 148zM113 384q0 -23 16 -44t46 -36q33 56 82.5 110.5t106.5 99.5q-24 3 -49 3q-46 0 -93.5 -15t-78 -49t-30.5 -69z" />
    <glyph glyph-name="cdotaccent" unicode="&#x10b;" horiz-adv-x="262" 
d="M311 511q9 0 9 -10q0 -6 -3 -12q-3 -8 -10 -13.5t-13 -5.5q-9 0 -9 10q0 6 3 12q3 8 10 13.5t13 5.5zM229 330q16 0 25 -9.5t9 -24.5q0 -19 -14 -37.5t-36 -22.5h-5q-8 0 -11 8v2q0 3 3.5 6t8.5 3q20 0 33.5 12.5t13.5 34.5q0 10 -7 17t-20 7q-19 0 -52 -26t-79.5 -85.5
t-77 -118t-30.5 -80.5q0 -14 11 -14q35 0 92.5 34.5t104 77t68.5 72.5h5q-35 -47 -91 -92.5t-102.5 -70.5t-76.5 -25q-14 0 -23.5 14.5t-9.5 38.5q0 27 16 67.5t57 94t93 85.5t95 32z" />
    <glyph glyph-name="Ccaron" unicode="&#x10c;" horiz-adv-x="693" 
d="M797 736l-17 -1l-14 71h4l29 -64l74 64h5l-64 -71zM740 673v-1q49 0 76.5 -19t27.5 -52q0 -36 -35.5 -85.5t-103.5 -101.5q-78 -60 -185 -98t-227 -38q-40 0 -74 8q-59 -116 -59 -213q0 -38 14 -66t37.5 -38.5t46.5 -10.5q27 0 65 9.5t79 43t65 83.5t24 90q0 23 -10.5 35
t-26.5 12q-17 0 -35.5 -12t-30 -29.5t-15.5 -33.5h-2q5 27 24 47.5t40 28t35 7.5q31 0 46.5 -16t15.5 -42q0 -31 -21 -70.5t-58.5 -75.5t-88.5 -58.5t-107 -22.5q-75 0 -112.5 38t-37.5 103q0 96 66 206q-32 16 -48.5 39.5t-16.5 50.5q0 37 28 67.5t72.5 47.5t103.5 17
q33 0 58 -4q84 65 178 105q71 31 129 42q42 7 63 7zM813 582q9 21 9 37q0 23 -19.5 35.5t-54.5 12.5q-67 0 -158 -36q-38 -15 -88 -43t-104 -74q62 -14 115.5 -46t83.5 -75l-2 -1q-14 21 -41.5 45.5t-70.5 44t-89 28.5q-110 -97 -173 -221q37 -7 72 -7q89 0 191 38t197 114
q50 40 84 79t48 69zM113 384q0 -23 16 -44t46 -36q71 118 190 210q-25 3 -50 3q-46 0 -93.5 -15t-78 -49t-30.5 -69z" />
    <glyph glyph-name="ccaron" unicode="&#x10d;" horiz-adv-x="262" 
d="M274 444l-17 1l-17 -1l-14 71h5l29 -64l73 64h5zM229 330q16 0 25 -9.5t9 -24.5q0 -19 -14 -37.5t-36 -22.5h-5q-8 0 -11 8v2q0 3 3.5 6t8.5 3q20 0 33.5 12.5t13.5 34.5q0 10 -7 17t-20 7q-19 0 -52 -26t-79.5 -85.5t-77 -118t-30.5 -80.5q0 -14 11 -14q35 0 92.5 34.5
t104 77t68.5 72.5h5q-35 -47 -91 -92.5t-102.5 -70.5t-76.5 -25q-14 0 -23.5 14.5t-9.5 38.5q0 27 16 67.5t57 94t93 85.5t95 32z" />
    <glyph glyph-name="Dcaron" unicode="&#x10e;" horiz-adv-x="784" 
d="M737 680v-1h-17l-14 71h4l29 -64l74 64h4l-64 -71zM956 627v-1q0 -10 -10 -10q-7 0 -15 8.5t-8 18.5h-10q-29 0 -67.5 -23t-79.5 -62q47 -63 47 -154q0 -53 -23.5 -122t-81 -139t-127 -110t-128.5 -54t-111 -14q-65 0 -215 15q-64 -15 -139 -15q-19 0 -35.5 5t-16.5 17
q0 10 16 19t39 9q38 0 146 -20q91 33 186.5 116.5t236.5 263.5q92 118 180 187q-27 38 -71.5 60t-105.5 22l-24 -1q4 -15 4 -37q0 -46 -19 -105t-59.5 -128.5t-95.5 -121.5q13 -9 23 -13l-1 -2l-23 13q-45 -43 -96 -67.5t-103 -24.5q-32 0 -56 16.5t-33 40.5t-9 45
q0 41 13 88t44 92t79.5 86t114.5 72q22 42 57.5 70t79.5 33q31 3 51 -10.5t28 -39.5h14q66 0 117.5 -20.5t84.5 -56.5q49 38 90.5 56.5t69.5 18.5q20 0 31 -5.5t11 -15.5zM469 692h-1q-37 -4 -69.5 -27t-55.5 -59q43 18 94 29.5t96 13.5q-15 49 -64 43zM537 611q0 17 -3 32
q-106 -9 -209 -69q-15 -32 -23.5 -71.5t-8.5 -74.5q0 -53 18 -99.5t53 -74.5q54 53 94.5 123.5t59.5 129.5t19 104zM170 161h-1q50 0 99.5 24.5t93.5 66.5q-37 29 -56.5 80t-19.5 110q0 65 21 120q-38 -25 -75.5 -60t-65 -77.5t-42.5 -90t-15 -97.5q0 -24 8.5 -42.5
t23.5 -26t29 -7.5zM342 -32q56 0 108.5 17t104.5 51t96.5 84t74.5 108t41 108.5t11 84.5q0 32 -7 64t-20 57q-27 -27 -69 -80q-141 -187 -222.5 -272.5t-153.5 -132t-143 -68.5q120 -21 179 -21zM-12 -32q55 0 111 14q-85 10 -133 10q-11 0 -17.5 -3t-6.5 -7q0 -5 12 -9.5
t34 -4.5z" />
    <glyph glyph-name="dcaron" unicode="&#x10f;" horiz-adv-x="430" 
d="M139 4q28 0 89.5 58.5t109.5 124.5h5q-49 -68 -111.5 -127.5t-91.5 -59.5q-12 0 -18 10t-6 21q0 30 48 97q-48 -53 -95 -91.5t-67 -38.5q-14 0 -23.5 14.5t-9.5 38.5q0 36 25.5 90.5t70 100.5t84.5 65t72 19q19 0 30 -10t11 -28q0 -20 -21 -57q65 86 224 303q5 -6 12 -6
q11 0 26 10t24 21q-38 -56 -279 -383q-5 -6 -41.5 -54.5t-55 -75.5t-18.5 -36q0 -6 6 -6zM542 523q6 0 9.5 -5.5t2.5 -12.5q-2 -8 -26 -42t-30 -34q0 1 9.5 21t15.5 55q1 7 7 12.5t12 5.5zM2 2q23 0 87.5 57t116.5 127t52 102q0 16 -9 23.5t-21 7.5q-17 0 -40 -12.5
t-42 -30.5q-53 -52 -103 -133q-23 -39 -37.5 -73t-14.5 -54q0 -14 11 -14z" />
    <glyph glyph-name="Dcroat" unicode="&#x110;" horiz-adv-x="784" 
d="M957 627h-1q0 -11 -10 -11q-7 0 -15 8.5t-8 18.5h-10q-29 0 -67.5 -23t-79.5 -62q47 -63 47 -154q0 -53 -23.5 -122t-81 -139t-127 -110t-128.5 -54t-111 -14q-65 0 -215 15q-64 -15 -139 -15q-19 0 -35.5 5t-16.5 17q0 10 16 19t39 9q38 0 146 -20q81 30 160 94.5
t165 164.5l-60 -6q-3 0 -9.5 2t-6.5 9q0 4 5 7t12 3l67 -5l90 111q92 118 180 187q-26 38 -71 60t-106 22l-24 -1q4 -15 4 -37q0 -27 -8.5 -66t-31.5 -93t-60.5 -108t-73.5 -88l23 -13l-1 -2l-23 13q-45 -42 -96 -67t-102 -25q-32 0 -56.5 16.5t-33.5 41t-9 45.5
q0 69 29.5 131t85.5 115.5t136 90.5q22 42 57.5 70t79.5 33q31 3 51 -10.5t28 -39.5h15q66 0 117 -20.5t84 -56.5q49 38 90.5 56.5t69.5 18.5q20 0 31.5 -5.5t11.5 -15.5zM469 692h-1q-37 -4 -69.5 -27t-55.5 -59q43 18 94 29.5t96 13.5q-15 49 -64 43zM537 611q0 17 -3 32
q-106 -9 -209 -69q-15 -32 -23.5 -71.5t-8.5 -74.5q0 -53 18 -99.5t53 -74.5q54 53 94.5 123.5t59.5 129.5t19 104zM170 161h-1q50 0 99.5 24.5t93.5 66.5q-37 29 -56.5 80t-19.5 110q0 65 21 120q-38 -25 -75.5 -60t-65 -77.5t-42.5 -90t-15 -97.5q0 -24 8.5 -42.5
t23.5 -26t29 -7.5zM342 -32q56 0 108.5 17t104.5 51t96.5 84t74.5 108t41 108.5t11 84.5q0 32 -7 64t-20 57q-27 -27 -69 -80q-91 -121 -152 -195q18 3 37 3q6 0 9.5 -3t3.5 -7t-3.5 -7t-9.5 -3l-49 4q-88 -103 -174 -169t-181 -96q120 -21 179 -21zM-12 -32q55 0 111 14
q-85 10 -133 10q-11 0 -18 -3t-7 -7q0 -5 12.5 -9.5t34.5 -4.5z" />
    <glyph glyph-name="dcroat" unicode="&#x111;" horiz-adv-x="335" 
d="M527 559l-86 -120q29 0 50 3l-2 -11l-53 1l-189 -256q-11 -15 -44.5 -59.5t-51.5 -71t-18 -35.5q0 -6 6 -6q28 0 89.5 58.5t109.5 124.5h5q-49 -68 -111.5 -127.5t-91.5 -59.5q-12 0 -18 10t-6 21q0 30 48 97q-48 -53 -95 -91.5t-67 -38.5q-14 0 -23.5 14.5t-9.5 38.5
q0 36 25.5 90.5t70 100.5t84.5 65t72 19q19 0 30 -10t11 -28q0 -20 -21 -57l149 201l-49 -1l2 11l52 -3l70 95q5 -6 12 -6q11 0 26.5 10t23.5 21zM2 2q23 0 87.5 57t116.5 127t52 102q0 16 -9 23.5t-21 7.5q-17 0 -40 -12.5t-42 -30.5q-24 -23 -52.5 -60.5t-50.5 -72.5
q-23 -39 -37.5 -73t-14.5 -54q0 -14 11 -14z" />
    <glyph glyph-name="Emacron" unicode="&#x112;" horiz-adv-x="524" 
d="M671 774q44 0 72 3l-2 -11l-74 1l-74 -1l2 11q30 -3 76 -3zM526 642l-1 -1q58 0 96 -22.5t38 -64.5q0 -34 -22.5 -66t-59 -50.5t-81.5 -18.5v4q25 0 50.5 8t49 28.5t35 48.5t11.5 50q0 18 -9.5 37t-34 30t-56.5 11q-37 0 -85 -15.5t-88 -47.5t-59.5 -66.5t-25.5 -67.5
q-3 -12 -3 -25q0 -21 7.5 -43t23.5 -34l53 2q21 0 21 -9q0 -4 -9.5 -7.5t-24.5 -3.5q-27 0 -52 10q-45 -6 -91 -24.5t-83.5 -51t-64 -78.5t-36.5 -102q-3 -16 -3 -33q0 -33 14 -58t38 -34.5t47 -9.5l32 1l-1 22q0 55 21.5 110t61 99.5t94.5 71t118 26.5q25 0 38 -14.5
t13 -38.5q0 -33 -22.5 -77t-65 -86.5t-103.5 -74t-132 -40.5q2 -66 35.5 -120.5t99.5 -81.5l-1 -2q-70 28 -110 82t-46 120l-33 -1q-28 0 -56 5.5t-52 21.5t-34 40.5t-10 46.5l3 27q10 55 42.5 101.5t71.5 76t89 51.5t117 31q-24 14 -36 38.5t-12 52.5l1 22q6 34 27 68.5
t59.5 62.5t89.5 45.5t106 17.5zM446 264q-54 0 -103.5 -28.5t-87.5 -75.5t-59 -105t-21 -114q70 9 130 40t101.5 72.5t63.5 85t22 75.5q0 23 -12 36.5t-34 13.5z" />
    <glyph glyph-name="emacron" unicode="&#x113;" horiz-adv-x="262" 
d="M299 483h-1q44 0 72 3l-2 -11l-74 1l-74 -1l2 11q30 -3 77 -3zM1 2q23 0 66.5 20.5t103.5 69t95 95.5h5q-23 -30 -69.5 -74t-105.5 -79.5t-95 -35.5q-14 0 -23.5 14.5t-9.5 38.5q0 36 27.5 91t75 102t88.5 66.5t73 19.5q17 0 25.5 -7.5t8.5 -17.5q0 -15 -14 -34.5
t-36 -35.5t-42 -26q-24 -12 -52.5 -20.5t-49.5 -9.5q-35 -49 -58.5 -95.5t-23.5 -67.5q0 -14 11 -14zM232 327q-17 0 -48 -22.5t-79 -81.5l-31 -41q21 2 49 10.5t50 20.5q34 18 54 46.5t20 48.5q0 19 -15 19z" />
    <glyph glyph-name="Edotaccent" unicode="&#x116;" horiz-adv-x="524" 
d="M684 802q8 0 8 -10q0 -8 -2 -12q-4 -8 -11 -13.5t-13 -5.5q-8 0 -8 10q0 8 2 12q4 8 11 13.5t13 5.5zM526 642l-1 -1q58 0 96 -22.5t38 -64.5q0 -34 -22.5 -66t-59 -50.5t-81.5 -18.5v4q25 0 50.5 8t49 28.5t35 48.5t11.5 50q0 18 -9.5 36.5t-34 29.5t-56.5 11
q-27 0 -58.5 -7.5t-61.5 -22t-61.5 -40t-51 -59.5t-25.5 -67q-3 -12 -3 -25q0 -21 7.5 -43t23.5 -34l53 2q21 0 21 -9q0 -4 -9.5 -7.5t-24.5 -3.5q-27 0 -52 10q-45 -6 -91 -24.5t-83.5 -51t-64 -78.5t-36.5 -102q-3 -16 -3 -33q0 -33 14 -58t38 -34.5t47 -9.5l32 1l-1 21
q0 55 21.5 110.5t60.5 100t94.5 71t118.5 26.5q25 0 38 -14.5t13 -38.5q0 -33 -22.5 -77t-65 -86.5t-103.5 -74t-132 -40.5q2 -66 35.5 -120.5t99.5 -81.5l-1 -2q-70 28 -110 82t-46 120l-33 -1q-28 0 -56 5.5t-52 21.5t-34 40.5t-10 46.5q0 13 3 26q12 67 57.5 122.5
t112 91t150.5 47.5q-24 14 -36 38.5t-12 52.5l1 22q6 34 27 68.5t59.5 62.5t89.5 45.5t106 17.5zM446 264q-54 0 -103.5 -28.5t-87.5 -75.5t-59 -105t-21 -114q70 9 130 40t101.5 72.5t63.5 84.5t22 75q0 24 -12 37.5t-34 13.5z" />
    <glyph glyph-name="edotaccent" unicode="&#x117;" horiz-adv-x="262" 
d="M311 511q9 0 9 -10q0 -6 -3 -12q-3 -8 -10 -13.5t-13 -5.5q-9 0 -9 10q0 6 3 12q3 8 10 13.5t13 5.5zM1 2q23 0 66.5 20.5t103.5 69t95 95.5h5q-23 -30 -69.5 -74t-105.5 -79.5t-95 -35.5q-14 0 -23.5 14.5t-9.5 38.5q0 36 27.5 91t75 102t88.5 66.5t73 19.5
q17 0 25.5 -7.5t8.5 -17.5q0 -15 -14 -34.5t-36 -35.5t-42 -26q-24 -12 -52.5 -20.5t-49.5 -9.5q-35 -49 -58.5 -95.5t-23.5 -67.5q0 -14 11 -14zM232 327q-17 0 -48 -22.5t-79 -81.5l-31 -41q21 2 49 10.5t50 20.5q34 18 54 46.5t20 48.5q0 19 -15 19z" />
    <glyph glyph-name="Eogonek" unicode="&#x118;" horiz-adv-x="525" 
d="M497 423h-1q25 0 50.5 8t49 28.5t35 48.5t11.5 50q0 18 -9.5 36.5t-34 29.5t-56.5 11q-47 0 -94.5 -19t-78.5 -43.5t-54.5 -57.5t-31.5 -76l-2 -25q0 -22 7.5 -43.5t23.5 -33.5l53 2q20 0 20 -9q0 -4 -9.5 -7.5t-23.5 -3.5q-27 0 -52 10q-76 -10 -132.5 -45t-93.5 -89
t-49 -122q-3 -18 -3 -33q0 -33 14 -58t38 -34.5t47 -9.5l32 1l-1 21q0 55 21.5 110.5t60.5 100t94.5 71t118.5 26.5q24 0 37 -14.5t13 -38.5q0 -33 -22.5 -77t-65 -86.5t-103 -74t-131.5 -40.5q2 -66 35.5 -120.5t99.5 -81.5l-1 -2q-70 27 -110 81.5t-46 120.5l-24 -1
q-40 -39 -48 -69l-3 -15q0 -17 12.5 -27t31.5 -10q22 0 44 13l3 -3q-12 -14 -30.5 -22t-35.5 -8q-21 0 -35.5 10t-14.5 26q0 21 13 44.5t53 60.5q-75 0 -112.5 31.5t-37.5 82.5q0 17 2 27q10 55 42.5 101.5t71.5 76t89 51.5t117 31q-24 14 -36 39t-12 53q0 14 2 21
q6 34 26.5 68.5t59 62.5t89.5 45.5t106 17.5q57 0 95.5 -23t38.5 -64q0 -36 -23 -68t-58.5 -50t-81.5 -18v4zM446 264q-54 0 -103.5 -28.5t-87.5 -75.5t-59 -105t-21 -114q70 9 130 40t101.5 72.5t63.5 84.5t22 75q0 24 -12 37.5t-34 13.5z" />
    <glyph glyph-name="eogonek" unicode="&#x119;" horiz-adv-x="263" 
d="M11 -1v-1q-40 -37 -50 -69l-2 -16q0 -16 12.5 -26t30.5 -10q23 0 45 12l3 -2q-12 -14 -30.5 -22t-35.5 -8q-21 0 -35.5 10t-14.5 26q0 21 13 45t53 60q-14 0 -23 14.5t-9 38.5q0 36 27.5 91t75 102t88.5 66.5t73 19.5q17 0 25.5 -7.5t8.5 -17.5q0 -20 -25 -47.5
t-67 -48.5q-24 -12 -52.5 -20.5t-49.5 -9.5q-35 -49 -58.5 -95.5t-23.5 -67.5q0 -14 11 -14q23 0 66.5 20.5t103.5 69t95 95.5h5q-34 -46 -86 -89.5t-97.5 -69t-76.5 -29.5zM232 327q-17 0 -48 -22.5t-79 -81.5l-31 -41q21 2 49 10.5t50 20.5q34 18 54 46.5t20 48.5
q0 8 -4 13.5t-11 5.5z" />
    <glyph glyph-name="Ecaron" unicode="&#x11a;" horiz-adv-x="524" 
d="M558 736l-17 -1l-14 71h4l29 -64l74 64h5l-65 -71zM497 423h-1q25 0 50.5 8t49 28.5t35 48.5t11.5 50q0 18 -9.5 36.5t-34 29.5t-56.5 11q-37 0 -79.5 -13.5t-80 -39t-64.5 -62.5t-35 -81l-2 -25q0 -21 7.5 -43t23.5 -34l53 2q21 0 21 -9q0 -4 -9.5 -7.5t-24.5 -3.5
q-27 0 -52 10q-45 -6 -91 -24.5t-83.5 -51t-64 -78.5t-36.5 -102q-3 -16 -3 -33q0 -33 14 -58t38 -34.5t47 -9.5l32 1l-1 21q0 55 21.5 110.5t60.5 100t94.5 71t118.5 26.5q25 0 38 -14.5t13 -38.5q0 -33 -19.5 -71t-47.5 -70.5t-66.5 -61t-87.5 -48.5t-102 -27
q2 -66 35.5 -120.5t99.5 -81.5l-1 -2q-70 28 -110 82t-46 120l-33 -1q-28 0 -56 5.5t-52 21.5t-34 40.5t-10 46.5q0 13 3 26q12 67 57.5 122.5t112 91t150.5 47.5q-24 14 -36 38.5t-12 52.5l1 22q6 34 27 68.5t59.5 62.5t89.5 45.5t106 17.5q57 0 95.5 -23t38.5 -64
q0 -36 -23 -68t-59 -50t-82 -18zM446 264q-54 0 -103.5 -28.5t-87.5 -75.5t-59 -105t-21 -114q70 9 130 40t101.5 72.5t63.5 85t22 75.5q0 23 -12 36.5t-34 13.5z" />
    <glyph glyph-name="ecaron" unicode="&#x11b;" horiz-adv-x="262" 
d="M185 445l-17 -1l-14 71h5l29 -64l73 64h5l-64 -71zM271 187h-1q-22 -30 -69 -74t-106 -79.5t-94 -35.5q-14 0 -23.5 14.5t-9.5 38.5q0 36 27.5 91t75 102t88.5 66.5t73 19.5q17 0 25.5 -7.5t8.5 -17.5q0 -15 -14 -34.5t-36 -35.5t-42 -26q-24 -12 -52.5 -20.5t-49.5 -9.5
q-35 -49 -58.5 -95.5t-23.5 -67.5q0 -14 11 -14q23 0 66.5 20.5t103.5 69t95 95.5h5zM232 327q-17 0 -48 -22.5t-79 -81.5l-31 -41q21 2 49 10.5t50 20.5q34 18 54 46.5t20 48.5q0 19 -15 19z" />
    <glyph glyph-name="Gbreve" unicode="&#x11e;" horiz-adv-x="719" 
d="M786 703q-14 0 -20.5 14t-4.5 36l3 1q-4 -41 24 -41q13 0 29 10t31 31l2 -2q-15 -22 -32.5 -35.5t-31.5 -13.5zM725 644v-1q55 0 84.5 -31.5t29.5 -81.5q0 -43 -21.5 -90t-63 -87.5t-101.5 -65.5t-132 -25q-28 0 -45 8t-23 21q-17 -37 -56.5 -75.5t-92 -63t-111.5 -24.5
h-5v-11q0 -51 28.5 -81t85.5 -30q27 0 54 8.5t49.5 21t44 28t68 54.5t67 55t43 26t39.5 10l24 1q16 0 16 -7v-1q0 -3 -3 -5.5t-7 -2.5q-2 0 -12 4.5t-17 2.5q-19 -5 -40.5 -27t-94.5 -134q-84 -126 -126 -170.5t-79 -70t-81 -40.5t-92 -15q-68 0 -103 30.5t-35 70.5
q0 32 23 63t60.5 44t73.5 13v-2q-28 0 -59.5 -10t-53 -32t-23.5 -41q-2 -23 13.5 -44.5t42.5 -31t53 -9.5q63 0 128.5 28t131.5 83.5t119 135.5q57 87 85.5 120.5t55.5 42.5v1q-3 0 -12.5 -1.5t-31.5 -12t-75 -56t-71.5 -60.5t-39 -28.5t-40 -23t-43.5 -17t-51 -7.5
q-75 0 -116.5 28t-42.5 105q-48 11 -72.5 44t-24.5 79q0 44 21 93t58.5 90.5t88.5 67t106 25.5l-1 -4q-36 0 -78 -18t-87.5 -63t-70 -101t-24.5 -99q0 -40 21 -69.5t64 -40.5q0 32 10.5 79t45.5 108t92.5 119.5t127.5 103t148.5 71t155.5 26.5zM521 266q45 0 88 16.5
t77.5 44.5t60.5 62.5t45 78t19 84.5q0 38 -20 61.5t-58 23.5q-24 0 -63 -5.5t-87 -24.5t-105.5 -56t-124 -106t-113.5 -157t-52 -157h5q37 0 72 10t68 29.5t68 54.5t50 71l-2 12v5q2 13 9 13q9 0 11 -16q1 -12 7.5 -23t19.5 -16t25 -5z" />
    <glyph glyph-name="gbreve" unicode="&#x11f;" horiz-adv-x="327" 
d="M278 434q-15 0 -21.5 13.5t-4.5 36.5l3 1q-3 -41 25 -41q14 0 30 10.5t30 31.5l1 -3q-15 -22 -32 -35.5t-31 -13.5zM114 4q9 0 27.5 6.5t46.5 27.5t66.5 59.5t75.5 89.5h5q-24 -32 -62.5 -76t-83 -77.5t-74.5 -33.5h-4l-6 -8q-116 -146 -179.5 -205t-104.5 -59
q-10 0 -16 5.5t-6 14.5q0 21 24 58.5t63.5 77.5t87.5 71.5t92 43.5l103 137q-48 -55 -98 -96.5t-71 -41.5q-14 0 -23.5 14.5t-9.5 38.5q0 36 25.5 90.5t70 100.5t84.5 65t72 19q19 0 30 -10t11 -28q0 -17 -15 -47l61 87q5 -8 16 -8q9 0 21 7t19 16q-121 -177 -248 -339zM0 2
q23 0 87.5 57t116.5 127t52 102q0 16 -9 23.5t-21 7.5q-17 0 -40 -12.5t-42 -30.5q-24 -23 -52.5 -60.5t-50.5 -72.5q-23 -39 -37.5 -73t-14.5 -54q0 -14 11 -14zM-187 -266q21 0 82 61.5t166 197.5q-56 -15 -118 -65t-101 -105.5t-39 -77.5q0 -11 10 -11z" />
    <glyph glyph-name="Gdotaccent" unicode="&#x120;" horiz-adv-x="719" 
d="M800 739q-9 0 -9 10q0 6 3 12q3 7 10.5 13t12.5 6q9 0 9 -10q0 -6 -3 -12q-3 -8 -10 -13.5t-13 -5.5zM193 128l-1 -1h-4v-10q0 -51 28.5 -81t85.5 -30q27 0 54 8.5t49.5 21t44 28t68 54.5t67 55t43 26t39.5 10l24 1q16 0 16 -7v-1q0 -3 -3 -5.5t-7 -2.5q-2 0 -12 4.5
t-17 2.5q-19 -5 -40.5 -27t-94.5 -134q-95 -144 -149.5 -195t-109.5 -76t-119 -25q-68 0 -103 30.5t-35 70.5q0 21 11 43t30.5 39t49.5 27t66 10v-1q-28 0 -59.5 -10t-53 -32t-23.5 -41q-2 -23 13.5 -44.5t42.5 -31t53 -9.5q63 0 128.5 28t131.5 83.5t119 135.5
q56 86 85 119.5t56 42.5v2q-21 -1 -47 -15.5t-75 -57t-68 -57.5t-39.5 -28.5t-40 -23t-43.5 -17t-51 -7.5q-75 0 -116.5 28t-42.5 105q-48 11 -72.5 44t-24.5 79q0 44 21 93t58.5 90.5t88.5 67t106 25.5l-1 -4q-23 0 -54.5 -9t-65 -32.5t-65.5 -61t-53.5 -87t-21.5 -92.5
q0 -40 21 -69t63 -40q0 44 14 91t46 102t89 113.5t127.5 103t149 71t155.5 26.5q55 0 85 -32t30 -82q0 -31 -14.5 -72.5t-46 -78.5t-69 -62.5t-86 -40t-102.5 -14.5q-28 0 -45 8.5t-23 21.5q-17 -38 -57 -76.5t-92 -63t-112 -24.5zM733 637q-24 0 -63 -5.5t-87 -24.5
t-105.5 -56.5t-124 -106t-113.5 -157t-52 -156.5h5q37 0 72 10t68 29.5t68 54.5t50 71l-2 12v5q2 13 9 13q9 0 11 -17q1 -18 14 -30.5t38 -12.5q60 0 120 31.5t100.5 85t55 97t14.5 73.5q0 37 -20 60.5t-58 23.5z" />
    <glyph glyph-name="gdotaccent" unicode="&#x121;" horiz-adv-x="327" 
d="M292 470q-9 0 -9 10q0 6 3 12q3 8 10 13.5t13 5.5q9 0 9 -10q0 -6 -3 -12q-3 -8 -10 -13.5t-13 -5.5zM114 4q9 0 27.5 6.5t46.5 27.5t66.5 59.5t75.5 89.5h5q-24 -32 -62.5 -76t-83 -77.5t-74.5 -33.5h-4l-6 -8q-116 -146 -179.5 -205t-104.5 -59q-10 0 -16 5.5t-6 14.5
q0 21 24 58.5t63.5 77.5t87.5 71.5t92 43.5l103 137q-48 -55 -98 -96.5t-71 -41.5q-14 0 -23.5 14.5t-9.5 38.5q0 36 25.5 90.5t70 100.5t84.5 65t72 19q19 0 30 -10t11 -28q0 -17 -15 -47l61 87q5 -8 16 -8q9 0 21 7t19 16q-121 -177 -248 -339zM0 2q23 0 87.5 57
t116.5 127t52 102q0 16 -9 23.5t-21 7.5q-17 0 -40 -12.5t-42 -30.5q-24 -23 -52.5 -60.5t-50.5 -72.5q-23 -39 -37.5 -73t-14.5 -54q0 -14 11 -14zM-187 -266q21 0 82 61.5t166 197.5q-56 -15 -118 -65t-101 -105.5t-39 -77.5q0 -11 10 -11z" />
    <glyph glyph-name="Gcommaaccent" unicode="&#x122;" horiz-adv-x="719" 
d="M193 128h-5v-11q0 -51 28.5 -81t85.5 -30q27 0 54 8.5t49.5 21t44 28t68 54.5t67 55t43 26t39.5 10l24 1q16 0 16 -7v-1q0 -3 -3 -5.5t-7 -2.5q-2 0 -12 4.5t-17 2.5q-19 -5 -40.5 -27t-94.5 -134q-84 -126 -126 -170.5t-79 -70t-81 -40.5t-92 -15q-68 0 -103 30.5
t-35 70.5q0 21 11 43t30.5 39t49.5 27t66 10v-1q-28 0 -59.5 -10t-53 -32t-23.5 -41q-2 -23 13.5 -44.5t42.5 -31t53 -9.5q63 0 128.5 28t131.5 83.5t119 135.5q57 87 85.5 120.5t55.5 42.5v1q-3 0 -12.5 -1.5t-31.5 -12t-75 -56t-71.5 -60.5t-39 -28.5t-40 -23t-43.5 -17
t-51 -7.5q-75 0 -116.5 28t-42.5 105q-48 11 -72.5 44t-24.5 79q0 44 21 93t58.5 90.5t88.5 67t106 25.5l-1 -4q-36 0 -78 -18t-87.5 -63t-70 -101t-24.5 -99q0 -40 21 -69.5t64 -40.5q0 32 10.5 79t45.5 108t92.5 119.5t127.5 103t148.5 71t155.5 26.5q55 0 85 -32t30 -82
q0 -42 -21.5 -89.5t-63 -88t-101.5 -65.5t-132 -25q-28 0 -45 8.5t-23 21.5q-17 -38 -57 -76.5t-92 -63t-112 -24.5zM734 637h-1q-24 0 -63 -5.5t-87 -24.5t-105.5 -56t-124 -106t-113.5 -157t-52 -157h5q37 0 72 10t68 29.5t68 54.5t50 71l-2 12v5q2 13 9 13q9 0 11 -16
q1 -12 7.5 -23t19.5 -16t25 -5q60 0 120 31.5t100.5 85t55 97t14.5 73.5q0 38 -19.5 61t-57.5 23zM248 -91q4 3 17 16t21 29l-8 -3q-6 0 -4 11l4 9q3 7 9 12t10 5t6 -3t2 -6q0 -10 -21 -35.5t-35 -36.5z" />
    <glyph glyph-name="gcommaaccent" unicode="&#x123;" horiz-adv-x="309" 
d="M239 409q-7 0 -7 9q0 10 20.5 35.5t35.5 36.5l1 -2q-24 -20 -38 -45l7 3q7 0 4 -12q0 -4 -3 -9q-3 -6 -9 -11t-11 -5zM114 4q9 0 27.5 6.5t46.5 27.5t66.5 59.5t75.5 89.5h5q-24 -32 -62.5 -76t-83 -77.5t-74.5 -33.5h-4l-6 -8q-128 -162 -188 -213t-96 -51
q-10 0 -16 5.5t-6 14.5q0 21 24 58.5t63.5 77.5t87.5 71.5t92 43.5l103 137q-48 -55 -98 -96.5t-71 -41.5q-14 0 -23.5 14.5t-9.5 38.5q0 36 25.5 90.5t70 100.5t84.5 65t72 19q19 0 30 -10t11 -28t-16 -47l62 87q5 -8 16 -8q9 0 21 7t19 16q-121 -177 -248 -339zM0 2
q23 0 87.5 57t116.5 127t52 102q0 16 -9 23.5t-21 7.5q-18 0 -40.5 -12.5t-41.5 -30.5q-24 -23 -52.5 -60.5t-50.5 -72.5q-23 -39 -37.5 -73t-14.5 -54q0 -14 11 -14zM-187 -266h-1q21 0 82.5 61.5t166.5 197.5q-56 -15 -118 -65t-101 -105.5t-39 -77.5q0 -11 10 -11z" />
    <glyph glyph-name="Hbar" unicode="&#x126;" horiz-adv-x="963" 
d="M1192 605l-2 -1q14 0 22.5 -5.5t8.5 -14.5q0 -2 -2 -5.5t-8 -3.5q-4 0 -7 2.5t-3 6.5q0 17 -11 17q-23 0 -60 -17t-91 -63t-108 -106l5 -4q0 -2 -2 -3.5t-4 -1.5h-6q-47 -54 -108.5 -139t-105.5 -176t-44 -146q0 -33 11.5 -49t43.5 -16q20 0 44.5 9t40 28t18.5 42
q3 -9 3 -17q0 -13 -10 -28.5t-37 -27t-61 -11.5q-46 0 -69 23t-23 64q0 55 37.5 137t98.5 167h-18l-90 2l-46 -1q-89 -125 -171 -203.5t-162 -119.5t-160 -41q-33 0 -69.5 13t-62.5 46.5t-26 75.5q0 30 12 70t41.5 85.5t80 91.5t119.5 76q-16 29 -16 64q0 37 19 77.5
t57 74.5t98 55.5t137 21.5q65 0 182.5 -31.5t177.5 -31.5q2 0 7.5 1.5t23 10.5t18.5 10l7 1q5 0 8.5 -3.5t2.5 -7.5l-5 -7q-4 -3 -21 -7t-41 -4q-60 0 -178.5 22t-183.5 22q-73 0 -131 -17.5t-95.5 -46.5t-56 -65t-18.5 -73q0 -35 17 -63q36 15 80.5 24t85.5 9
q32 0 60.5 -8.5t45 -29t16.5 -47.5q0 -34 -23 -74t-63 -74.5t-93 -56t-109 -21.5q-35 0 -57 11t-25.5 22t-2.5 17l3 1q2 -10 14.5 -19.5t67.5 -9.5t107.5 19.5t92 51.5t62 68.5t22.5 67.5q0 34 -29.5 55.5t-88.5 21.5q-41 0 -84.5 -9t-78.5 -23q21 -31 63 -49.5t100 -18.5
q34 0 71 6v-2q-47 -12 -91 -14h-4q-54 0 -92 20.5t-56 53.5q-104 -46 -171 -131.5t-67 -160.5q0 -24 14 -51t51.5 -47t82.5 -20q216 0 466 321h-24l-38 -1q-5 0 -8 4q3 5 9 5l40 -1l26 -1l32 43q29 39 71 91h-15l-38 -1q-5 0 -8 4q0 5 9 5l39 -1h19q68 81 120 122.5t74 41.5
q3 0 3 -1.5t-3 -1.5q-11 0 -38 -18t-63.5 -53.5t-80.5 -89.5l60 -1l110 1q37 39 90 84.5t111 76t105 30.5zM738 274l31 1q55 72 109 131l-105 1h-63q-37 -47 -70 -96l-27 -39h43z" />
    <glyph glyph-name="hbar" unicode="&#x127;" horiz-adv-x="367" 
d="M415 575l-73 -99h60l-10 -11h-57l-128 -173q-7 -10 -33 -38.5t-33 -41.5q102 115 143 115q22 0 33 -11.5t11 -31.5q0 -21 -12.5 -50t-34.5 -58q-79 -105 -96.5 -131t-17.5 -35q0 -6 6 -6q28 0 89.5 58.5t109.5 124.5h5q-49 -68 -111.5 -127.5t-91.5 -59.5q-12 0 -18 10
t-6 21q0 18 18.5 51.5t78.5 111.5q20 26 38.5 58.5t18.5 51.5t-20 19q-40 0 -151 -131l-147 -194q-6 12 -16 12q-12 0 -33 -18l240 326l109 148h-59l10 10h57l45 61q3 -6 11 -6q13 0 32.5 14t32.5 30z" />
    <glyph glyph-name="Imacron" unicode="&#x12a;" horiz-adv-x="670" 
d="M776 774h-1q44 0 72 3l-2 -11l-74 1l-74 -1l2 11q30 -3 77 -3zM709 679q25 -11 38.5 -40t13.5 -70q0 -61 -26 -142t-66.5 -154t-76.5 -121q24 -8 59 -10v-4q-34 0 -64 8q-61 -79 -127 -132.5t-134.5 -81.5t-137.5 -28q-82 0 -123.5 37t-41.5 96q0 49 28 103t77.5 99.5
t115 73.5t135.5 28q37 0 67 -8l-2 33q0 62 22 120.5t58 103t77.5 70t76.5 25.5q16 0 31 -6zM520 206q22 -30 53 -46q39 47 82.5 119t71.5 153t28 142q0 79 -46 99q-15 5 -27 5q-32 0 -68.5 -26t-68 -71t-50.5 -102.5t-19 -116.5l2 -43q47 -28 47 -81q0 -14 -5 -32zM196 -54
h-1q65 0 129 24t126 71t117 112q-29 11 -54 33q-12 -29 -36 -57.5t-57.5 -51t-75.5 -35.5t-88 -13q-41 0 -63.5 12t-29.5 39l3 1q5 -33 69 -31q43 0 93.5 15t99.5 53t71 82q-23 26 -36 60t-17 67q-24 7 -63 7q-69 0 -132.5 -25.5t-104.5 -61.5t-64.5 -71t-32 -64.5
t-8.5 -49.5q0 -30 16.5 -58t53 -43t85.5 -15zM509 223q4 13 4 30t-8 33.5t-26 26.5q6 -51 30 -90z" />
    <glyph glyph-name="imacron" unicode="&#x12b;" 
d="M310 470l-74 1l-74 -1l2 11q30 -3 76 -3q42 0 72 3zM210 343h-1q-12 -18 -122 -167q-5 -6 -41.5 -54.5t-55 -75.5t-18.5 -36q0 -6 6 -6q28 0 89.5 58.5t109.5 124.5h5q-49 -68 -111.5 -127.5t-91.5 -59.5q-12 0 -18 10t-6 21q0 13 10.5 36.5t34 56t63.5 84.5l91 120
q4 -8 15 -8q10 0 21.5 7t19.5 16z" />
    <glyph glyph-name="Iogonek" unicode="&#x12e;" horiz-adv-x="670" 
d="M761 569q0 -85 -48 -201.5t-122 -215.5q30 -10 60 -10v-4q-34 0 -64 8q-15 -19 -55.5 -65t-94 -85.5t-114.5 -65t-129 -26.5q-20 -19 -32.5 -37.5t-16.5 -31.5q-2 -6 -2 -16q0 -17 12 -27t31 -10t45 13l3 -3q-12 -13 -31 -21t-35 -8q-21 0 -36 10t-15 26q0 20 12.5 43.5
t53.5 61.5q-79 1 -119.5 37.5t-40.5 95.5q0 49 28 103t77.5 99.5t115 73.5t135.5 28q37 0 67 -8l-2 34q0 61 22 119.5t58 103t77.5 70t76.5 25.5q16 0 31 -6q52 -22 52 -110zM476 362q0 -29 2 -43q47 -28 47 -81q0 -14 -5 -32q22 -30 53 -46q39 47 82.5 119t71.5 153t28 142
q0 79 -46 99q-15 5 -27 5q-32 0 -68.5 -26t-68 -71t-50.5 -102.5t-19 -116.5zM196 -54h-1q65 0 129 23.5t126 70.5t117 112q-30 13 -54 34q-12 -29 -36 -57.5t-57.5 -51t-75.5 -35.5t-88 -13q-41 0 -63.5 12t-29.5 39l3 1q5 -33 69 -31q43 0 93.5 15t99.5 53t71 82
q-23 26 -36 60t-17 67q-30 7 -63 7q-69 0 -132.5 -25.5t-110.5 -66.5t-73 -89t-26 -91q0 -31 16 -59t53 -42.5t86 -14.5zM509 223q4 13 4 30t-8 33.5t-26 26.5q6 -51 30 -90z" />
    <glyph glyph-name="iogonek" unicode="&#x12f;" 
d="M295 506q4 0 6.5 -3t2.5 -7q0 -6 -3 -12q-4 -8 -11 -13.5t-13 -5.5q-8 0 -8 10q0 6 3 12q3 8 10 13.5t13 5.5zM210 343h-1q-25 -37 -123 -167q-11 -15 -44.5 -59.5t-51.5 -71t-18 -35.5q0 -6 6 -6q28 0 89.5 58.5t109.5 124.5h5q-49 -68 -109 -125.5t-90 -61.5
q-19 -18 -32 -37t-17 -32q-3 -9 -3 -16q0 -17 12.5 -27t31.5 -10q22 0 44 13l3 -3q-10 -11 -26.5 -20t-38.5 -9q-21 0 -36 10t-15 26q0 20 13 43.5t54 62.5q-8 2 -13 11.5t-5 18.5q0 13 10.5 36.5t34 56t63.5 84.5q36 46 90 120q5 -8 16 -8q10 0 21.5 7t19.5 16z" />
    <glyph glyph-name="Idotaccent" unicode="&#x130;" horiz-adv-x="671" 
d="M788 802q9 0 9 -10q0 -6 -3 -12q-3 -7 -10.5 -13t-12.5 -6q-9 0 -9 10q0 6 3 12q3 8 10 13.5t13 5.5zM709 679q25 -11 38.5 -40t13.5 -70q0 -61 -26 -142t-66.5 -154t-76.5 -121q28 -10 59 -10v-4q-34 0 -64 8q-61 -79 -127 -132.5t-134.5 -81.5t-137.5 -28
q-82 0 -123.5 37t-41.5 96q0 49 28 103t77.5 99.5t115 73.5t135.5 28q37 0 67 -8l-2 33q0 62 22 120.5t58 103t77.5 70t76.5 25.5q16 0 31 -6zM520 206q22 -30 53 -46q39 47 82.5 119t71.5 153t28 142q0 79 -46 99q-15 5 -27 5q-32 0 -68.5 -26t-68 -71t-50.5 -102.5
t-19 -116.5l2 -43q47 -28 47 -81q0 -14 -5 -32zM196 -54h-1q65 0 129 24t126 71t117 112q-29 11 -54 33q-12 -29 -36 -57.5t-57.5 -51t-75.5 -35.5t-88 -13q-41 0 -63.5 12t-29.5 39l3 1q5 -33 69 -31q43 0 93.5 15t99.5 53t71 82q-23 26 -36 60t-17 67q-30 7 -63 7
q-69 0 -132.5 -25.5t-110.5 -66.5t-73 -89t-26 -91q0 -30 16.5 -58t53 -43t85.5 -15zM509 223q4 13 4 30t-8 33.5t-26 26.5q6 -51 30 -90z" />
    <glyph glyph-name="dotlessi" unicode="&#x131;" horiz-adv-x="175" 
d="M210 343q-22 -31 -72 -98.5t-51 -68.5q-79 -105 -96.5 -131t-17.5 -35q0 -6 6 -6q28 0 89.5 58.5t109.5 124.5h5q-49 -68 -111.5 -127.5t-91.5 -59.5q-12 0 -18 10t-6 21q0 13 13 41.5t94 136.5l91 119q4 -8 15 -8q10 0 21.5 7t19.5 16z" />
    <glyph glyph-name="IJ" unicode="&#x132;" horiz-adv-x="1544" 
d="M761 569q0 -61 -26 -142t-66.5 -154t-76.5 -121q26 -9 59 -9v-4q-34 -1 -64 8q-39 -52 -85 -96t-96.5 -77t-106 -51.5t-111.5 -18.5q-82 0 -123.5 37t-41.5 96q0 49 28 103t77.5 99.5t115 73.5t135.5 28q37 0 67 -8l-2 34q0 61 22 119.5t58 103t77.5 70t76.5 25.5
q16 0 31 -6q52 -22 52 -110zM476 362l2 -43q47 -28 47 -81q0 -14 -5 -32q22 -30 53 -46q39 47 82.5 119t71.5 153.5t28 141.5q0 79 -46 99q-15 5 -27 5q-32 0 -68.5 -26t-68 -71t-50.5 -102.5t-19 -116.5zM1696 605l-1 -1q23 0 23 -8l-2 -3q-4 -4 -17 -4q-11 0 -23 4
q-19 6 -53.5 -18t-73.5 -81l-34 -63l32 2l33 1q2 0 4 -1.5t2 -3.5q-2 -4 -6 -4h-27l-41 1q-41 -80 -91 -163q33 0 78 8q35 6 70 19l1 -2q-52 -23 -90 -30l-4 -1q-29 -5 -62 -7q-100 -163 -197.5 -264t-187.5 -146t-174 -45q-74 0 -111.5 34t-37.5 89q0 78 65 169.5
t169 148.5t219 57q57 0 86.5 -23t29.5 -59q0 -34 -25 -75t-68 -77t-98 -58.5t-112 -22.5q-35 0 -61 13.5t-21 37.5l3 1q1 -10 13 -19.5t67 -9.5q27 0 63.5 7t75 25t74.5 46.5t60.5 65.5t24.5 68q0 32 -28 52t-84 20q-42 0 -96.5 -11.5t-110.5 -40.5t-107.5 -74t-85.5 -104.5
t-34 -108.5t35 -78.5t106 -29.5q80 0 165.5 40t179 131.5t189.5 240.5q-38 0 -75 9.5t-66.5 31.5t-47.5 56t-18 77q0 39 16.5 77t48.5 69t79 49t104 18q32 0 107.5 -18t114.5 -18q17 4 33 4zM1545 497h-1q59 82 94 97q-30 0 -97 3.5t-98 3.5q-43 0 -86.5 -10.5t-82.5 -37.5
t-57.5 -64.5t-18.5 -70.5q0 -30 13 -58.5t39.5 -50t66.5 -34.5t90 -13q37 58 96 164h-16l-45 -1l-32 -1q-6 0 -8 4q0 5 8 5l34 -1l44 -1h18q33 58 39 66zM195 -55h-1q77 0 151 33t130 82.5t91 91.5q-30 11 -53 33q-19 -45 -59.5 -81t-91 -55.5t-107.5 -19.5q-41 0 -63.5 12
t-29.5 38l3 1q5 -31 69 -31q43 0 93.5 15.5t99.5 53t71 81.5q-22 26 -35.5 60.5t-17.5 66.5q-24 7 -63 7q-52 0 -109.5 -17t-108.5 -55t-79 -79t-36.5 -71t-8.5 -50q0 -30 16.5 -58t53 -43t85.5 -15zM508 222q5 17 5 30q0 18 -9 34.5t-26 26.5q8 -54 30 -91z" />
    <glyph glyph-name="ij" unicode="&#x133;" horiz-adv-x="298" 
d="M258 464v-1q-6 0 -9.5 4.5t-3.5 11.5q0 8 4 17q6 11 16 19t18 8q2 0 7.5 -2.5t5.5 -12.5q0 -7 -5 -17q-5 -11 -15 -19t-18 -8zM413 523h-1q13 0 13 -15q0 -9 -4 -17q-5 -11 -15 -19.5t-18 -8.5q-2 0 -7.5 2.5t-5.5 12.5q0 9 4 17q6 11 16 19.5t18 8.5zM294 320v-1
q4 0 15.5 4t24.5 19q-137 -198 -248 -339q9 0 27.5 6.5t46.5 27.5t66.5 59.5t75.5 89.5h5q-24 -32 -62.5 -76t-83 -77.5t-74.5 -33.5h-5l-5 -7q-128 -162 -188 -213t-96 -51q-10 0 -16 5.5t-6 14.5q0 27 41 83t105.5 104.5t119.5 62.5q47 61 93 124q-45 -52 -87 -87t-64 -35
q-12 0 -18 10t-6 21q0 13 10.5 36.5t34 56t63.5 84.5q36 46 90 120q5 -8 16 -8q9 0 21 7t19 16q-25 -37 -123 -167q-11 -15 -44.5 -59.5t-51.5 -71t-18 -35.5q0 -6 6 -6q28 0 89.5 58.5t109.5 124.5h1l100 141q5 -8 16 -8zM-216 -266q21 0 82.5 61.5t166.5 197.5
q-56 -15 -118 -65t-101 -105.5t-39 -77.5q0 -11 9 -11z" />
    <glyph glyph-name="Kcommaaccent" unicode="&#x136;" horiz-adv-x="1017" 
d="M868 566q-13 0 -41 -27.5t-67.5 -83t-90.5 -142.5q-54 -92 -116 -168t-129 -129.5t-138.5 -82.5t-140.5 -29q-33 0 -69.5 13t-62.5 46.5t-26 75.5q0 78 61 166.5t159 140.5q-13 27 -13 60q0 37 18.5 77t57 74.5t98.5 56t137 21.5q65 0 165.5 -27.5t136.5 -32t58 -4.5
l37 4q19 0 19 -7q0 -3 -5.5 -6t-12.5 -3q-10 0 -20.5 3.5t-14.5 3.5zM656 316h-1q143 220 193 250q-54 1 -168 22t-177 21q-74 0 -132 -17t-95.5 -46.5t-56 -65.5t-18.5 -73q0 -32 14 -57q94 47 199 47q32 0 60.5 -8.5t45 -29t16.5 -47.5q0 -34 -23 -74t-63 -74.5t-93 -56
t-109 -21.5q-24 0 -46.5 7t-31 19.5t-6.5 24.5h2q2 -10 14.5 -19t67.5 -9t107.5 19.5t92 51.5t62 68.5t22.5 67.5q0 34 -30 55.5t-88 21.5q-100 0 -196 -48q15 -24 42.5 -41.5t61 -24.5t62.5 -7q32 0 71 6l1 -2q-54 -13 -92 -13h-4q-27 0 -57.5 7.5t-55 26.5t-37.5 44
q-45 -24 -93 -66.5t-80.5 -101t-32.5 -109.5q0 -24 14 -51t52 -47t83 -20q67 0 137.5 30t136 81.5t124 118t105.5 140.5zM1203 593l-1 -1q12 0 18 -3t6 -7q0 -5 -6.5 -9.5t-14.5 -4.5q-15 0 -20 18q-18 0 -39 -9t-48 -33t-91.5 -101t-96 -106t-56 -46t-57 -31.5t-70.5 -17.5
q28 -8 45.5 -30.5t26 -62t8.5 -139.5q0 -79 6.5 -126t29.5 -77.5t68 -34.5l31 -1q58 0 96 20l8 3q0 -2 -7 -5q-19 -10 -47.5 -16.5t-58.5 -6.5l-31 1q-86 8 -124 48t-38 111q0 31 11 96t13 96l2 34q0 81 -55 89h-3q-6 0 -14.5 -2.5t-11.5 -2.5q-5 0 -9 3.5t-4 7.5q0 8 10 8
q3 0 12 -4t14 -5h4q29 0 57.5 14t52.5 35.5t41 40t74 84.5q91 105 151 139t118 34zM439 -111q4 0 6 -3t2 -6q0 -10 -21 -35.5t-35 -36.5l-2 2q11 8 22.5 22t16.5 23l-8 -3q-6 0 -4 12l3 9q9 16 20 16z" />
    <glyph glyph-name="kcommaaccent" unicode="&#x137;" horiz-adv-x="333" 
d="M343 302h-1q0 -21 -22.5 -45.5t-56.5 -37.5t-65 -16q26 -10 26 -40q0 -29 -41 -74.5t-46.5 -58.5t-5.5 -20q0 -6 6 -6q28 0 89.5 58.5t109.5 124.5h5q-49 -68 -111.5 -127.5t-91.5 -59.5q-12 0 -19 11t-7 21q0 13 4.5 26.5t13.5 26.5t40 45t31 53q0 8 -6.5 13.5
t-17.5 5.5q-3 0 -12.5 -0.5t-9.5 1.5q0 5 5 5l16 -2q29 0 58 15t48.5 46t19.5 52q0 13 -13 13q-9 0 -28 -7q-31 -12 -67 -48l-59 -79l-146 -200q-6 12 -18 12q-15 0 -36 -18q102 134 201 271l156 214q4 -5 12 -5q13 0 32 14t33 30q-87 -124 -106 -148q-16 -21 -41.5 -50
t-27.5 -36q54 54 101 54q23 0 35.5 -9.5t12.5 -24.5zM58 -12q4 0 6 -3t2 -6q0 -10 -21 -35.5t-35 -36.5l-1 2q4 3 17 16t21 29l-8 -3q-6 0 -4 12l3 9q9 16 20 16z" />
    <glyph glyph-name="Lacute" unicode="&#x139;" horiz-adv-x="794" 
d="M1105 884h-1q5 0 8 -3.5t1 -9.5q-9 -31 -69.5 -58.5t-93.5 -27.5v2q13 0 41 9t59 30.5t38 44.5q1 2 4.5 7.5t12.5 5.5zM878 633q24 0 38.5 -13t14.5 -35q0 -38 -39.5 -90.5t-105.5 -107t-147 -101.5t-158 -76q-169 -176 -351 -215q151 -38 234.5 -51.5t142.5 -13.5
q82 0 136 22q21 9 40.5 26.5t34.5 40.5l1 -2q-45 -71 -104.5 -103t-135.5 -32l-32 2q-34 3 -91 16t-128 37.5t-134 50.5q-40 -6 -83 -6q-20 0 -33 6.5t-13 14.5t11 13t32 5q19 0 81 -15l33 -9q49 10 100.5 34t101 65t95.5 94q-62 -16 -108 -16q-42 0 -81 10.5t-68.5 31
t-46.5 51t-17 69.5q0 48 28.5 92t77 76t110.5 49.5t125 17.5q53 0 109 -14v-2q-11 3 -42 8.5t-64 5.5q-60 0 -116 -17.5t-99 -49t-67.5 -74.5t-24.5 -91q0 -32 10.5 -62.5t37.5 -54.5t63 -33t64 -9q51 0 114 17l17 21q31 38 85.5 111.5t82.5 110t57.5 69t63.5 62.5t73 47
t75 17zM487 216q76 29 155 76t143.5 100t103 104.5t38.5 88.5q0 16 -8 28.5t-29 12.5q-42 0 -90.5 -39t-129 -144.5t-117 -150t-66.5 -76.5zM10 -14q36 0 76 5q-24 10 -51.5 17t-43.5 7q-9 0 -15.5 -3.5t-6.5 -8.5q0 -6 10.5 -11.5t30.5 -5.5z" />
    <glyph glyph-name="lacute" unicode="&#x13a;" 
d="M432 660q1 6 6 9.5t10 3.5t7.5 -3.5t1.5 -9.5q-9 -31 -69.5 -58.5t-94.5 -27.5v2q31 0 80 26.5t59 57.5zM366 559q-38 -56 -279 -383q-5 -6 -41.5 -54.5t-55 -75.5t-18.5 -36q0 -6 6 -6q28 0 89.5 58.5t109.5 124.5h5q-49 -68 -111.5 -127.5t-91.5 -59.5q-12 0 -18 10
t-6 21q0 13 10.5 36.5t34 56t63.5 84.5l241 326q5 -6 12 -6q11 0 26.5 10t23.5 21z" />
    <glyph glyph-name="Lcommaaccent" unicode="&#x13b;" horiz-adv-x="794" 
d="M482 210h-1q-169 -176 -351 -215q151 -38 234.5 -51.5t142.5 -13.5q82 0 136 22q21 9 40.5 26.5t34.5 40.5l1 -2q-45 -71 -104.5 -103t-135.5 -32l-32 2q-34 3 -91 16t-128 37.5t-134 50.5q-40 -6 -83 -6q-20 0 -33 6.5t-13 14.5t11.5 13t31.5 5q19 0 81 -15l33 -9
q49 10 100.5 34t101 65t95.5 94q-61 -16 -108 -16q-42 0 -81 10.5t-68.5 31t-46.5 51t-17 69.5q0 48 28.5 92t77 76t110.5 49.5t125 17.5q53 0 109 -14v-2q-11 3 -41.5 8.5t-64.5 5.5q-44 0 -95 -11.5t-103.5 -44t-80 -80.5t-27.5 -96q0 -32 10.5 -62.5t34 -51.5t57 -33
t73.5 -12q50 0 113 17l17 21q32 39 99.5 130t94.5 123.5t50.5 57.5t54.5 50t67 40.5t72 15.5q24 0 38.5 -13t14.5 -35q0 -38 -39.5 -90.5t-105.5 -106.5t-147 -101.5t-158 -76.5zM890 626q-32 0 -65.5 -21t-69.5 -59.5t-123 -153t-145 -176.5q56 22 126.5 59.5t149 97.5
t122 117.5t43.5 94.5q0 21 -10.5 31t-27.5 10zM11 -14h-1q37 0 77 5q-25 10 -52.5 17t-43.5 7q-9 0 -15.5 -3.5t-6.5 -8.5q0 -7 11.5 -12t30.5 -5zM288 -95q8 0 8 -10t-21 -35t-35 -36l-2 2q5 3 17 15.5t21 29.5l-7 -3q-6 0 -4 11l3 9q9 17 20 17z" />
    <glyph glyph-name="lcommaaccent" unicode="&#x13c;" horiz-adv-x="175" 
d="M-21 4q28 0 89.5 58.5t109.5 124.5h5q-49 -68 -111.5 -127.5t-91.5 -59.5q-12 0 -18 10t-6 21q0 13 13 41.5t94 136.5q44 57 241 325q5 -6 12 -6q11 0 26.5 10t23.5 21q-38 -56 -279 -383q-79 -105 -96.5 -131t-17.5 -35q0 -6 6 -6zM-18 -12q4 0 6 -3t2 -6
q0 -10 -21 -35.5t-35 -36.5l-1 2q24 20 38 45l-8 -3q-6 0 -4 12l3 9q3 6 9.5 11t10.5 5z" />
    <glyph glyph-name="Lcaron" unicode="&#x13d;" horiz-adv-x="794" 
d="M879 633h-1q25 0 39 -13t14 -35q0 -38 -39.5 -90.5t-105.5 -107t-147 -101.5t-158 -76q-169 -176 -351 -215q151 -38 234.5 -51.5t142.5 -13.5q82 0 136 22q21 9 40.5 26.5t34.5 40.5l1 -2q-45 -71 -104.5 -103t-135.5 -32l-32 2q-34 3 -91 16t-128 37.5t-134 50.5
q-40 -6 -83 -6q-20 0 -33 6.5t-13 14.5t11.5 13t31.5 5q19 0 81 -15l33 -9q49 10 100.5 34t101 65t95.5 94q-61 -16 -108 -16q-42 0 -81 10.5t-68.5 31t-46.5 51t-17 69.5q0 48 28.5 92t77 76t110.5 49.5t125 17.5q53 0 109 -14v-2q-11 3 -41.5 8.5t-64.5 5.5
q-44 0 -95 -11.5t-103.5 -44t-80 -80.5t-27.5 -96q0 -32 10.5 -62.5t34 -51.5t57 -33t73.5 -12q50 0 113 17l17 21q32 39 99.5 130t94.5 123.5t50.5 57.5t54.5 50t67 40.5t72 15.5zM487 216q56 22 126.5 59.5t149 97.5t122 117.5t43.5 94.5q0 21 -10.5 31t-27.5 10
q-32 0 -65.5 -21t-69.5 -59.5t-123 -153t-145 -176.5zM1007 595h-1q6 0 9.5 -5.5t2.5 -12.5q-2 -8 -25.5 -42t-29.5 -34q1 3 6.5 14t10 27t8.5 35q1 7 7 12.5t12 5.5zM10 -14q36 0 76 5q-24 10 -51.5 17t-43.5 7q-9 0 -15.5 -3.5t-6.5 -8.5q0 -6 10.5 -11.5t30.5 -5.5z" />
    <glyph glyph-name="lcaron" unicode="&#x13e;" horiz-adv-x="300" 
d="M366 559q-38 -56 -279 -383q-79 -105 -96.5 -131t-17.5 -35q0 -6 6 -6q28 0 89.5 58.5t109.5 124.5h5q-49 -68 -111.5 -127.5t-91.5 -59.5q-12 0 -18 10t-6 21q0 13 13 41.5t94 136.5q44 57 241 325q5 -6 12 -6q11 0 26.5 10t23.5 21zM412 523q6 0 9 -5.5t2 -12.5
q-2 -8 -25.5 -42t-29.5 -34q0 1 9 21t16 55q1 7 7 12.5t12 5.5z" />
    <glyph glyph-name="Ldot" unicode="&#x13f;" horiz-adv-x="794" 
d="M932 585h-1q0 -41 -46 -99t-121 -116l1 -6q0 -7 -5 -17q-5 -11 -15 -19.5t-18 -8.5q-2 0 -7.5 2.5t-5.5 11.5q-120 -81 -233 -123q-169 -176 -351 -215q151 -38 234.5 -51.5t142.5 -13.5q82 0 136 22q21 9 40.5 26.5t34.5 40.5l1 -2q-45 -71 -104.5 -103t-135.5 -32
l-32 2q-34 3 -91 16t-128 37.5t-134 50.5q-40 -6 -83 -6q-20 0 -33 6.5t-13 14.5t11.5 13t31.5 5q19 0 81 -15l33 -9q49 10 100.5 34t101 65t95.5 94q-61 -16 -108 -16q-42 0 -81 10.5t-68.5 31t-46.5 51t-17 69.5q0 48 28.5 92t77 76t110.5 49.5t125 17.5q53 0 109 -14v-2
q-11 3 -41.5 8.5t-64.5 5.5q-44 0 -95 -11.5t-103.5 -44t-80 -80.5t-27.5 -96q0 -32 10.5 -62.5t34 -51.5t57 -33t73.5 -12q50 0 113 17l17 21q32 39 99.5 130t94.5 123.5t50.5 57.5t54.5 50t67 40.5t72 15.5q24 0 38.5 -13t14.5 -35zM762 373q74 56 119.5 113.5t45.5 98.5
q0 20 -10.5 30.5t-26.5 10.5q-42 0 -90.5 -39t-129 -144.5t-117 -150t-66.5 -76.5q54 21 116 54.5t111 67.5l4 13q6 11 16 19.5t18 8.5q7 0 10 -6zM10 -14q46 0 76 5q-24 10 -51.5 17t-43.5 7q-22 0 -22 -13q0 -6 10.5 -11t30.5 -5z" />
    <glyph glyph-name="ldot" unicode="&#x140;" horiz-adv-x="175" 
d="M366 559q-38 -56 -279 -383q-79 -105 -96.5 -131t-17.5 -35q0 -6 6 -6q28 0 89.5 58.5t109.5 124.5h5q-49 -68 -111.5 -127.5t-91.5 -59.5q-12 0 -18 10t-6 21q0 13 13 41.5t94 136.5q44 57 241 325q5 -6 12 -6q11 0 26.5 10t23.5 21zM216 302q4 0 7 -3.5t3 -8.5l-3 -12
q-4 -8 -12 -14.5t-14 -6.5q-9 0 -9 11l3 13q4 8 11.5 14.5t13.5 6.5z" />
    <glyph glyph-name="Lslash" unicode="&#x141;" horiz-adv-x="794" 
d="M482 210h-1q-38 -41 -87 -82l125 15v-6l-133 -16q-123 -98 -256 -126q151 -38 234.5 -51.5t142.5 -13.5q82 0 136 22q21 9 40.5 26.5t34.5 40.5l1 -2q-45 -71 -104.5 -103t-135.5 -32l-32 2q-34 3 -91 16t-129 37.5t-133 50.5q-40 -6 -83 -6q-20 0 -33 6.5t-13 14.5
t11 13t32 5q19 0 81 -15l33 -9q126 27 227 120l-110 -13l3 6l114 14q27 25 63 66q-61 -16 -108 -16q-42 0 -81 10.5t-68.5 31t-46.5 51t-17 69.5q0 48 28.5 92t77 76t110.5 49.5t125 17.5q53 0 109 -14v-2q-11 3 -41.5 8.5t-64.5 5.5q-44 0 -95 -11.5t-103.5 -44t-80 -80.5
t-27.5 -96q0 -32 10.5 -62.5t34 -51.5t57 -33t73.5 -12q50 0 113 17l17 21q32 39 99.5 130t94.5 123.5t50.5 57.5t54.5 50t67 40.5t72 15.5q24 0 38.5 -13t14.5 -35q0 -38 -39.5 -90.5t-105.5 -106.5t-147 -101.5t-158 -76.5zM890 626q-42 0 -90.5 -39t-129 -144.5
t-117 -150t-66.5 -76.5q76 29 155 76t143.5 100t103 104.5t38.5 88.5q0 16 -8 28.5t-29 12.5zM10 -14q37 0 77 5q-25 10 -52.5 17t-43.5 7q-9 0 -15.5 -3.5t-6.5 -8.5q0 -6 10.5 -11.5t30.5 -5.5z" />
    <glyph glyph-name="lslash" unicode="&#x142;" 
d="M146 256l-59 -80q-5 -6 -41.5 -54.5t-55 -75.5t-18.5 -36q0 -6 6 -6q28 0 89.5 58.5t109.5 124.5h5q-49 -68 -111.5 -127.5t-91.5 -59.5q-12 0 -18 10t-6 21q0 13 10.5 36.5t34 56t63.5 84.5l32 42l-55 -6l3 6l56 6l205 278q5 -6 12 -6q11 0 26.5 10t23.5 21
q-10 -15 -215 -296l62 7v-6z" />
    <glyph glyph-name="Nacute" unicode="&#x143;" horiz-adv-x="1120" 
d="M1378 884h-1q5 0 8 -3.5t1 -9.5q-9 -31 -69.5 -58.5t-93.5 -27.5v2q13 0 41 9t59 30.5t38 44.5q1 2 4.5 7.5t12.5 5.5zM1279 600l-1 -1q12 0 19 -2.5t8 -12.5q0 -2 -2 -5.5t-8 -3.5q-4 0 -7 3.5t-4 10.5q0 7 -5 7q-19 0 -50.5 -19t-82.5 -76t-108 -137.5t-117.5 -171.5
t-87.5 -131t-43 -58.5t-22 -18.5t-13 9.5t-7 22.5q0 18 8 47q11 41 37.5 99.5t58.5 118.5t97.5 177t64.5 130q0 8 -6 8q-10 0 -34 -21.5t-115.5 -140.5t-147.5 -184q-149 -176 -278 -261.5t-243 -85.5q-33 0 -65 8t-56.5 28t-39.5 50.5t-15 73.5q0 47 21.5 99.5t55.5 92
t65 63.5q-19 21 -28 48.5t-9 51.5q0 37 16 75t50.5 70t90.5 51.5t130 19.5q65 0 170 -32.5t141.5 -38t58.5 -5.5q94 0 196 44l1 -2q-105 -45 -196 -45q-60 0 -183.5 27t-187.5 27q-53 0 -105 -11t-92 -36t-64 -62t-24 -82q0 -55 43 -95q102 74 236 74q68 0 100 -28t32 -70
q0 -34 -19.5 -71.5t-55 -70t-84 -52t-101.5 -19.5q-35 0 -63.5 13.5t-27.5 37.5h2q3 -10 17 -19t69 -9q39 0 83 12.5t87.5 43t66 70t22.5 70.5q0 39 -32.5 63.5t-95.5 24.5q-65 0 -125 -20t-107 -54q55 -47 149 -47q32 0 71 6v-2q-51 -13 -94 -13q-44 0 -78 13.5t-56 36.5
q-29 -22 -60 -57.5t-51 -83t-20 -88.5q0 -61 41.5 -99.5t122.5 -38.5q7 0 26.5 1t64.5 10t110 41t132.5 85.5t129 118t106.5 119t87 108t62.5 79.5t38.5 46t32.5 33t25.5 13q5 0 11.5 -5.5t6.5 -19.5q0 -33 -23 -94.5t-62 -137t-101 -187t-73 -139.5q-4 -9 -4 -19t5 -10
q7 0 29 28t109 160t129 189.5t69.5 91.5t56 65t60.5 54.5t58 23.5z" />
    <glyph glyph-name="nacute" unicode="&#x144;" horiz-adv-x="366" 
d="M397 593q5 0 7.5 -3.5t1.5 -9.5q-9 -31 -69.5 -58.5t-94.5 -27.5v2q13 0 41 9t59.5 30.5t38.5 44.5q1 6 6 9.5t10 3.5zM169 4q28 0 89.5 58.5t109.5 124.5h5q-49 -68 -111.5 -127.5t-91.5 -59.5q-12 0 -18 10t-6 21q0 18 19 53.5t76 109.5q22 28 40.5 59.5t18.5 50.5
q0 9 -5 14t-13 5q-10 0 -21 -6q-2 -1 -9.5 -6t-28 -23.5t-61 -70.5t-95 -133.5t-57.5 -85.5q-7 5 -23 5t-26 -5q7 11 23 35t90 132.5t74 143.5q0 14 -8 14q-20 0 -127 -137h-5q106 135 131 141l8 1q12 0 22 -10t10 -29q0 -20 -14.5 -47.5t-41 -63.5t-29.5 -41
q112 156 165 184q12 6 26 6q17 0 29.5 -11t12.5 -31q0 -21 -13 -50t-35 -59q-95 -124 -105.5 -142t-10.5 -24t6 -6z" />
    <glyph glyph-name="Ncommaaccent" unicode="&#x145;" horiz-adv-x="1120" 
d="M1306 585l-1 -1q0 -2 -2 -5.5t-8 -3.5q-4 0 -7 3.5t-4 10.5q0 7 -5 7q-19 0 -50.5 -19t-82.5 -76t-108 -137.5t-117.5 -171.5t-87.5 -131t-43 -58.5t-22 -18.5t-13 9.5t-7 23.5q0 17 8 46q11 41 37.5 99.5t58.5 118.5t97.5 177t64.5 130q0 8 -6 8q-10 0 -34 -21.5
t-115.5 -140.5t-147.5 -184q-149 -176 -278 -261.5t-243 -85.5q-33 0 -65 8t-56.5 28t-39.5 50.5t-15 73.5q0 47 21.5 99.5t55.5 92t65 63.5q-19 21 -28 48.5t-9 51.5q0 37 16 75t50.5 70t90.5 51.5t130 19.5q65 0 170 -32.5t141.5 -38t58.5 -5.5q94 0 196 44l1 -2
q-105 -45 -196 -45q-60 0 -183.5 27.5t-187.5 27.5q-53 0 -105 -11t-92 -36t-64 -62.5t-24 -82.5q0 -55 43 -95q102 74 236 74q68 0 100 -28t32 -70q0 -34 -19.5 -71.5t-55 -70t-84 -52t-101.5 -19.5q-35 0 -63.5 13.5t-27.5 37.5h2q3 -10 17 -19t69 -9q39 0 83 12.5
t87.5 43t66 70t22.5 70.5q0 39 -32.5 63.5t-95.5 24.5q-65 0 -125 -20t-107 -54q55 -47 149 -47q32 0 71 6v-2q-51 -13 -94 -13q-44 0 -78 13.5t-55 36.5q-29 -22 -60.5 -57.5t-51.5 -83t-20 -88.5q0 -61 41.5 -99.5t122.5 -38.5q7 0 26.5 1t64.5 10t110 41t132.5 85.5
t129 118t106.5 119t87 108t62.5 79.5t38.5 46t32.5 33t25.5 13q6 0 12 -5.5t6 -19.5q0 -33 -23 -94.5t-62 -137t-101 -187t-73 -139.5q-4 -9 -4 -19t5 -10q7 0 29 28t109 160t129 189.5t69.5 91.5t56 65t60.5 54.5t58 23.5q12 0 19 -2.5t8 -12.5zM606 -12q4 0 6 -3t2 -6
q0 -10 -21 -35.5t-35 -36.5l-1 2q4 3 17 16t21 29l-7 -3q-7 0 -5 12l4 9q3 6 9 11t10 5z" />
    <glyph glyph-name="ncommaaccent" unicode="&#x146;" horiz-adv-x="366" 
d="M373 187q-49 -68 -111.5 -127.5t-91.5 -59.5q-12 0 -18 10t-6 21q0 18 18.5 53.5t76.5 109.5q21 28 40 60t19 50q0 9 -5 14t-13 5q-10 0 -21 -6q-12 -6 -34.5 -26.5t-63 -72t-95.5 -134t-58 -86.5q-7 5 -23 5t-26 -5q7 11 23 35t90 132.5t74 143.5q0 14 -8 14
q-19 0 -127 -137h-5q106 135 131 141l8 1q13 0 22.5 -10t9.5 -29q0 -16 -11.5 -40.5t-42 -67t-30.5 -43.5q109 153 164 183q12 6 26 6q17 0 29.5 -11t12.5 -31q0 -21 -13 -50t-35 -59q-95 -124 -105.5 -142t-10.5 -24t6 -6q28 0 89.5 58.5t109.5 124.5h5zM87 -12q4 0 6 -3
t2 -6q0 -10 -21 -35.5t-35 -36.5l-1 2q4 3 17 16t21 29l-8 -3q-6 0 -4 12l3 9q9 16 20 16z" />
    <glyph glyph-name="Ncaron" unicode="&#x147;" horiz-adv-x="1120" 
d="M1175 736l-17 -1l-14 71h4l29 -64l74 64h4l-64 -71zM1306 585l-1 -1q0 -2 -2 -5.5t-8 -3.5q-4 0 -7 3.5t-4 10.5q0 7 -5 7q-19 0 -50.5 -19t-82.5 -76t-108 -137.5t-117.5 -171.5t-87.5 -131t-43 -58.5t-22 -18.5t-13 9.5t-7 22.5q0 18 8 47q11 41 37.5 99.5t58.5 118.5
t97.5 177t64.5 130q0 8 -6 8q-10 0 -34 -21.5t-115.5 -140.5t-147.5 -184q-149 -176 -278 -261.5t-243 -85.5q-33 0 -65 8t-56.5 28t-39.5 50.5t-15 73.5q0 47 21.5 99.5t55.5 92t65 63.5q-19 21 -28 48.5t-9 51.5q0 37 16 75t50.5 70t90.5 51.5t130 19.5q64 0 169.5 -32.5
t142 -38t58.5 -5.5q94 0 196 44l1 -2q-105 -45 -196 -45q-60 0 -183.5 27t-187.5 27q-53 0 -105 -11t-92 -36t-64 -62t-24 -82q0 -54 42 -95q104 74 237 74q68 0 100 -28t32 -70q0 -34 -19.5 -71.5t-55 -70t-84 -52t-101.5 -19.5q-35 0 -63.5 13.5t-27.5 37.5h2
q3 -10 17 -19t69 -9q39 0 83 12.5t87.5 43t66 70t22.5 70.5q0 39 -32.5 63.5t-95.5 24.5q-65 0 -125 -20t-107 -54q55 -47 149 -47q32 0 71 6v-2q-51 -13 -94 -13q-44 0 -78 13.5t-56 36.5q-29 -22 -60 -57.5t-51 -83t-20 -88.5q0 -61 41.5 -99.5t122.5 -38.5q7 0 26.5 1
t64.5 10t110 41t132.5 85.5t129 118t106.5 119t87 108t62.5 79.5t38.5 46t32.5 33t25.5 13q5 0 11.5 -5.5t6.5 -19.5q0 -33 -23 -94.5t-62 -137t-101 -187t-73 -139.5q-4 -9 -4 -19t5 -10q7 0 29 28t109 160t129 189.5t69.5 91.5t56 65t60.5 54.5t58 23.5q12 0 19 -2.5
t8 -12.5z" />
    <glyph glyph-name="ncaron" unicode="&#x148;" horiz-adv-x="366" 
d="M251 445l-17 -1l-14 71h5l29 -64l73 64h5l-64 -71zM373 187q-49 -68 -111.5 -127.5t-91.5 -59.5q-12 0 -18 10t-6 21q0 18 19 53.5t76 109.5q21 26 40 58.5t19 51.5q0 9 -5.5 14t-12.5 5q-10 0 -21 -6q-2 -1 -9.5 -6t-28 -23.5t-61 -70.5t-95 -133.5t-57.5 -85.5
q-7 5 -23 5t-26 -5q7 11 23 35t90 132.5t74 143.5q0 14 -8 14q-20 0 -127 -137h-5q106 135 131 141l8 1q12 0 22 -10t10 -29q0 -20 -14.5 -47.5t-41 -63.5t-29.5 -41q112 155 164 184q14 6 27 6q17 0 29.5 -11t12.5 -31q0 -21 -13 -50t-35 -59q-95 -124 -105.5 -142
t-10.5 -24t6 -6q28 0 89.5 58.5t109.5 124.5h5z" />
    </font>
</defs>
</svg>
